<?xml version="1.0" standalone="no"?>
<!DOCTYPE svg PUBLIC "-//W3C//DTD SVG 1.1//EN" "http://www.w3.org/Graphics/SVG/1.1/DTD/svg11.dtd" >
<svg xmlns="http://www.w3.org/2000/svg" xmlns:xlink="http://www.w3.org/1999/xlink" version="1.1">
<metadata>
Created by FontForge 20161116 at Thu Mar 19 09:50:08 2015
 By Jimmy Wärting
Typeface (c)WOODCUTTER MMXV All Rights Reserved
</metadata>
<defs>
<font id="SCOREBOARD" horiz-adv-x="1040" >
  <font-face 
    font-family="SCOREBOARD"
    font-weight="400"
    font-stretch="normal"
    units-per-em="2048"
    panose-1="2 0 5 0 0 0 0 0 0 0"
    ascent="1638"
    descent="-410"
    x-height="1434"
    cap-height="1434"
    bbox="21.8261 -0.333333 3739 1434.5"
    underline-thickness="150"
    underline-position="-292"
    unicode-range="U+0020-F002"
  />
<missing-glyph horiz-adv-x="1024" 
d="M100 0v1434h824v-1434h-824zM150 50h724v1334h-724v-1334zM325 1148q31 28 58 43q53 30 112 30q92 0 148 -47.5t56 -127.5q0 -49 -23 -98.5t-87 -129.5q-63 -80 -99 -132t-36 -99q0 -38 24 -133h-32q-35 97 -35 148q0 76 81.5 218t81.5 217q0 57 -33 90t-91 33
q-38 0 -69 -17q-26 -15 -56 -40v45zM389 334l57 58q11 10 20 10q10 0 22 -11l56 -60q9 -11 9 -20q0 -11 -10 -22l-56 -62q-14 -14 -21 -14q-11 0 -20 10l-61 71q-7 9 -7 18q0 10 11 22z" />
    <glyph glyph-name=".notdef" horiz-adv-x="1024" 
d="M100 0v1434h824v-1434h-824zM150 50h724v1334h-724v-1334zM325 1148q31 28 58 43q53 30 112 30q92 0 148 -47.5t56 -127.5q0 -49 -23 -98.5t-87 -129.5q-63 -80 -99 -132t-36 -99q0 -38 24 -133h-32q-35 97 -35 148q0 76 81.5 218t81.5 217q0 57 -33 90t-91 33
q-38 0 -69 -17q-26 -15 -56 -40v45zM389 334l57 58q11 10 20 10q10 0 22 -11l56 -60q9 -11 9 -20q0 -11 -10 -22l-56 -62q-14 -14 -21 -14q-11 0 -20 10l-61 71q-7 9 -7 18q0 10 11 22z" />
    <glyph glyph-name=".null" horiz-adv-x="0" 
 />
    <glyph glyph-name="nonmarkingreturn" horiz-adv-x="508" 
 />
    <glyph glyph-name="space" unicode=" " horiz-adv-x="508" 
 />
    <glyph glyph-name="space" unicode="&#xa0;" horiz-adv-x="508" 
 />
    <glyph glyph-name="exclam" unicode="!" horiz-adv-x="1035" 
d="M464 221q-21 28 -24 70q-4 43 12 73q17 35 53 39q39 4 61 -27q20 -28 20 -72q1 -43 -17 -75q-19 -35 -51 -37t-54 29zM748 1399h-429q-19 0 -76 3q-50 1 -76 0q-83 -3 -103 -35v-506q3 -20 16 -33q-24 -20 -16 -105q5 -60 20 -65q16 1 18 31q2 32 10 38q171 -11 341 0
q-16 174 -4 510q58 14 133 -8q-2 -429 -8 -502q60 -6 164 -5q139 2 168 1q6 10 6 34q0 21 7 27q11 -56 0 -98q-6 1 -9 16q-3 13 -16 9q-28 -1 -162 0q-100 1 -158 -4q-14 -26 -19 -97q-5 -72 -17 -98h-45q-15 30 -22 93q-10 83 -14 102q-256 10 -345 -4q-5 -16 -4 -51
q1 -47 0 -55q-32 2 -44 -8q-4 -246 8 -535q34 -21 98 -23q20 0 56 1q40 2 57 2h461q16 0 57 -1q36 -2 56 -1q63 1 98 22v535q-1 7 -19 8q-16 0 -17 8q2 11 -2 34q-4 18 2 27q2 -7 36 -8q-1 75 0 364q2 228 -4 365q-34 12 -203 12zM867 13q-24 -1 -64 0q-48 1 -59 1h-470
q-11 0 -55 -2q-40 -1 -63 0q-74 1 -92 22q-12 15 -12 162v1029q0 161 16 178q22 17 223 17h453q175 0 215 -17q16 -30 16 -162v-1049q0 -140 -16 -158q-18 -19 -92 -21zM987 1225q0 156 -8 170q-14 27 -76 34q-26 3 -122 3h-478q-11 0 -65 1q-45 1 -72 1q-84 -3 -98 -27
q-5 0 -8 -8q-22 -10 -23 -66q-1 -18 1 -48q1 -34 1 -44v-887q0 -20 -2 -86q-3 -67 -3 -104q0 -125 26 -146q24 -19 102 -18l63 3q39 3 53 3h470q15 0 60 -2q41 -1 65 0q75 1 94 18q27 24 26 143q0 34 -3 99q-3 64 -3 86v875z" />
    <glyph glyph-name="quotedbl" unicode="&#x22;" 
d="M918 654q1 37 -1 53q-396 3 -805 0q-2 -17 -1 -54q0 -38 -2 -55q-48 -2 -42 -1v-472q0 -62 2 -66q7 -24 48 -28q-7 1 78 1h643q96 0 105 4q7 3 21 29v532q-5 2 -23 1q-16 0 -21 3q-2 16 -2 53zM930 829q-9 -64 1 -174q0 -9 31 6q2 15 2 92q0 64 -3 76h-31zM67 829v-174
q3 -1 3 4q0 4 2 5q3 -3 23 -3q2 0 4 -4q1 -3 3 -1v87q0 54 -1 86h-34zM186 1402q-92 0 -96 -1q-18 -6 -22 -33q-1 -8 -1 -56q0 -391 2 -475q7 -2 21 -1t21 0v-55q-1 -33 1 -52q228 -5 805 -2q2 17 1 55q0 38 2 55q37 -1 42 0q2 83 2 475q0 60 -2 66q-9 22 -39 25
q3 -1 -65 -1h-672zM940 14q-4 -1 -56 -1q-109 -1 -297 0h-287h-108q-110 0 -127 16q-13 19 -17 152q-2 80 3 257q0 6 -1 19q-2 14 -2 20v827q0 62 6 80q9 34 45 39h736q99 0 104 -2q23 -6 41 -39v-1248q0 -71 -3 -80q-8 -32 -37 -40zM994 1305q0 69 -4 81q-12 37 -47 46
q-10 2 -104 2h-745q-46 -8 -55 -53q-1 -7 -1 -82v-1247q23 -48 59 -52h841q42 7 53 55q3 10 3 80v1170z" />
    <glyph glyph-name="numbersign" unicode="#" 
d="M918 654q1 37 -1 53q-396 3 -805 0q-2 -17 -1 -54q0 -38 -2 -55q-48 -2 -42 -1v-472q0 -62 2 -66q7 -24 48 -28q-7 1 78 1h643q96 0 105 4q7 3 21 29v532q-5 2 -23 1q-16 0 -21 3q-2 16 -2 53zM930 829q-9 -64 1 -174q0 -9 31 6q2 15 2 92q0 64 -3 76h-31zM67 829v-174
q3 -1 3 4q0 4 2 5q3 -3 23 -3q2 0 4 -4q1 -3 3 -1v87q0 54 -1 86h-34zM186 1402q-92 0 -96 -1q-18 -6 -22 -33q-1 -8 -1 -56q0 -391 2 -475q7 -2 21 -1t21 0v-55q-1 -33 1 -52q228 -5 805 -2q2 17 1 55q0 38 2 55q37 -1 42 0q2 83 2 475q0 60 -2 66q-9 22 -39 25
q3 -1 -65 -1h-672zM940 14q-4 -1 -56 -1q-109 -1 -297 0h-287h-108q-110 0 -127 16q-13 19 -17 152q-2 80 3 257q0 6 -1 19q-2 14 -2 20v827q0 62 6 80q9 34 45 39h736q99 0 104 -2q23 -6 41 -39v-1248q0 -71 -3 -80q-8 -32 -37 -40zM994 1305q0 69 -4 81q-12 37 -47 46
q-10 2 -104 2h-745q-46 -8 -55 -53q-1 -7 -1 -82v-1247q23 -48 59 -52h841q42 7 53 55q3 10 3 80v1170z" />
    <glyph glyph-name="dollar" unicode="$" horiz-adv-x="1014" 
d="M819 710h-58q4 -21 22 -67q16 -40 18 -67q11 -115 -55 -194q-62 -75 -168 -91q-5 -12 -4 -49q1 -36 -4 -48q-98 -14 -134 4q3 -9 -5 89q-107 15 -207 61q1 13 41 138q181 -53 166 -52q26 124 0 252q-35 27 -159 26q-169 -3 -174 -2v8q1 12 14 10q3 -1 12 -3q7 -3 11 -3
q114 -5 199 4q-121 107 -118 220q2 87 64 140q57 48 151 59q8 13 3 45q-5 33 2 45q30 16 134 4q-3 6 4 -78q20 -13 94 -34q63 -17 85 -43q-8 -20 -37 -134q-21 4 -65 24q-39 19 -69 21q-16 -45 -4 -187q104 -35 166 -86q27 -1 96 1q60 1 75 -1v-8q1 -12 -13 -9q-3 0 -12 3
q-8 2 -11 2q-18 1 -60 0zM931 595q-19 3 -20 13q5 55 4 53q1 2 15 -3q16 -4 22 3q-2 89 0 361q2 228 -4 363q-32 16 -199 16h-435q-216 0 -244 -12q-12 -171 -4 -744q2 -3 16 8t20 4v-57q-2 -2 -25 -5q-16 -2 -16 -15v-272q0 -14 -2 -62q-3 -52 -3 -81q-2 -102 18 -122
q15 -15 92 -15q23 0 64 2q42 1 55 1h451q179 0 212 16q-1 -13 4 537q-1 9 -21 11zM578 438q39 3 62 36q21 31 21 72q0 42 -20 71q-23 33 -63 36q-12 -105 0 -215zM431 1007q-30 0 -48 -25q-17 -23 -16 -56q0 -33 17 -55q19 -25 52 -23q12 101 -5 159zM864 10q-24 -1 -63 0
q-49 1 -57 1h-231q-376 0 -447 12q-26 54 -28 153q-1 31 1 89q2 64 2 91v874q0 121 2 130q9 53 63 62h675q151 -2 183 -25q8 -177 8 -1037q0 -20 3 -82q3 -65 4 -99q1 -123 -23 -148q-19 -19 -92 -21zM980 1080q0 21 3 88q3 66 3 103q0 123 -30 147q-21 16 -199 16h-659
q-53 -10 -63 -64q-2 -11 -2 -131q0 -1019 8 -1212q35 -25 100 -27q20 0 57 1q43 2 59 2h479q211 0 228 16q16 16 16 163v898z" />
    <glyph glyph-name="percent" unicode="%" 
d="M918 654q1 37 -1 53q-396 3 -805 0q-2 -17 -1 -54q0 -38 -2 -55q-48 -2 -42 -1v-472q0 -62 2 -66q7 -24 48 -28q-7 1 78 1h643q96 0 105 4q7 3 21 29v532q-5 2 -23 1q-16 0 -21 3q-2 16 -2 53zM930 829q-9 -64 1 -174q0 -9 31 6q2 15 2 92q0 64 -3 76h-31zM67 829v-174
q3 -1 3 4q0 4 2 5q3 -3 23 -3q2 0 4 -4q1 -3 3 -1v87q0 54 -1 86h-34zM186 1402q-92 0 -96 -1q-18 -6 -22 -33q-1 -8 -1 -56q0 -391 2 -475q7 -2 21 -1t21 0v-55q-1 -33 1 -52q228 -5 805 -2q2 17 1 55q0 38 2 55q37 -1 42 0q2 83 2 475q0 60 -2 66q-9 22 -39 25
q3 -1 -65 -1h-672zM940 14q-4 -1 -56 -1q-109 -1 -297 0h-287h-108q-110 0 -127 16q-13 19 -17 152q-2 80 3 257q0 6 -1 19q-2 14 -2 20v827q0 62 6 80q9 34 45 39h736q99 0 104 -2q23 -6 41 -39v-1248q0 -71 -3 -80q-8 -32 -37 -40zM994 1305q0 69 -4 81q-12 37 -47 46
q-10 2 -104 2h-745q-46 -8 -55 -53q-1 -7 -1 -82v-1247q23 -48 59 -52h841q42 7 53 55q3 10 3 80v1170z" />
    <glyph glyph-name="ampersand" unicode="&#x26;" horiz-adv-x="3868" 
d="M3698 378q-5 1 -6 2q-2 0 -7 3t-5 9q0 5 3 8q4 3 8 3q5 0 8 -3l2 -4q1 -1 4 -2q4 -2 8 -2q5 0 8 4q3 3 1 8q-3 6 -8 11q-9 10 -23 10t-23 -10q-10 -9 -10 -23q0 -9 5 -15q4 -6 10 -9q5 -4 10 -6q5 -1 6 -2q2 0 7 -3q6 -2 6 -9q0 -4 -3 -7q-3 -4 -8 -4q-4 0 -8 4
q-1 1 -2 3t-4 3t-8 1t-7 -3q-4 -4 -2 -8q3 -6 8 -12q9 -9 23 -9t23 9q10 10 10 23q0 10 -5 16q-4 5 -10 9q-6 3 -11 5zM2269 425q-5 0 -9 -3q-3 -3 -3 -8q0 -4 3 -8q4 -3 9 -3h4q4 0 8 -3q3 -4 3 -8v-65q0 -5 4 -8q3 -3 7 -3q5 0 8 3t3 8v65q0 4 4 8q3 3 8 3h4q5 0 8 3
q4 4 4 8q0 5 -4 8q-3 3 -8 3h-53zM1984 425q-5 0 -8 -3q-4 -3 -4 -8q0 -4 4 -8q3 -3 8 -3h4q5 0 8 -3q4 -4 4 -8v-65q0 -5 3 -8t7 -3q5 0 8 3t3 8v65q0 4 4 8q3 3 8 3h4q5 0 8 3q4 4 4 8q0 5 -4 8q-3 3 -8 3h-53zM2597 403q5 0 9 3q3 4 3 8q0 5 -3 8q-4 3 -9 3h-42
q-5 0 -8 -3q-4 -4 -4 -9v-86q0 -5 3 -8q4 -3 8 -3h43q5 0 9 3q3 3 3 8q0 4 -3 7q-4 3 -9 3h-20q-5 0 -8 4q-4 3 -4 7q0 5 4 8q3 3 8 3h9q5 0 9 4q3 3 3 7q0 5 -3 8q-4 3 -9 3h-9q-5 0 -8 3q-4 4 -4 8q0 5 4 8q3 3 8 3h20zM1125 339q-4 -1 -8 2q-3 3 -3 8v43q0 5 3 8q4 3 8 1
q6 -2 12 -7q9 -10 9 -24q0 -13 -9 -23q-6 -5 -12 -8zM1103 425q-5 0 -8 -3q-3 -4 -3 -9v-86q0 -5 3 -8t8 -3h11q22 0 38 16t16 38q0 23 -16 39t-38 16h-11zM827 337q-13 0 -23 10t-10 23q0 14 10 24q10 9 23 9q14 0 23 -9q10 -10 10 -24q0 -13 -10 -23q-9 -10 -23 -10z
M789 409q-17 -16 -17 -39q0 -22 17 -38q16 -16 38 -16q23 0 39 16t16 38q0 23 -16 39t-39 16q-22 0 -38 -16zM3130 336q-4 -3 -4 -8t4 -9q4 -3 9 -3q7 0 10 3q4 3 4 9q0 5 -3 8q-4 4 -10 4t-10 -4zM3437 403q5 0 8 3q4 4 4 8q0 5 -4 8q-3 3 -8 3h-42q-5 0 -8 -3q-4 -4 -4 -9
v-86q0 -5 3 -8q4 -3 8 -3h43q5 0 8 3q4 3 4 8q0 4 -4 7q-3 3 -8 3h-20q-5 0 -8 4q-4 3 -4 7q0 5 4 8q3 3 8 3h9q5 0 8 4q4 3 4 7q0 5 -4 8q-3 3 -8 3h-9q-5 0 -8 3q-4 4 -4 8q0 5 4 8q3 3 8 3h20zM1746 422q-4 -4 -4 -9v-54q0 -9 -6 -15q-6 -7 -15 -7t-16 7q-6 6 -6 15v54
q0 5 -4 9q-3 3 -7 3q-5 0 -8 -3q-3 -4 -3 -9v-54q0 -18 13 -31q12 -12 31 -12q18 0 31 12q12 13 12 31v54q0 5 -3 9q-3 3 -8 3q-4 0 -7 -3zM2857 370h-8q-3 0 -6 3q-2 2 -2 6v16q0 3 2 6q3 2 6 2h8q7 0 12 -5t5 -11q0 -7 -5 -12t-12 -5zM2889 365q7 10 7 22q0 16 -12 27
q-11 11 -27 11h-27q-5 0 -8 -3q-3 -4 -3 -9v-86q0 -5 3 -8t8 -3q4 0 8 3q3 3 3 8v17q0 5 2 5q2 1 5 -3l14 -21q3 -4 8 -7q6 -2 11 -2h3q5 0 6 2q2 3 -1 7l-11 16q-3 4 -2 8t5 7q4 4 8 9zM235 425q-5 0 -10 -3q-5 -4 -7 -8l-12 -30q-2 -5 -5 -5q-2 0 -4 5l-12 30q-2 4 -5 4
t-5 -4l-12 -30q-2 -5 -4 -5q-3 0 -5 5l-12 30q-2 4 -7 8q-5 3 -10 3h-1q-5 0 -7 -3q-2 -4 0 -8l37 -94q2 -4 4 -4q3 0 5 4l12 31q2 5 5 5q2 0 4 -5l13 -31q2 -4 4 -4q3 0 5 4l37 94q2 4 0 8q-2 3 -8 3v0zM1447 400q4 -2 9 -2t8 3q3 4 3 8t-4 7t-9 5q-10 4 -21 4
q-23 0 -39 -16t-16 -39q0 -22 16 -38t39 -16q11 0 21 4q5 2 9 5q4 2 4 7q0 4 -3 7t-8 4q-5 0 -9 -3q-7 -3 -14 -3q-14 0 -23 10q-10 10 -10 23q0 14 10 24q9 9 23 9q7 0 14 -3zM508 337q-13 0 -23 10t-10 23q0 14 10 24q10 9 23 9q14 0 24 -9q9 -10 9 -24q0 -13 -9 -23
q-10 -10 -24 -10zM470 409q-16 -16 -16 -39q0 -22 16 -38t38 -16q23 0 39 16t16 38q0 23 -16 39t-39 16q-22 0 -38 -16zM2122 774q29 13 26 54q-2 17 -10 30q-10 13 -23 16q-11 3 -31 1q-22 -2 -33 -1q-3 -1 -4 -4q0 -9 -1 -50q0 -31 2 -48q76 3 74 2zM2047 712
q0 -10 -1 -55q0 -33 2 -52q3 0 48 -2q28 -2 42 5q22 10 28 39t-8 51q-11 16 -44 18q-10 1 -30 0h-33q-3 -1 -4 -4zM1827 732h-41q-4 -1 -3 -9q0 -8 -2 -10h-78q-2 -17 -3 -111q23 -2 64 -2q55 1 66 0q-1 -8 1 -27q1 -17 -1 -26q-89 -4 -177 0q-2 34 -2 91v93q-8 2 -35 1
q-4 0 -10 -1q-5 -1 -8 -1q-7 0 -6 8q0 4 8 4q1 0 7 -1q5 -1 9 -1q6 -1 17 0h17q2 26 1 94q-1 62 3 92h90q55 1 88 -1q0 -8 -1 -26q-1 -16 -1 -26q-23 -2 -63 -2q-53 1 -64 0q-2 -18 -2 -50q1 -43 0 -52q14 -2 39 -1h41q-1 2 2 -27q15 -2 54 -1q39 0 52 -2q0 -6 -8 -7
q-3 0 -8 1h-6h-40zM1898 693q-7 1 -9 2v31q17 -13 12 -13q5 52 2 61q-2 2 -8 1q-6 -2 -6 2q1 2 8 2q7 1 9 2q-1 169 -3 198q-13 5 -76 5h-240q-3 -1 -4 -5q-4 -12 -4 -102q0 -80 1 -96q1 -1 8 -2q6 0 7 -2q-1 -1 1 -12q2 -9 -4 -11q0 18 0 15q-1 8 -8 8q-7 -6 -6 -29
q0 -6 1 -18t1 -16q1 -1 7 0q6 0 6 -3q-1 -17 0 -16q-1 -1 -8 -2q-5 0 -5 -4q-5 -162 3 -198q57 -4 154 -3h158q9 8 11 41q1 26 0 80q-1 58 0 82q-2 2 -8 2zM3348 778h5q-2 -6 -5 -6v6zM3051 741q-1 22 3 27v-14q0 -10 3 -15q30 3 28 2q4 28 1 89q-3 65 0 96q21 -2 55 0
q44 1 54 1q60 -1 85 -23q27 -24 32 -74q5 -52 -15 -89q7 -2 26 -2q22 1 25 0q2 -2 3 -13q0 -10 5 -12q8 8 9 30q0 19 -5 34q5 11 5 80q0 90 -5 123q-12 6 -72 6q-207 0 -245 -3q-4 -11 -4 -67v-175q0 -1 -1 -7v-10q0 -11 10 -11q5 5 3 27zM1823 481h-167q-5 0 -19 -1
q-15 -1 -23 -1q-29 0 -35 7q-8 8 -8 57q0 14 1 37t1 28v317q0 4 -1 22q-1 13 0 19q2 20 15 24q5 1 82 1h157q71 0 75 -3q10 -6 11 -55q0 -15 -1 -38q-1 -25 -1 -28v-326q0 -50 -7 -56q-6 -4 -80 -4zM1832 996h-163q-80 0 -85 -2q-12 -4 -15 -20q-1 -5 -1 -35v-390
q0 -58 3 -63q6 -10 33 -11q-2 0 44 0h178q73 0 81 7t8 58v391q0 52 -8 59q-6 6 -75 6zM2835 864q-22 -77 -30 -123q31 -4 62 0q-14 78 -32 123zM2925 732q5 -32 22 -91q18 -64 24 -94q-8 -2 -24 -1h-25q-7 9 -12 35q-5 27 -12 36h-121q-9 -9 -14 -34q-6 -29 -11 -37
q-55 5 -51 3q18 61 48 182q-4 1 -33 1h-9q-6 -1 -8 -1q-9 0 -11 4q0 6 10 6q2 0 8 -1h9h34q5 10 26 90q4 12 13 46q9 29 13 46q-1 1 0 2t1 2h70q-2 6 25 -95q21 -79 27 -91h34h8h8q10 0 12 -3q-3 -5 -12 -6q-3 0 -8 1h-8h-33zM2761 984h-24q-17 1 -26 1q-30 -1 -36 -9v-195
q1 -1 6 -2t6 -2q-6 -1 -12 -3v-60q2 -2 7 1t6 2q6 -11 0 -22q-1 -1 -7 -2q-5 0 -6 -2q-4 -44 0 -92q1 -9 -2 -27q-2 -19 -1 -28q5 -55 4 -53q41 -3 242 -3q65 0 78 4q5 52 2 199q-1 2 -7 3q-6 0 -7 3v19q14 6 14 0q2 9 1 27v29q-1 3 -8 3q-6 -1 -5 2q-1 3 6 2q6 0 6 4
q1 25 1 155v13q1 8 1 12q-1 14 -8 21h-231zM1459 480h-83q-137 0 -163 5q-7 11 -7 58v390v34q2 17 10 21q6 3 79 3h161q75 0 83 -4q5 -13 5 -126v-255v-30q1 -24 2 -37q0 -44 -8 -53q-6 -6 -79 -6zM1540 989q-3 1 -4 2q-4 4 -80 5h-166q-67 0 -80 -5q-8 -11 -8 -56v-329
q0 -7 -2 -31q-1 -24 -1 -38q0 -47 10 -55q7 -6 36 -6q8 0 24 1h20h170q76 0 82 5q7 6 7 56v388q0 56 -4 61zM2604 477q-8 -1 -23 0h-22h-169q-72 0 -78 6q-10 10 -10 73q0 18 1 49q1 29 1 35v271q-1 67 9 74q41 3 249 3q70 0 75 -4q9 -8 8 -57q0 -14 -1 -38q-1 -23 -1 -28
v-319q0 -51 -6 -57q-6 -8 -33 -8zM2614 994q-40 0 -119 -1q-92 -1 -121 -1q-57 0 -70 -8q-3 -69 -3 -381q0 -7 -1 -30q-1 -24 -1 -38q0 -46 8 -55q7 -6 35 -7q8 0 24 1h21h172h21q16 -1 24 -1q29 -1 36 6q6 5 6 58v322q0 8 1 31q1 25 2 38q0 47 -7 57q-7 9 -28 9zM2201 735
q21 -28 20 -75q-1 -45 -20 -73q-23 -32 -85 -38q-22 -2 -118 1v93q0 57 -2 91q-3 2 -19 1q-15 -1 -16 5q-1 -6 34 3q4 27 3 93q-2 66 3 93q21 -2 63 1q39 2 58 -1q56 -8 70 -70q14 -60 -23 -102q7 -14 40 -14q48 -1 49 -2q0 -6 -10 -7q-3 0 -8 1h-8h-31zM2272 694q-2 2 -8 2
q-6 1 -7 4v19q1 1 7 -1q4 -2 8 1v56q-1 3 -8 3q-6 -1 -6 2t6 2q7 0 6 4q2 38 2 96q-1 81 0 97q-5 3 -8 8h-311q-3 -1 -4 -5q-4 -98 0 -198q1 -2 6 -2q6 -1 6 -4q-1 0 -5 1t-7 -1q-4 -32 0 -62q1 -1 6 3t7 1v-22q-1 -1 -8 -2q-5 0 -7 -2v-157v-13v-12q1 -14 8 -21h309
q7 6 8 20v12v12v159zM2578 604q-33 -55 -93 -62q-12 -1 -22 0q-113 14 -125 184q1 3 -6 3q-7 -1 -7 3q1 -8 13 6q4 86 39 138q16 23 46 37q34 15 72 10q54 -8 85 -62q29 -51 29 -122q1 -4 7 -2q7 1 7 -2q-3 8 -14 -8q-1 -74 -31 -123zM2621 713q1 2 7 -1q5 -3 6 2
q4 153 0 264q-11 6 -72 6h-235q-16 -4 -17 -21q-1 -5 2 -36q0 -8 -2 -32q-2 -23 -1 -36q8 -89 6 -84q-6 -16 -2 -62q2 -3 7 -1q5 3 5 2q1 -2 2 -22q-16 -9 -15 -6v-99q-1 -60 1 -96q13 -6 77 -6h166q66 0 78 6q3 33 2 98q-1 66 1 97q-1 3 -8 4t-8 5v18zM2921 481h-166
q-73 0 -79 4q-13 10 -9 120v324q0 37 1 38q2 19 13 24h244q70 0 75 -6q9 -8 9 -56q-1 -14 -2 -38q-1 -23 -1 -29v-319q0 -50 -7 -57q-6 -5 -78 -5zM2928 996h-163q-79 0 -84 -2q-15 -4 -17 -29q-1 -9 0 -24v-25v-327q1 -9 -1 -27q-2 -19 -1 -28q1 -41 5 -48q8 -10 35 -11
q-2 0 47 0h179q2 0 22 -1h23q27 2 33 12q3 5 3 61v320q0 117 -6 123t-75 6zM2190 484h-166q-70 0 -77 6q-9 8 -9 55q0 14 1 37t1 29v257q0 7 -1 35q-1 24 0 38q1 45 14 53q28 0 161 1q99 0 158 -4q7 -19 7 -123v-260q0 -7 1 -31q1 -23 1 -37q0 -44 -11 -52q-6 -4 -80 -4z
M2282 552q0 360 -3 438q-12 9 -34 10q-7 0 -20 -1h-20h-249q-16 -4 -19 -24v-366q0 -8 -1 -31q-1 -24 -1 -37q-1 -45 8 -54q8 -9 36 -10h24q19 1 23 1h186q38 0 43 1q22 3 27 16v57zM2541 831q-23 41 -71 40q-33 -1 -56 -30q-31 -38 -24 -105q15 1 86 0q53 0 84 2
q1 58 -19 93zM2389 726q0 -82 37 -111q25 -19 52 -18q24 2 45 21q45 41 37 109q-26 3 -84 2t-84 1q-3 -1 -3 -4zM549 484q-72 0 -78 6q-8 7 -9 50q0 13 1 36v29v362q2 21 14 27h239q73 0 77 -3q11 -7 11 -52q0 -13 -1 -37t-1 -31v-322q0 -51 -6 -58t-33 -8h-23q-18 1 -22 1
h-169zM805 867q0 119 -4 124q-6 8 -74 8h-164q-79 0 -85 -2q-11 -2 -14 -8q-3 -5 -4 -21v-416q0 -58 3 -62q6 -10 33 -12h44h179q4 0 22 -1h25q28 1 35 10q4 5 4 59v321zM660 738q8 5 55 5q55 0 65 1q1 0 2 -6q-44 -9 -91 0q-17 -7 -31 0zM542 612q-27 47 -33 122
q-2 2 -13 1t-12 3q-1 6 8 5q13 -1 16 0q4 72 31 121q32 58 89 65q44 6 79 -14q32 -18 48 -52q-23 -19 -43 -30q-39 41 -78 35q-37 -5 -56 -43q-17 -35 -15 -81q12 -2 49 -1q33 1 47 -3q-14 -6 -46 -5q-43 1 -50 0q-3 -48 19 -85q25 -40 65 -41q17 0 35 11q6 4 14 10
q11 8 15 11q8 -4 39 -29q-14 -32 -44 -49q-32 -18 -72 -14q-60 6 -92 63zM638 987q-131 -1 -158 0l-9 -9v-98q-1 -60 1 -96q1 -1 8 -2q6 0 6 -4q-2 -1 -8 0q-6 2 -7 -1v-31q-1 -19 1 -29q1 -1 6 2q6 3 8 0v-21q-2 -1 -8 -1q-6 -1 -6 -5q-2 -22 -1 -79q1 -53 -3 -78
q3 -4 2 -22q0 -16 7 -20q58 -2 154 -2h156q3 5 8 7v196q-1 2 -8 2q-6 1 -7 4q1 20 2 22q10 -7 13 -5v58q-1 3 -8 3q-6 -1 -5 2q0 3 5 3q7 0 8 1v102q1 60 -3 98q-57 4 -154 3zM3138 867q-4 -57 0 -116q12 1 33 1q25 -1 33 -1q36 1 48 15q20 22 11 60q-9 39 -36 45
q-15 3 -42 1q-28 -3 -44 -1q-3 -1 -3 -4zM1070 838q-23 41 -71 39q-33 -1 -56 -29q-31 -39 -24 -105q15 0 86 -1q53 0 84 2q2 58 -19 94zM2805 732q-7 -6 -10 -23q-1 -2 -3 -13q-2 -9 -3 -14q14 -2 47 -2q34 1 45 -1q2 16 -11 53h-65zM3486 728v-126q71 -7 112 29
q39 35 41 100q-27 2 -74 1h-76q-3 -1 -3 -4zM413 763q0 -7 -2 -11q-3 3 -1 21q3 -2 3 -10zM418 696q-6 -1 -7 1q0 8 -1 20q-2 11 -2 17q-40 4 -78 0q45 -59 34 -112q-6 -26 -30 -48q-25 -20 -54 -25q-68 -10 -120 30q3 7 9 26q5 18 10 26q26 -25 74 -27q50 -2 62 30
q8 20 0 38q-6 15 -37 37q-34 24 -47 27q-19 3 -54 0q-37 -3 -56 0q-3 1 -5 -4q-1 -4 -4 -2q5 14 5 13q72 -4 102 2q-32 24 -45 47q-19 33 -11 74q5 24 29 40q22 16 53 21q70 12 106 -27q-1 -4 -7 -25q-3 -16 -7 -25q-23 21 -72 21q-52 0 -56 -29q-3 -17 20 -40q7 -6 61 -41
q32 -21 31 -21q13 -2 45 1q35 3 47 2l-1 -15q-1 -8 4 -11h7q2 9 2 28q-1 25 0 31q-2 2 -9 1q-5 -1 -5 2t6 3q7 0 8 1v197q-12 8 -34 8h-19q-14 -1 -20 -1h-240q-10 -2 -12 -12q0 1 0 -20q0 -16 -1 -83q-1 -55 0 -89q1 -1 10 -1q7 0 6 -6q0 -1 -5 1q-6 2 -8 -1q-3 -8 1 -59
q6 -3 9 4q2 6 3 4v-28q-17 -7 -16 -6q2 -173 6 -197q209 -3 219 -2q11 1 54 -1q31 -1 45 5q2 38 2 98q-1 83 0 100q-1 2 -7 2zM432 548q0 -52 -6 -58t-33 -7q-9 0 -24 1h-21h-168q-76 0 -80 3q-8 7 -8 56q1 14 2 38t1 29v320q0 51 5 57q6 6 77 6h166q71 0 80 -3q8 -4 9 -25
q0 5 0 -41v-376zM425 992q-9 6 -80 6h-169q-74 0 -80 -6q-9 -9 -8 -54q0 -13 1 -36t1 -30v-379q9 -14 31 -16h43h181q5 0 22 -1h24q30 0 38 8q7 7 7 56v385q0 57 -4 61q-4 3 -7 6zM3652 606q-39 -54 -106 -60q-1 0 -110 1v89v93q-2 4 -11 3q-10 -2 -11 -1v9q1 3 9 0
q8 -2 12 1q2 32 1 91v90q-2 0 0 2t3 2q20 -1 58 0q35 2 52 0q62 -6 102 -58q38 -51 38 -124q1 -5 12 -4q10 0 10 -2q2 -7 -7 -6q-12 0 -13 -1q-3 -76 -39 -125zM3651 984h-241l-9 -9q0 -17 -1 -98q0 -60 2 -96q1 -2 8 -2q6 0 5 -7q-12 8 -13 2q-4 -29 0 -58q2 -3 7 0t6 0
v-21q-1 -1 -8 -1q-5 -1 -5 -5q-1 -17 -1 -100t4 -98q82 -5 314 -2q2 4 6 6q4 107 3 196q-2 2 -8 2q-7 1 -9 2q-3 6 0 22q15 -2 14 -3q-1 10 2 32q2 19 -2 29q-2 2 -8 1q-5 -1 -6 1q2 1 9 1q6 1 8 3q1 76 -3 197q-12 6 -74 6zM3732 544q0 -52 -6 -58q-7 -7 -35 -7q-8 0 -24 1
q-15 1 -21 1h-170q-4 0 -21 -1h-23q-27 1 -33 8q-4 5 -4 59q0 359 1 434q8 10 40 11q11 1 28 0q21 -1 27 -1h161q68 0 74 -6q9 -8 8 -56q0 -14 -1 -38q-1 -23 -1 -29v-318zM3737 864q0 5 1 27q0 24 1 38q0 49 -8 59q-6 7 -31 8h-23h-23h-163q-80 0 -84 -2q-14 -4 -16 -22
q-1 -2 -1 -33v-390q0 -58 3 -63q6 -9 31 -11h46h179q4 0 23 -1h24q27 1 35 10t8 53q0 12 -1 36t-1 33v258zM3486 803q0 -40 2 -63q13 0 76 -1q47 0 75 2q-1 65 -41 101q-42 37 -112 26q1 -11 0 -65zM3357 693q-7 1 -9 2v36q-9 -1 -30 2q-19 2 -27 1q-9 -2 -21 -15
q-12 -12 -19 -14q7 -27 31 -80q22 -52 29 -79q-3 0 -26 -1q-16 0 -24 2q-9 19 -32 74q-19 47 -32 74q-29 4 -59 0q-2 -23 -1 -74q0 -51 -2 -74q-41 -5 -50 3q-1 29 1 91q3 56 0 90q1 0 -29 1q-5 -14 -5 -38h-4q-3 0 -4 -1q-5 0 -5 -4v-195q12 -6 75 -6h166q75 0 79 4
q3 4 6 40q1 23 0 78q-2 57 0 81q-2 2 -8 2zM1531 693q-7 1 -8 2v36q-10 -1 -31 2q-18 2 -27 1q-8 -2 -20 -15q-13 -12 -20 -14q8 -27 31 -80q23 -52 30 -79q-4 0 -26 -1q-16 0 -25 2q-8 20 -31 74q-20 47 -32 74q-30 4 -59 0q-3 -23 -2 -74t-1 -74q-41 -5 -51 3q-1 29 2 91
q2 56 0 90l-30 1q-5 -14 -4 -38h-5q-3 0 -4 -1q-5 0 -5 -4v-195q13 -6 76 -6h166q74 0 78 4q3 4 6 40q2 23 0 78q-1 57 0 81q-1 2 -8 2zM918 732q0 -82 37 -111q25 -19 52 -17q24 1 45 20q45 42 37 110q-26 2 -84 1t-84 2q-3 -1 -3 -5zM1313 867q-4 -57 0 -116q12 1 33 1
q24 -1 32 -1q36 1 49 15q19 22 11 60q-9 39 -37 45q-15 3 -41 1q-29 -3 -44 -1q-3 -1 -3 -4zM3285 480h-83q-137 0 -163 5q-7 11 -7 58v390v34q1 17 10 21q6 3 78 3h162q74 0 83 -4q4 -13 4 -126v-255q0 -7 1 -30q1 -24 1 -37q0 -44 -8 -53q-6 -6 -78 -6zM3365 989
q-2 1 -3 2q-5 4 -80 5h-166q-67 0 -80 -5q-9 -11 -9 -56v-329q0 -7 -1 -31t-1 -38q-1 -47 10 -55q7 -6 36 -6q8 0 23 1h20h171q76 0 81 5q7 6 7 56v388q0 56 -4 61q-1 1 -4 2zM1107 610q-33 -55 -93 -61q-12 -2 -22 0q-113 14 -125 183q1 4 -6 3t-7 3q1 -7 13 6q4 86 39 138
q16 24 46 37q34 16 72 10q54 -8 85 -62q29 -50 29 -122q1 -4 8 -2q6 1 6 -2q-3 8 -14 -7q0 -75 -31 -124zM1150 719q1 2 7 -1q5 -3 6 2q4 153 0 264q-11 6 -72 6h-235q-15 -3 -17 -21q-1 -5 2 -36q1 -8 -2 -31q-2 -24 -1 -37q8 -88 6 -84q-6 -15 -2 -62q2 -3 7 0q5 2 5 1
q1 -2 2 -22q-16 -9 -15 -6v-98q-1 -61 1 -97q13 -6 77 -6h166q66 0 78 6q3 33 2 98q-1 66 1 97q-1 3 -8 4t-8 5v18zM1133 483h-23q-18 1 -22 1h-169q-72 0 -78 5q-10 10 -10 73q0 18 1 49q1 29 1 35v271q-1 67 9 74q41 3 249 3q70 0 75 -4q9 -8 8 -57q0 -14 -1 -38
q-1 -23 -1 -28v-318q0 -52 -6 -58q-6 -7 -33 -8zM1143 1000q-39 1 -119 0q-92 -1 -121 -1q-57 0 -70 -9q-3 -69 -3 -381q0 -7 -1 -30q-1 -24 -1 -37q0 -47 8 -56q7 -6 35 -6q8 -1 24 0t21 1h172q6 0 21 -1q16 -1 24 -1q29 0 36 6q6 5 6 58v322q0 8 1 31q2 25 2 38
q1 47 -7 57q-7 9 -28 9zM1523 778h4q-1 -6 -4 -6v6zM1226 741q-2 22 2 27q1 -2 1 -14q-1 -10 2 -15q31 3 28 2q5 28 2 89q-4 65 0 96q21 -2 55 0q44 1 53 1q60 -1 86 -23q26 -24 31 -74q6 -52 -15 -89q8 -2 27 -2q21 1 25 0q2 -2 2 -13q1 -10 5 -12q9 8 9 30q1 19 -4 34
q4 11 4 80q0 89 -4 123q-12 6 -73 6q-206 0 -244 -3q-5 -11 -5 -67v-175v-7q-1 -6 -1 -10q1 -11 10 -11q5 5 4 27z" />
    <glyph glyph-name="quotesingle" unicode="'" 
d="M918 654q1 37 -1 53q-396 3 -805 0q-2 -17 -1 -54q0 -38 -2 -55q-48 -2 -42 -1v-472q0 -62 2 -66q7 -24 48 -28q-7 1 78 1h643q96 0 105 4q7 3 21 29v532q-5 2 -23 1q-16 0 -21 3q-2 16 -2 53zM930 829q-9 -64 1 -174q0 -9 31 6q2 15 2 92q0 64 -3 76h-31zM67 829v-174
q3 -1 3 4q0 4 2 5q3 -3 23 -3q2 0 4 -4q1 -3 3 -1v87q0 54 -1 86h-34zM186 1402q-92 0 -96 -1q-18 -6 -22 -33q-1 -8 -1 -56q0 -391 2 -475q7 -2 21 -1t21 0v-55q-1 -33 1 -52q228 -5 805 -2q2 17 1 55q0 38 2 55q37 -1 42 0q2 83 2 475q0 60 -2 66q-9 22 -39 25
q3 -1 -65 -1h-672zM940 14q-4 -1 -56 -1q-109 -1 -297 0h-287h-108q-110 0 -127 16q-13 19 -17 152q-2 80 3 257q0 6 -1 19q-2 14 -2 20v827q0 62 6 80q9 34 45 39h736q99 0 104 -2q23 -6 41 -39v-1248q0 -71 -3 -80q-8 -32 -37 -40zM994 1305q0 69 -4 81q-12 37 -47 46
q-10 2 -104 2h-745q-46 -8 -55 -53q-1 -7 -1 -82v-1247q23 -48 59 -52h841q42 7 53 55q3 10 3 80v1170z" />
    <glyph glyph-name="parenleft" unicode="(" 
d="M918 654q1 37 -1 53q-396 3 -805 0q-2 -17 -1 -54q0 -38 -2 -55q-48 -2 -42 -1v-472q0 -62 2 -66q7 -24 48 -28q-7 1 78 1h643q96 0 105 4q7 3 21 29v532q-5 2 -23 1q-16 0 -21 3q-2 16 -2 53zM930 829q-9 -64 1 -174q0 -9 31 6q2 15 2 92q0 64 -3 76h-31zM67 829v-174
q3 -1 3 4q0 4 2 5q3 -3 23 -3q2 0 4 -4q1 -3 3 -1v87q0 54 -1 86h-34zM186 1402q-92 0 -96 -1q-18 -6 -22 -33q-1 -8 -1 -56q0 -391 2 -475q7 -2 21 -1t21 0v-55q-1 -33 1 -52q228 -5 805 -2q2 17 1 55q0 38 2 55q37 -1 42 0q2 83 2 475q0 60 -2 66q-9 22 -39 25
q3 -1 -65 -1h-672zM940 14q-4 -1 -56 -1q-109 -1 -297 0h-287h-108q-110 0 -127 16q-13 19 -17 152q-2 80 3 257q0 6 -1 19q-2 14 -2 20v827q0 62 6 80q9 34 45 39h736q99 0 104 -2q23 -6 41 -39v-1248q0 -71 -3 -80q-8 -32 -37 -40zM994 1305q0 69 -4 81q-12 37 -47 46
q-10 2 -104 2h-745q-46 -8 -55 -53q-1 -7 -1 -82v-1247q23 -48 59 -52h841q42 7 53 55q3 10 3 80v1170z" />
    <glyph glyph-name="parenright" unicode=")" 
d="M918 654q1 37 -1 53q-396 3 -805 0q-2 -17 -1 -54q0 -38 -2 -55q-48 -2 -42 -1v-472q0 -62 2 -66q7 -24 48 -28q-7 1 78 1h643q96 0 105 4q7 3 21 29v532q-5 2 -23 1q-16 0 -21 3q-2 16 -2 53zM930 829q-9 -64 1 -174q0 -9 31 6q2 15 2 92q0 64 -3 76h-31zM67 829v-174
q3 -1 3 4q0 4 2 5q3 -3 23 -3q2 0 4 -4q1 -3 3 -1v87q0 54 -1 86h-34zM186 1402q-92 0 -96 -1q-18 -6 -22 -33q-1 -8 -1 -56q0 -391 2 -475q7 -2 21 -1t21 0v-55q-1 -33 1 -52q228 -5 805 -2q2 17 1 55q0 38 2 55q37 -1 42 0q2 83 2 475q0 60 -2 66q-9 22 -39 25
q3 -1 -65 -1h-672zM940 14q-4 -1 -56 -1q-109 -1 -297 0h-287h-108q-110 0 -127 16q-13 19 -17 152q-2 80 3 257q0 6 -1 19q-2 14 -2 20v827q0 62 6 80q9 34 45 39h736q99 0 104 -2q23 -6 41 -39v-1248q0 -71 -3 -80q-8 -32 -37 -40zM994 1305q0 69 -4 81q-12 37 -47 46
q-10 2 -104 2h-745q-46 -8 -55 -53q-1 -7 -1 -82v-1247q23 -48 59 -52h841q42 7 53 55q3 10 3 80v1170z" />
    <glyph glyph-name="asterisk" unicode="*" 
d="M918 654q1 37 -1 53q-396 3 -805 0q-2 -17 -1 -54q0 -38 -2 -55q-48 -2 -42 -1v-472q0 -62 2 -66q7 -24 48 -28q-7 1 78 1h643q96 0 105 4q7 3 21 29v532q-5 2 -23 1q-16 0 -21 3q-2 16 -2 53zM930 829q-9 -64 1 -174q0 -9 31 6q2 15 2 92q0 64 -3 76h-31zM67 829v-174
q3 -1 3 4q0 4 2 5q3 -3 23 -3q2 0 4 -4q1 -3 3 -1v87q0 54 -1 86h-34zM186 1402q-92 0 -96 -1q-18 -6 -22 -33q-1 -8 -1 -56q0 -391 2 -475q7 -2 21 -1t21 0v-55q-1 -33 1 -52q228 -5 805 -2q2 17 1 55q0 38 2 55q37 -1 42 0q2 83 2 475q0 60 -2 66q-9 22 -39 25
q3 -1 -65 -1h-672zM940 14q-4 -1 -56 -1q-109 -1 -297 0h-287h-108q-110 0 -127 16q-13 19 -17 152q-2 80 3 257q0 6 -1 19q-2 14 -2 20v827q0 62 6 80q9 34 45 39h736q99 0 104 -2q23 -6 41 -39v-1248q0 -71 -3 -80q-8 -32 -37 -40zM994 1305q0 69 -4 81q-12 37 -47 46
q-10 2 -104 2h-745q-46 -8 -55 -53q-1 -7 -1 -82v-1247q23 -48 59 -52h841q42 7 53 55q3 10 3 80v1170z" />
    <glyph glyph-name="plus" unicode="+" 
d="M918 654q1 37 -1 53q-396 3 -805 0q-2 -17 -1 -54q0 -38 -2 -55q-48 -2 -42 -1v-472q0 -62 2 -66q7 -24 48 -28q-7 1 78 1h643q96 0 105 4q7 3 21 29v532q-5 2 -23 1q-16 0 -21 3q-2 16 -2 53zM930 829q-9 -64 1 -174q0 -9 31 6q2 15 2 92q0 64 -3 76h-31zM67 829v-174
q3 -1 3 4q0 4 2 5q3 -3 23 -3q2 0 4 -4q1 -3 3 -1v87q0 54 -1 86h-34zM186 1402q-92 0 -96 -1q-18 -6 -22 -33q-1 -8 -1 -56q0 -391 2 -475q7 -2 21 -1t21 0v-55q-1 -33 1 -52q228 -5 805 -2q2 17 1 55q0 38 2 55q37 -1 42 0q2 83 2 475q0 60 -2 66q-9 22 -39 25
q3 -1 -65 -1h-672zM940 14q-4 -1 -56 -1q-109 -1 -297 0h-287h-108q-110 0 -127 16q-13 19 -17 152q-2 80 3 257q0 6 -1 19q-2 14 -2 20v827q0 62 6 80q9 34 45 39h736q99 0 104 -2q23 -6 41 -39v-1248q0 -71 -3 -80q-8 -32 -37 -40zM994 1305q0 69 -4 81q-12 37 -47 46
q-10 2 -104 2h-745q-46 -8 -55 -53q-1 -7 -1 -82v-1247q23 -48 59 -52h841q42 7 53 55q3 10 3 80v1170z" />
    <glyph glyph-name="comma" unicode="," horiz-adv-x="1029" 
d="M113 708v12q-1 7 4 8q142 -11 386 -9q326 3 396 1q5 -1 20 6q9 5 8 -10q1 -18 -8 -13q-16 8 -24 5h-782zM487 88l28 21q31 28 23 76q1 0 -49 4q-64 39 -52 142q16 66 82 66q67 -1 84 -66q11 -264 -142 -267q8 11 26 24zM944 594q-19 1 -21 9v61q5 4 18 -7q12 -11 23 -1
q-2 87 0 358q1 230 -4 367q-32 16 -199 16h-434q-19 0 -72 2q-47 1 -73 0q-80 -1 -106 -22v-368q1 -229 0 -353q6 -8 23 1q15 8 18 -1v-57q-3 -2 -25 -6q-17 -2 -16 -15q1 -47 0 -267q-1 -165 4 -263q35 -17 211 -17h454q180 0 215 17q5 104 4 268q-1 248 0 267q-1 9 -20 11
zM514 11h-227q-173 0 -211 16q-20 52 -20 325v863v136q9 57 65 66h652q162 0 199 -20q12 -59 12 -340v-884q0 -119 -24 -150q-74 -12 -446 -12zM988 1393q-27 31 -84 36q-2 1 -107 1h-453q-20 0 -82 2q-56 3 -87 2q-99 -2 -119 -37q-8 -14 -8 -166v-871q0 -20 -3 -82
q-3 -67 -3 -102q-2 -128 18 -153q17 -21 92 -22q24 -1 66 1q47 1 61 1h478q12 0 58 -2q42 -1 67 -1q80 1 98 23q12 15 12 158q0 991 -4 1212z" />
    <glyph glyph-name="hyphen" unicode="-" horiz-adv-x="1032" 
d="M820 615q-150 -12 -619 -4q-3 7 -1 48q2 35 -11 49q-78 -1 -89 -12q7 83 4 77q5 -6 7 -26q1 -21 5 -27h45q27 -1 36 8q13 37 0 85h623q2 -81 4 -89q12 -9 55 -2q35 7 34 -10q-1 -11 -32 -6q-39 6 -53 2q-3 -5 -8 -93zM99 811q-1 16 -3 18q15 3 15 -9q1 -4 -1 -12
q-2 -9 -2 -11q-7 1 -9 14zM962 1073q-13 206 -13 218q0 10 2 28q3 20 3 27q1 31 -17 46q-108 4 -627 4q-211 0 -239 -12q0 -26 -11 -259q-8 -170 3 -263q4 -28 13 -37q-18 -25 -9 -170q6 -4 23 -1q16 4 18 -3q2 -4 0 -22q-1 -21 0 -30q-3 -4 -24 -4q-17 -1 -17 -12
q-10 -265 0 -530q35 -22 96 -23q20 -1 55 1q40 1 56 1h457q180 0 214 17q0 -1 12 538q-3 6 -21 7t-23 5v73q2 -2 6 -7t7 -7q9 -6 23 -3q0 6 7 94q4 54 -15 80q12 4 15 13q0 2 1 8v8q13 72 5 215zM278 12q-4 0 -57 -1q-40 -1 -66 0q-79 3 -96 25q-12 16 -12 162v1044
q0 105 1 111q6 47 44 59q12 4 226 4h441q176 0 194 -16q23 -20 22 -160q0 -41 -3 -105q-2 -62 -2 -71v-870q0 -125 -8 -143q-18 -44 -110 -39h-574zM982 1060q0 17 2 79q3 65 3 103q1 131 -21 158q-28 33 -177 34q-44 0 -127 -3q-85 -3 -113 -3h-223q-208 0 -226 -4
q-49 -11 -61 -40q-15 -38 -11 -171q1 -34 4 -99q3 -55 3 -70v-692q0 -22 -2 -87q-2 -66 -2 -102q-1 -122 20 -143q21 -20 98 -20q22 0 64 2t57 2h469q16 0 59 -2q43 -1 66 -1q78 0 97 15q21 17 21 154v890z" />
    <glyph glyph-name="hyphen" unicode="&#xad;" horiz-adv-x="1032" 
d="M820 615q-150 -12 -619 -4q-3 7 -1 48q2 35 -11 49q-78 -1 -89 -12q7 83 4 77q5 -6 7 -26q1 -21 5 -27h45q27 -1 36 8q13 37 0 85h623q2 -81 4 -89q12 -9 55 -2q35 7 34 -10q-1 -11 -32 -6q-39 6 -53 2q-3 -5 -8 -93zM99 811q-1 16 -3 18q15 3 15 -9q1 -4 -1 -12
q-2 -9 -2 -11q-7 1 -9 14zM962 1073q-13 206 -13 218q0 10 2 28q3 20 3 27q1 31 -17 46q-108 4 -627 4q-211 0 -239 -12q0 -26 -11 -259q-8 -170 3 -263q4 -28 13 -37q-18 -25 -9 -170q6 -4 23 -1q16 4 18 -3q2 -4 0 -22q-1 -21 0 -30q-3 -4 -24 -4q-17 -1 -17 -12
q-10 -265 0 -530q35 -22 96 -23q20 -1 55 1q40 1 56 1h457q180 0 214 17q0 -1 12 538q-3 6 -21 7t-23 5v73q2 -2 6 -7t7 -7q9 -6 23 -3q0 6 7 94q4 54 -15 80q12 4 15 13q0 2 1 8v8q13 72 5 215zM278 12q-4 0 -57 -1q-40 -1 -66 0q-79 3 -96 25q-12 16 -12 162v1044
q0 105 1 111q6 47 44 59q12 4 226 4h441q176 0 194 -16q23 -20 22 -160q0 -41 -3 -105q-2 -62 -2 -71v-870q0 -125 -8 -143q-18 -44 -110 -39h-574zM982 1060q0 17 2 79q3 65 3 103q1 131 -21 158q-28 33 -177 34q-44 0 -127 -3q-85 -3 -113 -3h-223q-208 0 -226 -4
q-49 -11 -61 -40q-15 -38 -11 -171q1 -34 4 -99q3 -55 3 -70v-692q0 -22 -2 -87q-2 -66 -2 -102q-1 -122 20 -143q21 -20 98 -20q22 0 64 2t57 2h469q16 0 59 -2q43 -1 66 -1q78 0 97 15q21 17 21 154v890z" />
    <glyph glyph-name="period" unicode="." 
d="M492 709q-277 -5 -382 -1q-3 15 11 15q4 0 12 -1q8 -2 10 -2q126 5 382 1q268 -4 385 -1q3 5 12 8q2 0 4 -16q-2 -12 -16 -9q-4 0 -11 3q-7 2 -10 2q-128 6 -397 1zM435 331q34 50 29 44q19 23 48 25q40 4 65 -33q24 -33 23 -80q-1 -48 -28 -76q-31 -33 -84 -22
q-65 41 -53 142zM940 594q-17 1 -18 9v56q5 2 23 -5q12 -5 13 5q6 26 5 77q-1 68 -1 82q-2 7 -18 7q-17 0 -18 1q5 7 18 6q15 -1 18 2q0 49 1 276q1 170 -5 272q-32 16 -198 16h-435q-19 0 -73 2q-47 1 -72 0q-80 -1 -106 -22q1 -49 -1 -281q-2 -174 9 -271q-9 -3 -8 -27
q0 -23 -8 -26q1 -3 8 -118q6 -8 23 0q14 7 17 -4q-5 -54 -4 -52q-4 -4 -19 -6q-14 -2 -17 -7q1 -47 -1 -277q-2 -170 9 -267q35 -12 211 -12h454q177 0 211 17q7 67 4 241q-3 161 9 237q-8 6 -8 29q0 26 -5 32q-1 7 -18 8zM843 6q-23 0 -66 2q-40 2 -54 2h-438
q-180 0 -215 20q-17 54 -17 333q0 852 8 1031q7 4 23 12q15 8 22 12q111 3 342 -1q213 -3 316 1q153 7 207 -20q12 -59 12 -349v-702q0 -18 2 -88q2 -62 2 -99q-3 -116 -37 -138q-26 -17 -107 -16zM991 1256q0 9 1 43q1 26 0 42q-3 47 -25 73q-67 17 -419 17h-215
q-19 0 -87 2q-54 2 -84 0q-89 -5 -113 -47q-4 -181 -4 -1031q0 -16 -2 -76q-3 -65 -4 -101q-2 -131 18 -156q17 -20 94 -22q24 0 65 1q47 1 57 1h470q190 0 228 12q19 28 21 76q1 15 0 41q-1 33 -1 41v1084z" />
    <glyph glyph-name="slash" unicode="/" horiz-adv-x="1043" 
d="M899 710q-7 0 -24 1q-16 2 -24 2q-228 0 -272 -5q-31 -81 -85 -253q-54 -171 -85 -253q-9 0 -57 -1q-36 -1 -53 5q18 63 80 246q52 153 75 252q-7 0 -153 12q-108 8 -156 -3q-15 -4 -16 -5q-7 -3 -8 -16q-8 4 -8 18v14v13q103 -17 349 -4q36 78 89 253q53 176 89 254h105
q-20 -88 -77 -251q-56 -161 -77 -252q46 -8 309 -8q1 0 7 1q7 2 11 3q12 1 10 -12q-4 -11 -29 -11zM762 1402h-434q-216 0 -244 -12q-5 -102 -4 -271q1 -228 0 -277l15 -3q11 -2 15 -3q15 -6 11 -26l-13 14q-8 6 -24 2q-5 -28 -4 -81q1 -71 0 -85q32 0 37 -4q-3 -13 3 -30
q6 -14 1 -23q-40 -3 -41 -4q2 -48 -1 -279q-1 -172 10 -269q133 -12 395 -8q302 5 399 0q6 0 22 -2q14 -1 21 -1q23 2 38 20q11 189 9 539q-4 5 -25 4q-19 -1 -20 8v77q4 -1 11 -20q6 -13 17 -4q34 84 8 158q-5 9 -22 2q-15 -6 -14 2q-1 13 18 13q23 0 27 3q-3 474 -9 548
q-35 12 -202 12zM985 189q0 -127 -16 -158q-122 -8 -674 -8q-15 0 -56 -2q-41 -1 -63 -2q-76 0 -96 16q-27 23 -26 144q0 35 3 98q3 61 3 79v851q0 8 -1 55q-1 39 0 62q2 73 21 86q20 14 106 12q25 0 67 -2q40 -2 50 -2h455q194 0 211 -16q23 -24 22 -155q-1 -37 -3 -103
q-3 -62 -3 -79v-876zM890 1432q-23 0 -64 -1q-47 -1 -60 -1h-463q-13 0 -56 2q-44 2 -68 2q-82 0 -99 -16q-3 -4 -8 -10q-5 -7 -8 -10q-16 -16 -17 -73q-1 -19 0 -48q1 -34 1 -41v-872q0 -16 -3 -78q-3 -65 -3 -103q-1 -130 22 -156q23 -25 98 -27q24 0 65 1q47 2 60 2h503
h120q63 7 87 44v1035q0 14 3 76q2 64 2 102q1 131 -21 154q-17 16 -91 18z" />
    <glyph glyph-name="zero" unicode="0" horiz-adv-x="1043" 
d="M859 669q0 -4 1 -20q1 -13 0 -21q-36 -411 -316 -437q-105 -10 -195 52q-83 59 -123 188q-30 98 -43 274q-24 10 -44 3q-24 -8 -16 -35q-19 32 -4 105q8 -11 8 -53q-2 1 52 -4q19 237 78 350q79 154 259 169q188 -11 271 -156q69 -121 73 -355q4 -11 39 -7q31 3 30 -9
q-1 21 -57 -4q-13 -17 -13 -40zM968 1327q3 19 3 23q2 24 -10 36t-202 12h-430q-216 0 -243 -12q-4 -45 -4 -264v-271q4 -19 12 -24q-16 -19 -13 -76q3 -78 1 -90q51 -12 45 -53q-1 -11 -23 -12t-22 -12q2 -47 -1 -275q-2 -169 9 -264q36 -12 211 -12h450q176 0 210 16
q-4 -24 12 539q-4 6 -21 7q-19 1 -23 5v93q2 -2 13 -26q7 -16 23 -15q0 6 7 92q5 54 -11 83q9 7 12 36q10 77 1 230q-9 181 -9 208q1 10 3 26zM333 709q-8 -3 -12 -12q6 -149 33 -225q37 -106 125 -123q142 -28 204 93q52 100 39 267h-389zM325 725q73 -5 196 -4
q166 1 201 0q19 157 -35 264q-60 119 -184 105q-187 -22 -178 -365zM985 187q0 -130 -16 -158q-38 -17 -218 -17h-470q-127 0 -119 0q-71 3 -88 25q-21 27 -19 154q1 36 4 100q3 58 3 74v851q0 129 0 128q6 56 49 74h660q179 0 198 -20q23 -24 22 -155q0 -38 -3 -103
q-3 -63 -3 -78v-875zM998 1053q0 16 2 77q3 66 3 105q2 136 -18 163q-20 28 -86 33q8 -1 -128 -1h-434q-17 0 -88 3q-55 2 -86 0q-92 -6 -109 -55q-4 -174 -4 -1017q0 -16 -3 -75q-3 -64 -3 -100q-2 -130 18 -153q22 -26 94 -30q24 -1 66 0q56 1 67 1h466q15 0 57 -2
q43 -2 65 -2q79 -1 100 16q27 22 27 149q0 37 -3 102q-3 64 -3 82v704z" />
    <glyph glyph-name="one" unicode="1" horiz-adv-x="1032" 
d="M912 692q-3 14 -12 15q-23 -1 -139 0q-85 1 -133 -5q-22 -210 0 -504q-23 -5 -67 -4q-60 1 -72 0q-5 93 -4 250q1 209 0 254q-55 12 -190 9q-143 -3 -188 4q1 16 29 15q9 0 27 -2q18 -1 25 -1q246 0 293 4q6 47 5 131q-1 114 -1 137q-10 5 -40 4q-31 -1 -41 4
q-12 71 0 134q90 8 110 98q9 -1 59 1q37 0 55 -5q-10 -89 -9 -241q1 -226 0 -251q41 -20 137 -18q27 0 80 3q51 3 72 3q9 12 7 37q-2 30 1 40q13 -31 4 -130q-5 3 -8 18zM876 1406q-128 -7 -391 -8q-295 -1 -402 -4q-18 -17 -20 -59q-1 -2 -1 -84v-410q1 -6 12 -7
q11 -2 13 -6q-29 -19 -25 -78q2 -18 7 -51t6 -45q18 -4 22 16q5 25 10 28v-97q-4 -5 -22 -4q-18 0 -23 -4q-6 -85 2 -246q8 -177 7 -230q-1 -8 -2 -25q-2 -14 -1 -21q1 -22 19 -35q77 1 436 -1q268 -2 426 9q11 97 9 269q-3 231 -1 280q-3 4 -21 4q-15 -1 -16 8q3 11 -4 29
q-6 14 0 24q3 2 17 -2t24 2q0 1 2 101q1 61 -27 74q15 -1 18 0q8 2 7 12q2 74 -1 246q-2 162 1 238q2 54 -4 61q-18 19 -77 16zM745 15h-463q-14 0 -55 -2t-64 -2q-76 0 -97 21q-24 24 -22 158q0 39 3 105q3 63 3 78v708q0 18 -2 86q-3 64 -2 100q1 120 33 139q23 13 106 12
q22 0 70 -2q42 -2 59 -2h431q196 0 208 -8q29 -21 29 -143q1 -37 -2 -101q-3 -66 -3 -85v-708q0 -277 -12 -337q-36 -17 -220 -17zM989 1077q0 19 3 89q3 68 2 106q0 128 -29 146q-21 13 -95 12q-19 0 -61 -2q-39 -2 -55 -2h-440q-18 0 -114 6q-68 4 -105 -2q-47 -7 -56 -61
q-1 -9 -1 -122q0 -1015 4 -1211q29 -33 93 -36q21 -1 57 1q43 2 57 2h484q215 0 232 12q20 15 24 63v92v907z" />
    <glyph glyph-name="two" unicode="2" horiz-adv-x="1043" 
d="M705 709q-31 -27 -99 -69q-72 -45 -101 -69q-111 -89 -106 -222q59 -6 191 -4q133 2 192 -4v-147q-49 1 -274 0q-168 -1 -269 4q-14 385 176 502q-45 12 -158 9q-118 -3 -152 4q-2 16 23 16q8 0 24 -2t22 -2q249 -4 269 0q36 6 95 42q60 36 81 64q29 40 32 106
q3 68 -24 102q-46 59 -157 34t-129 -95q-1 3 -50 57q-40 45 -39 69q1 30 69 82q86 65 224 51q137 -13 192 -92q56 -79 48 -206q-7 -116 -60 -206q48 -17 180 -4q9 3 8 26q-1 26 4 31q10 -14 9 -54q-2 -55 -1 -64q-12 -1 -13 18q0 20 -7 23h-200zM936 599q-11 2 -15 12
q-10 23 9 40q6 5 17 12q13 7 15 9q-2 16 -1 46q2 43 2 49q0 56 -26 68q12 -3 17 3q2 2 4 7q2 4 4 6q-2 47 1 275q1 169 -9 264q-35 12 -204 12q-568 0 -674 -8q-21 -15 -17 -57q1 -6 6 -37q3 -23 3 -36q-8 -431 -8 -421q2 -7 25 -7q21 -1 20 -13q-35 -2 -37 -4
q-12 -28 -7 -77q8 -66 7 -82q8 -10 22 -2q14 7 15 6v-62q-4 -4 -23 -4q-18 1 -22 -4q-3 -83 0 -243q5 -183 4 -234q-1 -64 20 -82q78 1 433 0q266 -1 428 4q17 20 18 58q1 13 0 35q-1 25 -1 34q0 353 -4 424q-8 7 -22 9zM869 12q-23 -1 -63 1q-43 2 -56 2h-458
q-207 0 -220 8q-28 18 -29 144q0 38 2 104q3 68 3 87v714q0 311 20 338q0 2 8 5q109 4 669 4q201 0 213 -9q27 -18 26 -147q0 -38 -3 -105q-3 -65 -3 -82v-886q0 -142 -16 -159q-18 -19 -93 -19zM990 1080q0 21 3 88t3 104q0 125 -26 147q-19 15 -93 15q-22 0 -63 -2
q-41 -1 -56 -1h-674q-46 -11 -51 -73q-2 -22 0 -62q2 -53 2 -69q0 -39 -4 -100q-4 -64 -4 -80q0 -36 4 -119q4 -86 4 -134v-547q0 -18 -2 -68q-2 -43 -1 -66q3 -73 36 -106q137 -4 690 -4q12 0 56 -2q41 -1 65 -1q77 1 95 19q16 16 16 163v898z" />
    <glyph glyph-name="three" unicode="3" horiz-adv-x="1035" 
d="M924 789q9 4 9 -10q0 -15 -9 -11v21zM932 699q-28 9 -102 9q-74 -1 -102 7q-7 -13 4 -29q1 -1 20 -24q4 -20 18 -54q13 -31 15 -51q22 -176 -73 -279q-93 -101 -253 -84q-129 14 -199 139q40 49 114 93q8 -35 44 -57q32 -19 76 -22q102 -6 136 59q39 115 -1 201
q-45 96 -166 76q-9 0 -14 10q-5 13 -10 14q-28 1 -168 0q-108 -1 -158 4q-1 16 27 16q8 0 26 -2q17 -1 24 -1q229 -2 265 16q-12 39 0 94q76 -16 120 26q40 37 40 99t-37 100q-42 43 -111 27q-13 -3 -33 -27q-19 -24 -32 -26q-22 -4 -50 17q-34 25 -52 28q21 86 90 129
q67 42 159 30q72 -10 121 -68q44 -53 58 -131t-6 -150q-22 -76 -75 -120q24 -46 127 -48q25 0 158 12v-33zM106 833q10 -3 7 -12q-8 -2 -12 2q-6 6 -8 6q2 8 13 4zM522 1400q-365 -1 -429 0q-5 -6 -12 -19q-8 -12 -13 -18q13 -88 4 -251q-9 -185 -4 -262q1 5 21 -21
q-24 -22 -19 -75q8 -79 6 -96q6 -11 19 -2q14 10 18 6q12 -30 0 -61q-4 -4 -22 -4q-19 1 -23 -4q-3 -195 8 -326q2 -21 -2 -120q-2 -70 15 -108q161 -5 427 -4q355 1 432 0q20 18 22 55v34q-2 26 -2 33v432q-2 7 -21 8q-18 0 -19 8v62q8 1 21 -8q11 -8 19 -1v155q-2 7 -19 8
q-18 0 -21 4q0 9 20 9q19 -1 16 12q7 37 5 110q-1 68 7 102q-12 44 -7 171q4 121 -13 167q-164 5 -434 4zM871 11q-22 0 -64 2q-41 2 -55 2h-456q-203 0 -216 8q-29 19 -30 143q0 37 3 101q3 65 3 82v876q0 128 -1 119q5 58 38 72h668q16 0 57 2q41 1 62 1q71 0 88 -15
q16 -14 18 -70v-48q-1 -37 -1 -45v-880q0 -21 3 -84q3 -67 3 -102q2 -126 -23 -148q-18 -17 -97 -16zM997 1249q0 145 -16 163q-22 23 -151 22q-36 0 -109 -3q-69 -3 -95 -3h-383q-6 0 -41 2q-33 1 -55 0q-69 -2 -87 -22q-16 -18 -16 -159v-892q0 -22 -3 -89q-2 -67 -2 -104
q0 -123 25 -145q19 -17 94 -18q24 -1 66 0q46 2 60 2h243h238q12 0 58 -2q41 -1 66 -1q79 2 96 23q12 15 12 163v1063z" />
    <glyph glyph-name="four" unicode="4" horiz-adv-x="1035" 
d="M369 668q-3 -7 -9 -26q-6 -17 -10 -25h236q14 42 0 85q-21 -2 -93 7q-62 7 -90 -3q-21 -7 -34 -38zM591 868q-2 122 -1 147q-2 0 -5 3q-3 2 -7 1q-21 -41 -83 -142q-55 -88 -80 -146q45 -17 171 -4q6 51 5 141zM732 706q-21 -28 -4 -85q14 -5 45 -5q42 1 49 1
q5 -25 4 -73q-1 -65 0 -78q-7 0 -49 1q-31 1 -45 -5q-10 -43 -9 -129q3 -116 1 -139h-130q-5 46 -4 130q1 111 0 134q-64 11 -184 9q-162 -2 -194 -1q1 23 0 65q-1 48 -1 66q2 75 30 101q-14 12 -68 8q-53 -3 -63 4q2 17 25 16q6 0 19 -2q13 -1 17 -2q64 -1 78 5
q23 9 85 117q15 26 39 68q24 41 34 58q105 184 159 265h158q1 -46 0 -255q-1 -156 4 -249q14 -9 110 -9q11 0 29 2q21 2 28 2q29 2 33 -12q1 -12 -14 -11q-4 0 -13 2q-7 1 -10 1h-159zM814 1397q-461 0 -545 9q-24 -11 -89 -9q-71 2 -94 -4q-16 -29 -13 -117q4 -93 -7 -123
q10 -50 9 -147q-2 -132 -1 -157q0 4 20 -21q-24 -13 -22 -73q3 -90 2 -98q5 -6 19 2q14 7 17 2q-1 3 4 -56q-1 -7 -19 -8q-17 0 -17 -9q-4 -46 -4 -276t12 -273q642 -9 870 4q11 97 9 268q-2 230 -1 277q-2 7 -21 8q-18 1 -19 9v48q5 5 21 0q15 -4 19 4q0 14 1 82
q1 51 -5 77q-1 6 -18 4t-14 8q2 5 18 4q16 0 18 4q-1 31 1 275q2 175 -9 274q-23 12 -142 12zM862 10q-22 0 -64 3q-40 2 -53 2h-456q-14 0 -55 -2t-63 -2q-77 0 -97 16q-26 21 -26 143q0 36 3 101q2 65 2 86v870q0 123 0 117q5 56 37 70h659q17 0 54 2q43 2 61 3
q73 1 96 -13q29 -19 29 -142q1 -37 -2 -103q-2 -69 -2 -89v-878q0 -149 -21 -167q-21 -19 -102 -17zM993 1239q0 151 -13 167q-19 24 -137 25q-35 0 -97 -3q-63 -2 -83 -2q-333 0 -427 8q-24 -12 -93 -8q-61 4 -81 -16q-19 -19 -19 -72q0 -12 2 -46q1 -30 0 -45
q-5 -140 -8 -155q8 -141 8 -800q0 -21 -2 -68q-3 -55 -4 -77q-2 -93 14 -120q15 -23 91 -26q24 -1 65 0q50 2 60 2h488q10 0 56 -2q42 -1 68 -1q82 2 99 23q13 15 13 163v1053z" />
    <glyph glyph-name="five" unicode="5" horiz-adv-x="1038" 
d="M492 727q21 -3 30 -3q37 -2 46 13q-16 12 -55 10q-40 -2 -47 -18q8 0 26 -2zM911 706q-7 0 -21 1q-14 2 -21 2q-58 1 -73 -4q27 -137 9 -250q-21 -125 -94 -190q-78 -69 -231 -70q-153 0 -238 70q33 87 74 146q71 -55 170 -61q112 -6 163 66q44 60 33 153q-11 94 -69 140
q-23 -2 -64 -1q-53 2 -66 2q-76 0 -98 -30q-31 28 -127 29q-129 1 -142 4q-2 16 20 16q7 0 21 -2t20 -2q57 -1 73 4q35 386 37 505q86 6 232 5q195 -2 236 -1v-146q-62 -6 -170 -5q-146 1 -176 0q-16 -84 -16 -228q105 45 138 45q89 1 160 -53q61 -46 97 -122q15 -5 81 -4
q7 0 21 2q14 1 20 1q22 1 25 -11q-2 -11 -24 -11zM971 1124q0 229 -12 273q-124 4 -737 4q-15 0 -48 2q-28 1 -41 0q-41 -2 -54 -26v-534q2 -7 20 -7q17 0 17 -9q-3 -4 -19 -2q-14 2 -18 -6q4 -163 4 -167q3 -4 14 7q12 11 19 1q5 -9 5 -29q0 -19 -5 -28q-3 -4 -20 -5
q-14 -1 -17 -7q2 -48 -1 -278q-1 -172 10 -268q437 -22 875 0q11 96 9 268q-2 230 -1 278q-3 6 -21 7q-17 2 -20 9v61q6 5 19 -6t22 -2q0 14 1 84q1 52 -5 79q-3 8 -19 2q-15 -4 -13 6q3 4 19 5q15 1 17 7v281zM871 13q-23 0 -65 2q-41 1 -55 1h-464q-8 0 -50 -1
q-39 -1 -64 -1q-80 1 -98 19q-16 16 -16 163v887q0 16 -3 85q-2 64 -1 101q2 122 37 140q7 4 8 4q12 4 224 4h435q195 0 208 -8q28 -17 29 -150q0 -41 -2 -105q-2 -67 -2 -79v-892q0 -138 -21 -154q-20 -17 -100 -16zM1000 1259q0 142 -21 158q-15 13 -138 13h-464
q-17 -1 -74 2q-61 2 -95 2q-120 1 -141 -21q-15 -15 -17 -64q-1 -17 0 -47q1 -39 1 -52v-896q0 -21 -3 -87q-3 -67 -3 -104q0 -126 26 -147q22 -17 101 -16q22 0 66 2q42 2 57 2h473q12 0 57 -1q41 -2 66 -2q79 2 96 24q13 15 13 163v1071z" />
    <glyph glyph-name="six" unicode="6" horiz-adv-x="1043" 
d="M777 700q2 -23 14 -80q10 -47 10 -78q0 -172 -90 -268q-91 -98 -236 -78q-132 17 -191 178q-53 141 -33 330q-18 7 -74 4q-52 -2 -64 5q-1 16 22 16q7 0 22 -2t21 -2q63 -1 78 8q28 174 89 293q68 134 175 187q61 31 118 21q-1 -28 5 -68q8 -45 8 -67q-226 -49 -261 -313
q14 10 43 33q27 22 42 32q52 32 110 25q98 -14 180 -147q17 -5 89 -4q8 0 24 1q16 2 23 2q25 0 30 -11q-3 -12 -27 -11q-7 0 -23 1q-15 2 -23 2q-71 0 -81 -9zM931 835h17q1 -9 -17 -12v12zM968 590q-2 8 -22 9q-18 1 -19 12q-1 14 1 32q3 22 3 29q18 -17 37 -8q-1 70 0 351
q2 230 -4 370q-23 17 -63 18q-13 0 -36 -1q-25 -1 -35 -1h-465q-224 20 -285 -8q-12 -18 -10 -39q0 -6 3 -21t3 -26q2 -23 -5 -87q-6 -64 -3 -100q6 -61 0 -135q-1 -21 0 -40q8 -96 25 -114q-21 -16 -19 -78q1 -18 4 -51q2 -31 2 -42q3 -5 20 -3q15 2 17 -5v-45
q-2 -8 -20 -9t-21 -8q2 -47 -1 -277q-1 -172 9 -268q229 -14 872 -4q12 30 12 183v366zM524 709q-49 1 -73 -5q-8 -2 -8 -4q-38 -31 -54 -97q-16 -65 -4 -128q14 -69 55 -105q47 -40 121 -24q49 10 80 59q28 44 33 107q6 62 -13 115q-19 57 -59 82q-14 -1 -78 0zM871 13
q-23 0 -66 2q-42 1 -57 1h-456q-14 0 -55 -1q-41 -2 -64 -2q-77 -1 -97 16q-17 14 -20 87q0 -3 0 132v241q0 171 4 472q1 45 -3 171q-4 111 -1 171q2 54 6 69q7 35 31 45h659q18 0 56 2q43 3 61 3q71 2 95 -13q30 -19 30 -151q0 -39 -3 -104t-3 -79v-713q0 -18 3 -83
q3 -66 3 -103q0 -127 -26 -147q-19 -16 -97 -16zM997 1071q0 20 3 84q3 68 3 105q2 129 -23 153q-16 16 -66 17q-17 1 -46 0q-36 -1 -46 -1h-538q-93 7 -122 4q-94 -9 -106 -28q-8 -13 -8 -167v-876q0 -16 -3 -77q-3 -66 -3 -103q-2 -133 18 -158q19 -23 94 -24q23 0 64 2
q43 2 58 2h480q14 0 60 -1q42 -2 67 -2q79 1 97 19q24 24 23 150q-1 35 -4 103q-2 64 -2 85v713z" />
    <glyph glyph-name="seven" unicode="7" 
d="M901 705q-7 0 -22 1t-22 1q-199 1 -252 -4q-56 -123 -94 -508h-142q17 273 81 500q-23 12 -171 12q-139 0 -171 -4q-5 28 8 28q4 0 16 -3q13 -4 21 -4q72 -6 301 4q102 257 179 354q-60 6 -195 4t-196 4v146q50 0 282 1q173 1 276 -5q-8 -25 -2 -80q6 -59 2 -78
q0 -2 -57 -78q-82 -109 -134 -264q22 -5 293 -8q1 0 7 1l9 3q11 1 8 -13q-2 -10 -25 -10zM969 1114q-5 180 -2 253q-2 7 -10 15q-9 9 -11 13q-121 4 -675 4q-10 0 -54 1q-38 1 -60 1q-70 -2 -81 -18q-14 -19 -11 -97q1 -19 4 -62q2 -36 2 -49q0 -284 5 -333q0 -9 20 -9
q19 1 16 -12q-2 0 -23 1q-14 1 -13 -9q-13 -73 0 -150q1 -6 18 -5q17 2 18 -4v-52q-4 -4 -22 -5q-15 -1 -19 -8v-427q0 -8 -1 -35q-1 -22 0 -34q2 -39 22 -57q77 1 432 -1q265 -1 426 5q13 16 14 48q0 9 -1 28q-1 17 0 26q12 284 8 451q-4 5 -25 4q-19 -1 -20 9q-7 9 0 52
q8 3 21 -1q11 -3 16 1q-2 19 6 81q7 48 -6 74q0 9 -17 8q-18 -1 -20 4q2 9 22 9t23 8q3 92 -2 272zM865 12q-23 0 -65 2t-57 2h-464q-13 0 -54 -2t-64 -2q-77 1 -94 20q-19 22 -18 158q1 39 4 104q2 61 2 76v874q0 115 0 107q4 51 33 64q78 0 436 1q267 1 431 -5
q27 -21 30 -68q1 -15 0 -41q-2 -32 -2 -41v-896q0 -19 3 -83q3 -67 3 -104q1 -128 -26 -150q-20 -16 -98 -16zM995 1065q0 16 3 82t3 106q0 134 -26 158q-24 22 -100 22q-22 0 -64 -3q-40 -2 -56 -2h-472q-12 0 -51 2q-42 4 -65 4q-84 1 -108 -23q-16 -16 -16 -158v-1062
q0 -152 12 -167q18 -23 97 -24q24 0 64 1q44 2 55 2h472q211 0 228 13q29 21 29 144q0 37 -2 103q-3 69 -3 90v712z" />
    <glyph glyph-name="eight" unicode="8" horiz-adv-x="1046" 
d="M92 832q22 2 20 -12q-21 1 -20 12zM970 1126q-10 181 0 243q-17 26 -68 30q-18 1 -53 0q-47 -2 -62 -2q-196 0 -240 9q-66 -13 -241 -8q-164 5 -227 -13q-15 -314 -16 -443q0 -58 16 -114q-11 -77 -11 -108q-1 -74 36 -71q6 16 3 70q-2 50 9 65q4 -7 4 -29q-1 -22 4 -28
q28 -6 81 -5q73 1 86 1q13 7 40 34q24 24 45 31q-39 43 -60 110q-21 71 -13 142q12 102 81 155q71 55 183 40q120 -16 160 -146q39 -124 -22 -244q-5 -10 -29 -30q-19 -18 -23 -36q21 4 47 -22q31 -30 46 -34h98q8 0 25 1q19 2 27 2q28 0 29 -16q-16 -6 -79 -4q-65 3 -88 -4
q61 -149 26 -295q-37 -152 -156 -197q-93 -35 -191 -7q-95 27 -142 97q-48 70 -52 194q-5 125 40 208q-80 12 -159 0q-13 -90 -12 -101q-3 -4 -23 -4q-16 -1 -14 -13q-4 -70 -4 -418q0 -10 -1 -35q-1 -21 -1 -33q2 -39 18 -58q431 -11 862 0q17 23 21 93q4 73 0 228
q-3 162 0 231q-4 5 -25 4q-19 0 -20 9v61q4 -1 11 -11q6 -9 17 -6q30 134 4 179q9 7 13 33q11 80 0 265zM870 13q-23 -1 -65 1q-45 1 -59 1h-463q-13 0 -56 -1q-41 -2 -65 -2q-79 1 -95 19q-19 23 -18 156q1 38 3 103q3 60 3 75v866q0 8 -1 53q-1 32 0 50q3 54 21 72
q-1 3 4 4q133 4 671 4q10 0 48 1q39 2 63 2q80 1 100 -16q27 -21 27 -152q0 -39 -3 -104q-3 -63 -3 -77v-703q0 -23 3 -86q3 -67 3 -101q1 -123 -22 -147q-18 -17 -96 -18zM997 1152q2 66 2 106q1 135 -25 156q-16 12 -179 12q-41 0 -105 4t-82 4q-49 0 -184 -4t-211 -4
q-15 0 -50 1q-30 1 -44 1q-43 -2 -52 -22q-25 -14 -27 -67q-1 -17 1 -46q2 -33 2 -42v-890q0 -15 -3 -78q-3 -66 -3 -106q-1 -135 22 -158q19 -19 97 -19q22 0 65 2q42 1 58 1h471q14 0 60 -1q42 -2 66 -1q78 0 98 18q20 19 20 159v452v442q0 15 3 80zM669 450
q30 106 -16 187q-35 61 -115 66q-78 6 -133 -41q-35 -49 -43 -114q-8 -63 12 -117q22 -58 67 -86q52 -31 122 -17q77 15 106 122zM623 963q9 96 -44 130q-30 19 -73 15q-46 -4 -69 -32q-22 -26 -28 -71q-5 -44 9 -84q15 -43 48 -63q37 -23 89 -9q58 18 68 114z" />
    <glyph glyph-name="nine" unicode="9" 
d="M397 1030q-41 -61 -29 -172q12 -116 74 -133q69 -19 138 0q29 8 52 52q20 41 25 86q11 101 -35 167q-50 71 -140 53q-58 -12 -85 -53zM828 709h-32q-20 -23 -27 -65q-11 -73 -10 -69q-39 -151 -120 -249q-98 -119 -234 -125q-1 9 -8 65q-5 39 -4 69q111 26 177 110
q65 82 75 203q-16 -8 -31 -28q-16 -23 -26 -29q-68 -46 -153 -25q-79 20 -127 82q-6 7 -19 33q-9 20 -22 28h-138q-19 -6 -17 -29q-18 34 -4 110q7 -4 7 -26q0 -26 6 -35q63 -11 138 0q-24 145 -6 265q21 140 95 191q84 69 220 53q101 -12 160 -120q50 -92 63 -238
q6 -58 -8 -143q9 -12 74 -12q6 0 20 2q14 1 20 1q24 1 25 -11q-2 -11 -21 -11q-5 0 -18 2q-12 1 -18 1h-37zM108 835q5 -5 4 -24q-12 8 -16 24h12zM942 599q-19 -1 -20 8q0 8 -1 50q-1 30 5 44q2 -8 2 -21q1 -15 1 -19q3 -19 25 -21q0 -11 11 91q6 56 -7 88q-6 9 -22 1
q-14 -7 -14 3q-1 12 17 13q24 0 27 3q2 85 0 280q-3 177 0 253q-15 28 -95 31q-25 1 -70 -1q-53 -2 -66 -2q-553 0 -655 -8q-11 -95 -9 -265q2 -229 1 -276q-3 -10 4 -14q11 -5 12 -6q-20 -17 -18 -76q3 -84 2 -95q5 -1 25 -1q12 -1 15 -7q-3 -8 -1 -24q1 -15 -3 -25
q-3 -4 -18 -4t-18 -4q1 -48 -1 -279q-2 -173 9 -270q157 -11 426 -9q359 2 436 1q21 21 24 110q3 68 1 219q-3 159 -1 228q-3 5 -24 4zM979 192q0 -142 -17 -158q-18 -19 -93 -19q-23 0 -64 1q-44 2 -58 2h-460q-14 0 -54 -2q-42 -2 -64 -2q-77 -1 -97 16q-27 22 -26 149
q0 37 3 103q2 66 2 85v891q0 103 0 99q5 50 41 59h224q539 0 650 -8q13 -55 13 -341v-875zM991 1079q0 14 2 77q3 63 3 102q0 131 -26 154q-31 29 -145 19q-129 -11 -164 2q-77 -7 -296 -4q-205 3 -301 -8q-21 -26 -25 -72v-83v-907q0 -20 -3 -86q-3 -67 -3 -104
q-1 -127 27 -151q21 -19 104 -18q23 0 67 3q41 2 56 2h480q8 0 63 -1q41 -1 65 0q73 4 88 30q8 14 8 167v878z" />
    <glyph glyph-name="colon" unicode=":" horiz-adv-x="1035" 
d="M486 713q-305 -9 -374 -7v17q-1 6 4 8q3 -1 8 -4t8 -4h772l18 7q4 0 6 -15q2 -16 -13 -13q-2 1 -15 5q-10 3 -16 4q-124 10 -398 2zM489 325q-28 10 -43 45q-13 32 -9 71q4 40 24 66q22 29 57 29q56 -12 85 -73q9 -105 -57 -138h-57zM603 1005q-2 -84 -57 -99
q-53 -12 -85 23q-28 31 -28 80q1 49 30 79q33 33 87 21q54 -20 53 -104zM961 1385q-32 16 -199 16h-435q-15 0 -71 2q-50 2 -78 2q-92 -2 -103 -32q-3 -8 -4 -191q0 -12 -3 -156q-3 -106 -1 -177q1 -7 11 -9q12 -3 13 -8q-27 -19 -23 -74q8 -90 7 -96q6 -7 20 0t17 4
q12 -35 0 -69q-4 -1 -14 0h-13q-14 -2 -14 -12q-9 -99 -2 -270q8 -199 6 -263q32 -21 95 -23q19 0 56 1q40 2 56 2h455q14 0 56 -2q42 -1 65 -1q79 0 95 15q12 12 12 126q0 345 4 415q-4 7 -22 10q-19 3 -23 10q6 59 4 57q35 16 33 0q0 7 3 42q3 31 3 50q1 61 -18 78
q20 21 20 139q0 88 -8 414zM873 10q-24 0 -63 1q-48 1 -56 1h-464q-179 0 -215 16q-19 27 -21 73q-1 16 0 41q1 33 1 40v1199q22 39 112 43q30 2 83 0q67 -2 85 -2h439q156 0 195 -21q12 -55 12 -337v-699q0 -21 3 -83q3 -66 4 -100q1 -124 -23 -150q-18 -19 -92 -22z
M993 1052q0 330 -8 345q-14 27 -72 34q-26 3 -115 3h-455q-211 0 -231 -4q-48 -10 -61 -37q-18 -36 -15 -168q1 -37 4 -100q3 -56 3 -69v-695q0 -21 -3 -84q-3 -67 -3 -102q-2 -126 18 -151q18 -23 94 -24q23 0 65 2q45 2 60 2h480q14 0 59 -2q43 -1 67 -1q79 1 97 19
q16 16 16 158v874z" />
    <glyph glyph-name="semicolon" unicode=";" 
d="M918 654q1 37 -1 53q-396 3 -805 0q-2 -17 -1 -54q0 -38 -2 -55q-48 -2 -42 -1v-472q0 -62 2 -66q7 -24 48 -28q-7 1 78 1h643q96 0 105 4q7 3 21 29v532q-5 2 -23 1q-16 0 -21 3q-2 16 -2 53zM930 829q-9 -64 1 -174q0 -9 31 6q2 15 2 92q0 64 -3 76h-31zM67 829v-174
q3 -1 3 4q0 4 2 5q3 -3 23 -3q2 0 4 -4q1 -3 3 -1v87q0 54 -1 86h-34zM186 1402q-92 0 -96 -1q-18 -6 -22 -33q-1 -8 -1 -56q0 -391 2 -475q7 -2 21 -1t21 0v-55q-1 -33 1 -52q228 -5 805 -2q2 17 1 55q0 38 2 55q37 -1 42 0q2 83 2 475q0 60 -2 66q-9 22 -39 25
q3 -1 -65 -1h-672zM940 14q-4 -1 -56 -1q-109 -1 -297 0h-287h-108q-110 0 -127 16q-13 19 -17 152q-2 80 3 257q0 6 -1 19q-2 14 -2 20v827q0 62 6 80q9 34 45 39h736q99 0 104 -2q23 -6 41 -39v-1248q0 -71 -3 -80q-8 -32 -37 -40zM994 1305q0 69 -4 81q-12 37 -47 46
q-10 2 -104 2h-745q-46 -8 -55 -53q-1 -7 -1 -82v-1247q23 -48 59 -52h841q42 7 53 55q3 10 3 80v1170z" />
    <glyph glyph-name="semicolon" unicode="&#x37e;" 
d="M918 654q1 37 -1 53q-396 3 -805 0q-2 -17 -1 -54q0 -38 -2 -55q-48 -2 -42 -1v-472q0 -62 2 -66q7 -24 48 -28q-7 1 78 1h643q96 0 105 4q7 3 21 29v532q-5 2 -23 1q-16 0 -21 3q-2 16 -2 53zM930 829q-9 -64 1 -174q0 -9 31 6q2 15 2 92q0 64 -3 76h-31zM67 829v-174
q3 -1 3 4q0 4 2 5q3 -3 23 -3q2 0 4 -4q1 -3 3 -1v87q0 54 -1 86h-34zM186 1402q-92 0 -96 -1q-18 -6 -22 -33q-1 -8 -1 -56q0 -391 2 -475q7 -2 21 -1t21 0v-55q-1 -33 1 -52q228 -5 805 -2q2 17 1 55q0 38 2 55q37 -1 42 0q2 83 2 475q0 60 -2 66q-9 22 -39 25
q3 -1 -65 -1h-672zM940 14q-4 -1 -56 -1q-109 -1 -297 0h-287h-108q-110 0 -127 16q-13 19 -17 152q-2 80 3 257q0 6 -1 19q-2 14 -2 20v827q0 62 6 80q9 34 45 39h736q99 0 104 -2q23 -6 41 -39v-1248q0 -71 -3 -80q-8 -32 -37 -40zM994 1305q0 69 -4 81q-12 37 -47 46
q-10 2 -104 2h-745q-46 -8 -55 -53q-1 -7 -1 -82v-1247q23 -48 59 -52h841q42 7 53 55q3 10 3 80v1170z" />
    <glyph glyph-name="less" unicode="&#x3c;" 
d="M918 654q1 37 -1 53q-396 3 -805 0q-2 -17 -1 -54q0 -38 -2 -55q-48 -2 -42 -1v-472q0 -62 2 -66q7 -24 48 -28q-7 1 78 1h643q96 0 105 4q7 3 21 29v532q-5 2 -23 1q-16 0 -21 3q-2 16 -2 53zM930 829q-9 -64 1 -174q0 -9 31 6q2 15 2 92q0 64 -3 76h-31zM67 829v-174
q3 -1 3 4q0 4 2 5q3 -3 23 -3q2 0 4 -4q1 -3 3 -1v87q0 54 -1 86h-34zM186 1402q-92 0 -96 -1q-18 -6 -22 -33q-1 -8 -1 -56q0 -391 2 -475q7 -2 21 -1t21 0v-55q-1 -33 1 -52q228 -5 805 -2q2 17 1 55q0 38 2 55q37 -1 42 0q2 83 2 475q0 60 -2 66q-9 22 -39 25
q3 -1 -65 -1h-672zM940 14q-4 -1 -56 -1q-109 -1 -297 0h-287h-108q-110 0 -127 16q-13 19 -17 152q-2 80 3 257q0 6 -1 19q-2 14 -2 20v827q0 62 6 80q9 34 45 39h736q99 0 104 -2q23 -6 41 -39v-1248q0 -71 -3 -80q-8 -32 -37 -40zM994 1305q0 69 -4 81q-12 37 -47 46
q-10 2 -104 2h-745q-46 -8 -55 -53q-1 -7 -1 -82v-1247q23 -48 59 -52h841q42 7 53 55q3 10 3 80v1170z" />
    <glyph glyph-name="equal" unicode="=" 
d="M918 654q1 37 -1 53q-396 3 -805 0q-2 -17 -1 -54q0 -38 -2 -55q-48 -2 -42 -1v-472q0 -62 2 -66q7 -24 48 -28q-7 1 78 1h643q96 0 105 4q7 3 21 29v532q-5 2 -23 1q-16 0 -21 3q-2 16 -2 53zM930 829q-9 -64 1 -174q0 -9 31 6q2 15 2 92q0 64 -3 76h-31zM67 829v-174
q3 -1 3 4q0 4 2 5q3 -3 23 -3q2 0 4 -4q1 -3 3 -1v87q0 54 -1 86h-34zM186 1402q-92 0 -96 -1q-18 -6 -22 -33q-1 -8 -1 -56q0 -391 2 -475q7 -2 21 -1t21 0v-55q-1 -33 1 -52q228 -5 805 -2q2 17 1 55q0 38 2 55q37 -1 42 0q2 83 2 475q0 60 -2 66q-9 22 -39 25
q3 -1 -65 -1h-672zM940 14q-4 -1 -56 -1q-109 -1 -297 0h-287h-108q-110 0 -127 16q-13 19 -17 152q-2 80 3 257q0 6 -1 19q-2 14 -2 20v827q0 62 6 80q9 34 45 39h736q99 0 104 -2q23 -6 41 -39v-1248q0 -71 -3 -80q-8 -32 -37 -40zM994 1305q0 69 -4 81q-12 37 -47 46
q-10 2 -104 2h-745q-46 -8 -55 -53q-1 -7 -1 -82v-1247q23 -48 59 -52h841q42 7 53 55q3 10 3 80v1170z" />
    <glyph glyph-name="greater" unicode="&#x3e;" 
d="M918 654q1 37 -1 53q-396 3 -805 0q-2 -17 -1 -54q0 -38 -2 -55q-48 -2 -42 -1v-472q0 -62 2 -66q7 -24 48 -28q-7 1 78 1h643q96 0 105 4q7 3 21 29v532q-5 2 -23 1q-16 0 -21 3q-2 16 -2 53zM930 829q-9 -64 1 -174q0 -9 31 6q2 15 2 92q0 64 -3 76h-31zM67 829v-174
q3 -1 3 4q0 4 2 5q3 -3 23 -3q2 0 4 -4q1 -3 3 -1v87q0 54 -1 86h-34zM186 1402q-92 0 -96 -1q-18 -6 -22 -33q-1 -8 -1 -56q0 -391 2 -475q7 -2 21 -1t21 0v-55q-1 -33 1 -52q228 -5 805 -2q2 17 1 55q0 38 2 55q37 -1 42 0q2 83 2 475q0 60 -2 66q-9 22 -39 25
q3 -1 -65 -1h-672zM940 14q-4 -1 -56 -1q-109 -1 -297 0h-287h-108q-110 0 -127 16q-13 19 -17 152q-2 80 3 257q0 6 -1 19q-2 14 -2 20v827q0 62 6 80q9 34 45 39h736q99 0 104 -2q23 -6 41 -39v-1248q0 -71 -3 -80q-8 -32 -37 -40zM994 1305q0 69 -4 81q-12 37 -47 46
q-10 2 -104 2h-745q-46 -8 -55 -53q-1 -7 -1 -82v-1247q23 -48 59 -52h841q42 7 53 55q3 10 3 80v1170z" />
    <glyph glyph-name="question" unicode="?" horiz-adv-x="1043" 
d="M787 708h-130q-53 -13 -73 -86q2 9 -24 -137h-126q-9 56 33 215q-52 11 -175 9q-147 -2 -170 -1q-5 18 20 17q6 0 24 -2q17 -3 25 -3h142q102 1 142 0q108 122 130 163q65 117 -25 190q-68 17 -133 -5q-58 -21 -94 -64q-14 15 -69 118q55 100 248 117q176 -12 235 -174
q38 -174 -98 -337q40 -10 121 -9q109 3 131 1q9 13 5 53q-4 39 7 53q6 -16 4 -59q-2 -52 0 -71q-17 12 -150 12zM438 229q-20 36 -15 82q4 48 33 71q32 26 84 6q42 -39 29 -118q-13 -82 -70 -81q-39 1 -61 40zM976 1123q-8 200 -7 258q-32 16 -198 16h-653q-31 -7 -38 -48
q1 7 -3 -85v-203q0 -23 -1 -74q-1 -45 -1 -67q1 -71 19 -94q-20 -24 -17 -79q1 -12 5 -47q4 -29 4 -44q7 -3 21 1q11 4 15 -1v-61q-32 2 -45 -8q3 -66 0 -209q-3 -136 0 -205q6 -117 5 -113q9 -26 77 -29q-11 0 121 0h462q13 0 53 -2q43 -3 66 -3q82 -1 100 17q12 13 12 126
q0 336 -4 418q-1 7 -18 7q-17 1 -18 9q3 11 -6 38q-6 22 6 31q1 -13 15 -20q22 -13 21 -13q8 162 -8 191q10 5 12 15v10v11q9 89 3 257zM755 11h-467q-8 0 -55 -1q-40 -1 -64 -1q-75 3 -92 22q-20 25 -18 157q1 38 4 103q2 61 2 77q0 850 8 1025q35 24 121 27q29 0 78 -1
q60 -1 77 -1h422q187 0 202 -16q23 -24 22 -156q0 -38 -3 -103q-2 -63 -2 -78v-880q0 -127 -17 -158q-38 -16 -218 -16zM917 1428q-16 2 -114 2h-454q-16 0 -90 3q-57 2 -89 0q-97 -7 -113 -60q-4 -179 -4 -1022q0 -21 -3 -82q-3 -65 -3 -99q-2 -121 22 -147q20 -21 99 -23
q24 0 66 1q46 2 58 2h495q12 0 62 -2q38 -1 60 0q65 4 89 38q4 180 4 1018q0 321 -8 336q-16 29 -77 35z" />
    <glyph glyph-name="at" unicode="@" horiz-adv-x="3868" 
d="M3698 378q-5 1 -6 2q-2 0 -7 3t-5 9q0 5 3 8q4 3 8 3q5 0 8 -3l2 -4q1 -1 4 -2q4 -2 8 -2q5 0 8 4q3 3 1 8q-3 6 -8 11q-9 10 -23 10t-23 -10q-10 -9 -10 -23q0 -9 5 -15q4 -6 10 -9q5 -4 10 -6q5 -1 6 -2q2 0 7 -3q6 -2 6 -9q0 -4 -3 -7q-3 -4 -8 -4q-4 0 -8 4
q-1 1 -2 3t-4 3t-8 1t-7 -3q-4 -4 -2 -8q3 -6 8 -12q9 -9 23 -9t23 9q10 10 10 23q0 10 -5 16q-4 5 -10 9q-6 3 -11 5zM2269 425q-5 0 -9 -3q-3 -3 -3 -8q0 -4 3 -8q4 -3 9 -3h4q4 0 8 -3q3 -4 3 -8v-65q0 -5 4 -8q3 -3 7 -3q5 0 8 3t3 8v65q0 4 4 8q3 3 8 3h4q5 0 8 3
q4 4 4 8q0 5 -4 8q-3 3 -8 3h-53zM1984 425q-5 0 -8 -3q-4 -3 -4 -8q0 -4 4 -8q3 -3 8 -3h4q5 0 8 -3q4 -4 4 -8v-65q0 -5 3 -8t7 -3q5 0 8 3t3 8v65q0 4 4 8q3 3 8 3h4q5 0 8 3q4 4 4 8q0 5 -4 8q-3 3 -8 3h-53zM2597 403q5 0 9 3q3 4 3 8q0 5 -3 8q-4 3 -9 3h-42
q-5 0 -8 -3q-4 -4 -4 -9v-86q0 -5 3 -8q4 -3 8 -3h43q5 0 9 3q3 3 3 8q0 4 -3 7q-4 3 -9 3h-20q-5 0 -8 4q-4 3 -4 7q0 5 4 8q3 3 8 3h9q5 0 9 4q3 3 3 7q0 5 -3 8q-4 3 -9 3h-9q-5 0 -8 3q-4 4 -4 8q0 5 4 8q3 3 8 3h20zM1125 339q-4 -1 -8 2q-3 3 -3 8v43q0 5 3 8q4 3 8 1
q6 -2 12 -7q9 -10 9 -24q0 -13 -9 -23q-6 -5 -12 -8zM1103 425q-5 0 -8 -3q-3 -4 -3 -9v-86q0 -5 3 -8t8 -3h11q22 0 38 16t16 38q0 23 -16 39t-38 16h-11zM827 337q-13 0 -23 10t-10 23q0 14 10 24q10 9 23 9q14 0 23 -9q10 -10 10 -24q0 -13 -10 -23q-9 -10 -23 -10z
M789 409q-17 -16 -17 -39q0 -22 17 -38q16 -16 38 -16q23 0 39 16t16 38q0 23 -16 39t-39 16q-22 0 -38 -16zM3130 336q-4 -3 -4 -8t4 -9q4 -3 9 -3q7 0 10 3q4 3 4 9q0 5 -3 8q-4 4 -10 4t-10 -4zM3437 403q5 0 8 3q4 4 4 8q0 5 -4 8q-3 3 -8 3h-42q-5 0 -8 -3q-4 -4 -4 -9
v-86q0 -5 3 -8q4 -3 8 -3h43q5 0 8 3q4 3 4 8q0 4 -4 7q-3 3 -8 3h-20q-5 0 -8 4q-4 3 -4 7q0 5 4 8q3 3 8 3h9q5 0 8 4q4 3 4 7q0 5 -4 8q-3 3 -8 3h-9q-5 0 -8 3q-4 4 -4 8q0 5 4 8q3 3 8 3h20zM1746 422q-4 -4 -4 -9v-54q0 -9 -6 -15q-6 -7 -15 -7t-16 7q-6 6 -6 15v54
q0 5 -4 9q-3 3 -7 3q-5 0 -8 -3q-3 -4 -3 -9v-54q0 -18 13 -31q12 -12 31 -12q18 0 31 12q12 13 12 31v54q0 5 -3 9q-3 3 -8 3q-4 0 -7 -3zM2857 370h-8q-3 0 -6 3q-2 2 -2 6v16q0 3 2 6q3 2 6 2h8q7 0 12 -5t5 -11q0 -7 -5 -12t-12 -5zM2889 365q7 10 7 22q0 16 -12 27
q-11 11 -27 11h-27q-5 0 -8 -3q-3 -4 -3 -9v-86q0 -5 3 -8t8 -3q4 0 8 3q3 3 3 8v17q0 5 2 5q2 1 5 -3l14 -21q3 -4 8 -7q6 -2 11 -2h3q5 0 6 2q2 3 -1 7l-11 16q-3 4 -2 8t5 7q4 4 8 9zM235 425q-5 0 -10 -3q-5 -4 -7 -8l-12 -30q-2 -5 -5 -5q-2 0 -4 5l-12 30q-2 4 -5 4
t-5 -4l-12 -30q-2 -5 -4 -5q-3 0 -5 5l-12 30q-2 4 -7 8q-5 3 -10 3h-1q-5 0 -7 -3q-2 -4 0 -8l37 -94q2 -4 4 -4q3 0 5 4l12 31q2 5 5 5q2 0 4 -5l13 -31q2 -4 4 -4q3 0 5 4l37 94q2 4 0 8q-2 3 -8 3v0zM1447 400q4 -2 9 -2t8 3q3 4 3 8t-4 7t-9 5q-10 4 -21 4
q-23 0 -39 -16t-16 -39q0 -22 16 -38t39 -16q11 0 21 4q5 2 9 5q4 2 4 7q0 4 -3 7t-8 4q-5 0 -9 -3q-7 -3 -14 -3q-14 0 -23 10q-10 10 -10 23q0 14 10 24q9 9 23 9q7 0 14 -3zM508 337q-13 0 -23 10t-10 23q0 14 10 24q10 9 23 9q14 0 24 -9q9 -10 9 -24q0 -13 -9 -23
q-10 -10 -24 -10zM470 409q-16 -16 -16 -39q0 -22 16 -38t38 -16q23 0 39 16t16 38q0 23 -16 39t-39 16q-22 0 -38 -16zM2122 774q29 13 26 54q-2 17 -10 30q-10 13 -23 16q-11 3 -31 1q-22 -2 -33 -1q-3 -1 -4 -4q0 -9 -1 -50q0 -31 2 -48q76 3 74 2zM2047 712
q0 -10 -1 -55q0 -33 2 -52q3 0 48 -2q28 -2 42 5q22 10 28 39t-8 51q-11 16 -44 18q-10 1 -30 0h-33q-3 -1 -4 -4zM1827 732h-41q-4 -1 -3 -9q0 -8 -2 -10h-78q-2 -17 -3 -111q23 -2 64 -2q55 1 66 0q-1 -8 1 -27q1 -17 -1 -26q-89 -4 -177 0q-2 34 -2 91v93q-8 2 -35 1
q-4 0 -10 -1q-5 -1 -8 -1q-7 0 -6 8q0 4 8 4q1 0 7 -1q5 -1 9 -1q6 -1 17 0h17q2 26 1 94q-1 62 3 92h90q55 1 88 -1q0 -8 -1 -26q-1 -16 -1 -26q-23 -2 -63 -2q-53 1 -64 0q-2 -18 -2 -50q1 -43 0 -52q14 -2 39 -1h41q-1 2 2 -27q15 -2 54 -1q39 0 52 -2q0 -6 -8 -7
q-3 0 -8 1h-6h-40zM1898 693q-7 1 -9 2v31q17 -13 12 -13q5 52 2 61q-2 2 -8 1q-6 -2 -6 2q1 2 8 2q7 1 9 2q-1 169 -3 198q-13 5 -76 5h-240q-3 -1 -4 -5q-4 -12 -4 -102q0 -80 1 -96q1 -1 8 -2q6 0 7 -2q-1 -1 1 -12q2 -9 -4 -11q0 18 0 15q-1 8 -8 8q-7 -6 -6 -29
q0 -6 1 -18t1 -16q1 -1 7 0q6 0 6 -3q-1 -17 0 -16q-1 -1 -8 -2q-5 0 -5 -4q-5 -162 3 -198q57 -4 154 -3h158q9 8 11 41q1 26 0 80q-1 58 0 82q-2 2 -8 2zM3348 778h5q-2 -6 -5 -6v6zM3051 741q-1 22 3 27v-14q0 -10 3 -15q30 3 28 2q4 28 1 89q-3 65 0 96q21 -2 55 0
q44 1 54 1q60 -1 85 -23q27 -24 32 -74q5 -52 -15 -89q7 -2 26 -2q22 1 25 0q2 -2 3 -13q0 -10 5 -12q8 8 9 30q0 19 -5 34q5 11 5 80q0 90 -5 123q-12 6 -72 6q-207 0 -245 -3q-4 -11 -4 -67v-175q0 -1 -1 -7v-10q0 -11 10 -11q5 5 3 27zM1823 481h-167q-5 0 -19 -1
q-15 -1 -23 -1q-29 0 -35 7q-8 8 -8 57q0 14 1 37t1 28v317q0 4 -1 22q-1 13 0 19q2 20 15 24q5 1 82 1h157q71 0 75 -3q10 -6 11 -55q0 -15 -1 -38q-1 -25 -1 -28v-326q0 -50 -7 -56q-6 -4 -80 -4zM1832 996h-163q-80 0 -85 -2q-12 -4 -15 -20q-1 -5 -1 -35v-390
q0 -58 3 -63q6 -10 33 -11q-2 0 44 0h178q73 0 81 7t8 58v391q0 52 -8 59q-6 6 -75 6zM2835 864q-22 -77 -30 -123q31 -4 62 0q-14 78 -32 123zM2925 732q5 -32 22 -91q18 -64 24 -94q-8 -2 -24 -1h-25q-7 9 -12 35q-5 27 -12 36h-121q-9 -9 -14 -34q-6 -29 -11 -37
q-55 5 -51 3q18 61 48 182q-4 1 -33 1h-9q-6 -1 -8 -1q-9 0 -11 4q0 6 10 6q2 0 8 -1h9h34q5 10 26 90q4 12 13 46q9 29 13 46q-1 1 0 2t1 2h70q-2 6 25 -95q21 -79 27 -91h34h8h8q10 0 12 -3q-3 -5 -12 -6q-3 0 -8 1h-8h-33zM2761 984h-24q-17 1 -26 1q-30 -1 -36 -9v-195
q1 -1 6 -2t6 -2q-6 -1 -12 -3v-60q2 -2 7 1t6 2q6 -11 0 -22q-1 -1 -7 -2q-5 0 -6 -2q-4 -44 0 -92q1 -9 -2 -27q-2 -19 -1 -28q5 -55 4 -53q41 -3 242 -3q65 0 78 4q5 52 2 199q-1 2 -7 3q-6 0 -7 3v19q14 6 14 0q2 9 1 27v29q-1 3 -8 3q-6 -1 -5 2q-1 3 6 2q6 0 6 4
q1 25 1 155v13q1 8 1 12q-1 14 -8 21h-231zM1459 480h-83q-137 0 -163 5q-7 11 -7 58v390v34q2 17 10 21q6 3 79 3h161q75 0 83 -4q5 -13 5 -126v-255v-30q1 -24 2 -37q0 -44 -8 -53q-6 -6 -79 -6zM1540 989q-3 1 -4 2q-4 4 -80 5h-166q-67 0 -80 -5q-8 -11 -8 -56v-329
q0 -7 -2 -31q-1 -24 -1 -38q0 -47 10 -55q7 -6 36 -6q8 0 24 1h20h170q76 0 82 5q7 6 7 56v388q0 56 -4 61zM2604 477q-8 -1 -23 0h-22h-169q-72 0 -78 6q-10 10 -10 73q0 18 1 49q1 29 1 35v271q-1 67 9 74q41 3 249 3q70 0 75 -4q9 -8 8 -57q0 -14 -1 -38q-1 -23 -1 -28
v-319q0 -51 -6 -57q-6 -8 -33 -8zM2614 994q-40 0 -119 -1q-92 -1 -121 -1q-57 0 -70 -8q-3 -69 -3 -381q0 -7 -1 -30q-1 -24 -1 -38q0 -46 8 -55q7 -6 35 -7q8 0 24 1h21h172h21q16 -1 24 -1q29 -1 36 6q6 5 6 58v322q0 8 1 31q1 25 2 38q0 47 -7 57q-7 9 -28 9zM2201 735
q21 -28 20 -75q-1 -45 -20 -73q-23 -32 -85 -38q-22 -2 -118 1v93q0 57 -2 91q-3 2 -19 1q-15 -1 -16 5q-1 -6 34 3q4 27 3 93q-2 66 3 93q21 -2 63 1q39 2 58 -1q56 -8 70 -70q14 -60 -23 -102q7 -14 40 -14q48 -1 49 -2q0 -6 -10 -7q-3 0 -8 1h-8h-31zM2272 694q-2 2 -8 2
q-6 1 -7 4v19q1 1 7 -1q4 -2 8 1v56q-1 3 -8 3q-6 -1 -6 2t6 2q7 0 6 4q2 38 2 96q-1 81 0 97q-5 3 -8 8h-311q-3 -1 -4 -5q-4 -98 0 -198q1 -2 6 -2q6 -1 6 -4q-1 0 -5 1t-7 -1q-4 -32 0 -62q1 -1 6 3t7 1v-22q-1 -1 -8 -2q-5 0 -7 -2v-157v-13v-12q1 -14 8 -21h309
q7 6 8 20v12v12v159zM2578 604q-33 -55 -93 -62q-12 -1 -22 0q-113 14 -125 184q1 3 -6 3q-7 -1 -7 3q1 -8 13 6q4 86 39 138q16 23 46 37q34 15 72 10q54 -8 85 -62q29 -51 29 -122q1 -4 7 -2q7 1 7 -2q-3 8 -14 -8q-1 -74 -31 -123zM2621 713q1 2 7 -1q5 -3 6 2
q4 153 0 264q-11 6 -72 6h-235q-16 -4 -17 -21q-1 -5 2 -36q0 -8 -2 -32q-2 -23 -1 -36q8 -89 6 -84q-6 -16 -2 -62q2 -3 7 -1q5 3 5 2q1 -2 2 -22q-16 -9 -15 -6v-99q-1 -60 1 -96q13 -6 77 -6h166q66 0 78 6q3 33 2 98q-1 66 1 97q-1 3 -8 4t-8 5v18zM2921 481h-166
q-73 0 -79 4q-13 10 -9 120v324q0 37 1 38q2 19 13 24h244q70 0 75 -6q9 -8 9 -56q-1 -14 -2 -38q-1 -23 -1 -29v-319q0 -50 -7 -57q-6 -5 -78 -5zM2928 996h-163q-79 0 -84 -2q-15 -4 -17 -29q-1 -9 0 -24v-25v-327q1 -9 -1 -27q-2 -19 -1 -28q1 -41 5 -48q8 -10 35 -11
q-2 0 47 0h179q2 0 22 -1h23q27 2 33 12q3 5 3 61v320q0 117 -6 123t-75 6zM2190 484h-166q-70 0 -77 6q-9 8 -9 55q0 14 1 37t1 29v257q0 7 -1 35q-1 24 0 38q1 45 14 53q28 0 161 1q99 0 158 -4q7 -19 7 -123v-260q0 -7 1 -31q1 -23 1 -37q0 -44 -11 -52q-6 -4 -80 -4z
M2282 552q0 360 -3 438q-12 9 -34 10q-7 0 -20 -1h-20h-249q-16 -4 -19 -24v-366q0 -8 -1 -31q-1 -24 -1 -37q-1 -45 8 -54q8 -9 36 -10h24q19 1 23 1h186q38 0 43 1q22 3 27 16v57zM2541 831q-23 41 -71 40q-33 -1 -56 -30q-31 -38 -24 -105q15 1 86 0q53 0 84 2
q1 58 -19 93zM2389 726q0 -82 37 -111q25 -19 52 -18q24 2 45 21q45 41 37 109q-26 3 -84 2t-84 1q-3 -1 -3 -4zM549 484q-72 0 -78 6q-8 7 -9 50q0 13 1 36v29v362q2 21 14 27h239q73 0 77 -3q11 -7 11 -52q0 -13 -1 -37t-1 -31v-322q0 -51 -6 -58t-33 -8h-23q-18 1 -22 1
h-169zM805 867q0 119 -4 124q-6 8 -74 8h-164q-79 0 -85 -2q-11 -2 -14 -8q-3 -5 -4 -21v-416q0 -58 3 -62q6 -10 33 -12h44h179q4 0 22 -1h25q28 1 35 10q4 5 4 59v321zM660 738q8 5 55 5q55 0 65 1q1 0 2 -6q-44 -9 -91 0q-17 -7 -31 0zM542 612q-27 47 -33 122
q-2 2 -13 1t-12 3q-1 6 8 5q13 -1 16 0q4 72 31 121q32 58 89 65q44 6 79 -14q32 -18 48 -52q-23 -19 -43 -30q-39 41 -78 35q-37 -5 -56 -43q-17 -35 -15 -81q12 -2 49 -1q33 1 47 -3q-14 -6 -46 -5q-43 1 -50 0q-3 -48 19 -85q25 -40 65 -41q17 0 35 11q6 4 14 10
q11 8 15 11q8 -4 39 -29q-14 -32 -44 -49q-32 -18 -72 -14q-60 6 -92 63zM638 987q-131 -1 -158 0l-9 -9v-98q-1 -60 1 -96q1 -1 8 -2q6 0 6 -4q-2 -1 -8 0q-6 2 -7 -1v-31q-1 -19 1 -29q1 -1 6 2q6 3 8 0v-21q-2 -1 -8 -1q-6 -1 -6 -5q-2 -22 -1 -79q1 -53 -3 -78
q3 -4 2 -22q0 -16 7 -20q58 -2 154 -2h156q3 5 8 7v196q-1 2 -8 2q-6 1 -7 4q1 20 2 22q10 -7 13 -5v58q-1 3 -8 3q-6 -1 -5 2q0 3 5 3q7 0 8 1v102q1 60 -3 98q-57 4 -154 3zM3138 867q-4 -57 0 -116q12 1 33 1q25 -1 33 -1q36 1 48 15q20 22 11 60q-9 39 -36 45
q-15 3 -42 1q-28 -3 -44 -1q-3 -1 -3 -4zM1070 838q-23 41 -71 39q-33 -1 -56 -29q-31 -39 -24 -105q15 0 86 -1q53 0 84 2q2 58 -19 94zM2805 732q-7 -6 -10 -23q-1 -2 -3 -13q-2 -9 -3 -14q14 -2 47 -2q34 1 45 -1q2 16 -11 53h-65zM3486 728v-126q71 -7 112 29
q39 35 41 100q-27 2 -74 1h-76q-3 -1 -3 -4zM413 763q0 -7 -2 -11q-3 3 -1 21q3 -2 3 -10zM418 696q-6 -1 -7 1q0 8 -1 20q-2 11 -2 17q-40 4 -78 0q45 -59 34 -112q-6 -26 -30 -48q-25 -20 -54 -25q-68 -10 -120 30q3 7 9 26q5 18 10 26q26 -25 74 -27q50 -2 62 30
q8 20 0 38q-6 15 -37 37q-34 24 -47 27q-19 3 -54 0q-37 -3 -56 0q-3 1 -5 -4q-1 -4 -4 -2q5 14 5 13q72 -4 102 2q-32 24 -45 47q-19 33 -11 74q5 24 29 40q22 16 53 21q70 12 106 -27q-1 -4 -7 -25q-3 -16 -7 -25q-23 21 -72 21q-52 0 -56 -29q-3 -17 20 -40q7 -6 61 -41
q32 -21 31 -21q13 -2 45 1q35 3 47 2l-1 -15q-1 -8 4 -11h7q2 9 2 28q-1 25 0 31q-2 2 -9 1q-5 -1 -5 2t6 3q7 0 8 1v197q-12 8 -34 8h-19q-14 -1 -20 -1h-240q-10 -2 -12 -12q0 1 0 -20q0 -16 -1 -83q-1 -55 0 -89q1 -1 10 -1q7 0 6 -6q0 -1 -5 1q-6 2 -8 -1q-3 -8 1 -59
q6 -3 9 4q2 6 3 4v-28q-17 -7 -16 -6q2 -173 6 -197q209 -3 219 -2q11 1 54 -1q31 -1 45 5q2 38 2 98q-1 83 0 100q-1 2 -7 2zM432 548q0 -52 -6 -58t-33 -7q-9 0 -24 1h-21h-168q-76 0 -80 3q-8 7 -8 56q1 14 2 38t1 29v320q0 51 5 57q6 6 77 6h166q71 0 80 -3q8 -4 9 -25
q0 5 0 -41v-376zM425 992q-9 6 -80 6h-169q-74 0 -80 -6q-9 -9 -8 -54q0 -13 1 -36t1 -30v-379q9 -14 31 -16h43h181q5 0 22 -1h24q30 0 38 8q7 7 7 56v385q0 57 -4 61q-4 3 -7 6zM3652 606q-39 -54 -106 -60q-1 0 -110 1v89v93q-2 4 -11 3q-10 -2 -11 -1v9q1 3 9 0
q8 -2 12 1q2 32 1 91v90q-2 0 0 2t3 2q20 -1 58 0q35 2 52 0q62 -6 102 -58q38 -51 38 -124q1 -5 12 -4q10 0 10 -2q2 -7 -7 -6q-12 0 -13 -1q-3 -76 -39 -125zM3651 984h-241l-9 -9q0 -17 -1 -98q0 -60 2 -96q1 -2 8 -2q6 0 5 -7q-12 8 -13 2q-4 -29 0 -58q2 -3 7 0t6 0
v-21q-1 -1 -8 -1q-5 -1 -5 -5q-1 -17 -1 -100t4 -98q82 -5 314 -2q2 4 6 6q4 107 3 196q-2 2 -8 2q-7 1 -9 2q-3 6 0 22q15 -2 14 -3q-1 10 2 32q2 19 -2 29q-2 2 -8 1q-5 -1 -6 1q2 1 9 1q6 1 8 3q1 76 -3 197q-12 6 -74 6zM3732 544q0 -52 -6 -58q-7 -7 -35 -7q-8 0 -24 1
q-15 1 -21 1h-170q-4 0 -21 -1h-23q-27 1 -33 8q-4 5 -4 59q0 359 1 434q8 10 40 11q11 1 28 0q21 -1 27 -1h161q68 0 74 -6q9 -8 8 -56q0 -14 -1 -38q-1 -23 -1 -29v-318zM3737 864q0 5 1 27q0 24 1 38q0 49 -8 59q-6 7 -31 8h-23h-23h-163q-80 0 -84 -2q-14 -4 -16 -22
q-1 -2 -1 -33v-390q0 -58 3 -63q6 -9 31 -11h46h179q4 0 23 -1h24q27 1 35 10t8 53q0 12 -1 36t-1 33v258zM3486 803q0 -40 2 -63q13 0 76 -1q47 0 75 2q-1 65 -41 101q-42 37 -112 26q1 -11 0 -65zM3357 693q-7 1 -9 2v36q-9 -1 -30 2q-19 2 -27 1q-9 -2 -21 -15
q-12 -12 -19 -14q7 -27 31 -80q22 -52 29 -79q-3 0 -26 -1q-16 0 -24 2q-9 19 -32 74q-19 47 -32 74q-29 4 -59 0q-2 -23 -1 -74q0 -51 -2 -74q-41 -5 -50 3q-1 29 1 91q3 56 0 90q1 0 -29 1q-5 -14 -5 -38h-4q-3 0 -4 -1q-5 0 -5 -4v-195q12 -6 75 -6h166q75 0 79 4
q3 4 6 40q1 23 0 78q-2 57 0 81q-2 2 -8 2zM1531 693q-7 1 -8 2v36q-10 -1 -31 2q-18 2 -27 1q-8 -2 -20 -15q-13 -12 -20 -14q8 -27 31 -80q23 -52 30 -79q-4 0 -26 -1q-16 0 -25 2q-8 20 -31 74q-20 47 -32 74q-30 4 -59 0q-3 -23 -2 -74t-1 -74q-41 -5 -51 3q-1 29 2 91
q2 56 0 90l-30 1q-5 -14 -4 -38h-5q-3 0 -4 -1q-5 0 -5 -4v-195q13 -6 76 -6h166q74 0 78 4q3 4 6 40q2 23 0 78q-1 57 0 81q-1 2 -8 2zM918 732q0 -82 37 -111q25 -19 52 -17q24 1 45 20q45 42 37 110q-26 2 -84 1t-84 2q-3 -1 -3 -5zM1313 867q-4 -57 0 -116q12 1 33 1
q24 -1 32 -1q36 1 49 15q19 22 11 60q-9 39 -37 45q-15 3 -41 1q-29 -3 -44 -1q-3 -1 -3 -4zM3285 480h-83q-137 0 -163 5q-7 11 -7 58v390v34q1 17 10 21q6 3 78 3h162q74 0 83 -4q4 -13 4 -126v-255q0 -7 1 -30q1 -24 1 -37q0 -44 -8 -53q-6 -6 -78 -6zM3365 989
q-2 1 -3 2q-5 4 -80 5h-166q-67 0 -80 -5q-9 -11 -9 -56v-329q0 -7 -1 -31t-1 -38q-1 -47 10 -55q7 -6 36 -6q8 0 23 1h20h171q76 0 81 5q7 6 7 56v388q0 56 -4 61q-1 1 -4 2zM1107 610q-33 -55 -93 -61q-12 -2 -22 0q-113 14 -125 183q1 4 -6 3t-7 3q1 -7 13 6q4 86 39 138
q16 24 46 37q34 16 72 10q54 -8 85 -62q29 -50 29 -122q1 -4 8 -2q6 1 6 -2q-3 8 -14 -7q0 -75 -31 -124zM1150 719q1 2 7 -1q5 -3 6 2q4 153 0 264q-11 6 -72 6h-235q-15 -3 -17 -21q-1 -5 2 -36q1 -8 -2 -31q-2 -24 -1 -37q8 -88 6 -84q-6 -15 -2 -62q2 -3 7 0q5 2 5 1
q1 -2 2 -22q-16 -9 -15 -6v-98q-1 -61 1 -97q13 -6 77 -6h166q66 0 78 6q3 33 2 98q-1 66 1 97q-1 3 -8 4t-8 5v18zM1133 483h-23q-18 1 -22 1h-169q-72 0 -78 5q-10 10 -10 73q0 18 1 49q1 29 1 35v271q-1 67 9 74q41 3 249 3q70 0 75 -4q9 -8 8 -57q0 -14 -1 -38
q-1 -23 -1 -28v-318q0 -52 -6 -58q-6 -7 -33 -8zM1143 1000q-39 1 -119 0q-92 -1 -121 -1q-57 0 -70 -9q-3 -69 -3 -381q0 -7 -1 -30q-1 -24 -1 -37q0 -47 8 -56q7 -6 35 -6q8 -1 24 0t21 1h172q6 0 21 -1q16 -1 24 -1q29 0 36 6q6 5 6 58v322q0 8 1 31q2 25 2 38
q1 47 -7 57q-7 9 -28 9zM1523 778h4q-1 -6 -4 -6v6zM1226 741q-2 22 2 27q1 -2 1 -14q-1 -10 2 -15q31 3 28 2q5 28 2 89q-4 65 0 96q21 -2 55 0q44 1 53 1q60 -1 86 -23q26 -24 31 -74q6 -52 -15 -89q8 -2 27 -2q21 1 25 0q2 -2 2 -13q1 -10 5 -12q9 8 9 30q1 19 -4 34
q4 11 4 80q0 89 -4 123q-12 6 -73 6q-206 0 -244 -3q-5 -11 -5 -67v-175v-7q-1 -6 -1 -10q1 -11 10 -11q5 5 4 27z" />
    <glyph glyph-name="A" unicode="A" horiz-adv-x="1049" 
d="M440 710q-19 -18 -29 -63q-2 -8 -7 -38q-5 -24 -8 -37q38 -6 131 -5q91 1 121 -4q7 44 -29 147h-179zM522 1072q-61 -212 -82 -338q86 -12 171 0q-39 215 -89 338zM770 710q15 -87 61 -251q49 -175 65 -258q-22 -5 -64 -4q-61 1 -70 0q-19 25 -33 97q-14 74 -32 98h-334
q-23 -24 -38 -93q-17 -78 -31 -102q-10 1 -74 -1q-46 -1 -64 9q49 171 130 501q-12 4 -90 4q-8 0 -24 -1q-17 -1 -23 -2q-26 0 -30 11q1 15 26 15q7 0 24 -1q16 -2 23 -2h94q15 28 73 249q9 32 35 127q23 79 34 125q0 3 2 6q2 4 2 6h192q12 -49 34 -129q27 -103 35 -131
q58 -219 73 -253h94q7 0 23 1t23 2q25 0 31 -11q-7 -14 -32 -14q-7 0 -23 1t-22 1h-90zM318 1402q-15 0 -66 1q-45 2 -71 1q-80 -1 -99 -23v-537q4 -3 17 -5t16 -7q-16 -1 -33 -8v-163q6 -6 20 3q15 8 17 5q16 -30 0 -61q-4 -3 -19 -5q-14 -2 -18 -7q-12 -120 0 -252
q2 -25 -4 -75q-6 -51 -4 -76q14 -152 12 -146q113 -9 664 -9q179 0 215 13q14 142 4 545q-1 7 -18 8q-17 0 -18 8v53q39 16 36 0q6 25 5 75q-1 66 0 80q-3 9 -21 7q-17 -2 -16 5q-1 9 17 8q17 -1 15 8q5 71 5 428q0 8 1 35q1 22 0 34q-2 39 -22 57h-635zM879 16
q-23 -1 -63 1q-45 1 -58 1h-456q-15 0 -55 -2q-42 -2 -63 -2q-76 0 -98 16q-37 28 -24 330v891v106q6 50 37 65h671q14 0 59 1q40 1 62 1q70 -1 87 -18q23 -24 22 -156q-1 -38 -3 -104q-3 -62 -3 -78v-879q0 -136 -20 -155q-19 -17 -95 -18zM1002 1080q0 11 2 76q2 64 2 105
q0 137 -20 157q-17 16 -208 16h-447q-219 0 -232 -4q-42 -12 -47 -80q-2 -24 0 -66q2 -56 2 -69v-900q1 -23 -4 -73q-5 -53 -4 -77q3 -113 16 -131q21 -28 94 -32q-5 0 130 0h492q6 0 60 -2q40 -1 65 1q73 4 91 33q8 14 8 167v879z" />
    <glyph glyph-name="B" unicode="B" horiz-adv-x="1021" 
d="M343 644q1 -26 -1 -149q-1 -92 5 -144q9 1 132 -7q75 -4 116 15q58 28 75 108q18 80 -23 140q-29 44 -119 49q-28 2 -84 0q-62 -1 -89 0q-9 -4 -12 -12zM550 814q39 18 57 61q17 40 13 88q-5 47 -28 81q-25 38 -62 46q-29 6 -84 1q-60 -5 -91 -1q-9 -3 -12 -12
q1 -24 -1 -137q-1 -84 5 -131q209 7 203 4zM765 709q58 -78 56 -207q-2 -124 -56 -199q-63 -88 -232 -104q-60 -6 -324 2q-1 45 0 254q1 157 -4 249q-9 7 -54 4q-39 -4 -44 13q-3 -16 94 8q12 76 8 256q-4 179 8 255q57 -5 173 2q108 6 160 -2q75 -11 127 -65
q48 -51 66 -126q17 -74 1 -148q-16 -77 -64 -132q17 -39 108 -40q131 -3 135 -4q-1 -18 -27 -19q-8 0 -24 1q-16 2 -22 2h-85zM960 595q-3 5 -21 7q-17 2 -20 9v53q5 2 19 -4q12 -5 22 4v154q-2 9 -21 7q-17 -1 -16 5q0 9 17 8t16 9q6 104 5 264q-2 223 -1 267q-13 8 -20 21
h-853q-9 -4 -12 -12q-11 -272 0 -545q2 -5 18 -6q14 -1 14 -10q0 -1 -12 3q-13 4 -20 -3q-12 -88 0 -170q3 -3 17 7q14 11 19 5v-61q-4 -3 -21 -5q-15 -2 -19 -7v-431q0 -8 -1 -34q-1 -22 -1 -35q2 -38 22 -56h849q19 17 21 55q1 12 0 33q-1 26 -1 33v435zM857 15
q-22 0 -64 2q-41 1 -56 1h-455q-193 0 -211 17q-26 23 -26 151q0 38 3 102t3 79v707q0 18 -3 95q-2 66 -1 104q3 123 40 146q77 -1 442 1q271 2 431 -9q20 -52 20 -337v-715q0 -19 3 -84t3 -101q-1 -121 -30 -144q-22 -16 -99 -15zM988 205q0 988 -8 1202q-33 25 -94 27
q-19 0 -54 -1q-40 -2 -55 -2h-682q-45 -9 -53 -65q0 1 0 -118v-885q0 -22 -2 -85q-3 -67 -4 -102q-1 -123 23 -150q21 -23 98 -26q25 0 67 1q51 1 62 1h512q102 1 117 3q59 8 73 46v154z" />
    <glyph glyph-name="C" unicode="C" horiz-adv-x="1029" 
d="M593 718q22 12 150 12q153 0 179 4q3 0 4 -16q-118 -26 -248 0q-46 -20 -85 0zM267 371q-74 130 -89 335q-6 6 -37 3q-28 -2 -32 9q-2 17 22 14q36 -4 43 -2q13 200 87 333q87 158 242 179q124 17 220 -38q87 -50 130 -145q-62 -51 -118 -81q-107 113 -215 98
q-100 -15 -153 -121q-48 -94 -42 -221q35 -6 134 -4q92 3 130 -8q-38 -16 -125 -14q-118 3 -139 2q-7 -132 54 -234q67 -112 177 -112q48 0 96 29q16 10 41 28q30 23 38 28q22 -8 110 -77q-40 -88 -121 -135q-88 -51 -200 -40q-163 17 -253 174zM531 1402q-357 -3 -434 -1
l-25 -24q1 -48 0 -269q-1 -166 5 -264q3 -3 21 -5q15 -1 15 -11q-4 -4 -21 0q-15 4 -20 -4q1 -14 0 -84q-1 -52 5 -79q1 -4 16 4q15 7 20 0v-57q-3 -3 -22 -4q-15 -1 -14 -12q-7 -60 -4 -218q3 -146 -9 -213q8 -14 7 -63q-1 -43 18 -55q160 -6 424 -5q353 1 430 1
q7 13 20 20v537q-4 5 -21 7t-20 9q2 56 4 61q28 -19 37 -12v158q-2 9 -21 8q-17 -2 -16 5q1 8 16 8q18 0 21 4q-1 44 1 278q2 168 -9 271q-157 11 -424 9zM875 17q-23 -1 -64 0q-48 1 -59 1h-464q-14 0 -56 -1q-41 -2 -64 -2q-75 1 -96 20q-22 20 -23 139q0 36 1 97
q2 66 2 81v874q0 121 0 120q5 59 37 75h658q199 0 212 -8q29 -19 30 -142q0 -37 -3 -102q-3 -66 -3 -85v-887q0 -140 -16 -158q-18 -20 -92 -22zM991 1072q0 326 -12 341q-14 18 -86 21q13 -1 -117 -1h-451q-216 0 -232 -4q-30 -7 -39 -22q-8 -14 -10 -59v-1143
q0 -157 8 -170q17 -27 90 -32q5 -1 122 -1h492q10 0 60 -1q42 -1 67 -1q77 3 96 27q12 15 12 162v883z" />
    <glyph glyph-name="D" unicode="D" horiz-adv-x="1029" 
d="M295 697v-345q194 -19 306 80q107 95 113 273q-75 6 -203 5q-171 -1 -208 -1q-8 -2 -8 -12zM295 904q-1 -110 4 -174q37 0 210 -1q129 -1 205 5q-3 179 -112 277q-116 103 -307 72q1 -31 0 -179zM749 362q-107 -148 -291 -165q-1 0 -301 4q-1 80 0 245v255q-7 12 -32 8
q-27 -5 -29 -4v25q2 9 24 2q24 -8 33 2q6 88 4 250q-1 195 0 246q-6 1 -1 6t9 6q55 -3 160 1q95 3 141 -1q172 -16 280 -160q106 -140 106 -340q4 -13 31 -11q28 1 30 -5q4 -19 -21 -18q-31 2 -36 -3q-7 -207 -107 -343zM747 1401h-663l-25 -25q1 -48 0 -269q-1 -165 5 -263
q2 -5 22 -6q16 -1 14 -19q-34 22 -36 4q-13 -77 0 -158q5 -9 18 -1q14 8 18 1v-57q-3 -3 -22 -5q-15 -1 -14 -12q-5 -46 -5 -276q0 -226 13 -268q225 -14 862 -4q5 10 16 16q11 293 8 537q-4 6 -21 7q-19 1 -24 5q-8 14 0 61q40 -6 37 -8q-3 25 5 87q7 51 -5 79q-4 7 -20 4
q-15 -3 -17 0q5 4 24 5q17 1 21 8q3 209 -8 540q-32 17 -203 17zM970 193q0 -143 -16 -159q-20 -19 -97 -19q-23 0 -65 1q-43 2 -58 2h-467q-11 0 -59 -1q-40 -1 -63 -1q-73 3 -90 23q-12 15 -12 162q0 985 4 1192q21 28 110 31q29 1 78 -1q57 -2 72 -2h444q12 0 54 1
q38 2 60 1q72 -1 89 -18q23 -23 22 -156q0 -39 -3 -104q-3 -63 -3 -78v-874zM982 1071q0 13 3 76q3 64 3 103q0 135 -22 163q-15 18 -83 21q-23 1 -63 0q-55 -1 -65 -1h-448q-218 0 -231 -4q-37 -11 -44 -61q-1 -6 -1 -89v-1074q0 -157 8 -171q16 -26 86 -31q9 -1 126 -1
h492q10 0 61 -1q41 -1 66 -1q76 3 96 26q23 26 22 146q0 33 -3 101q-3 65 -3 91v707z" />
    <glyph glyph-name="E" unicode="E" horiz-adv-x="1038" 
d="M755 710h-112q-10 -2 -8 -24q1 -25 -4 -29h-216q-6 -47 -8 -305q65 -6 177 -5q150 1 181 1q-2 -23 2 -76q4 -47 -2 -71q-244 -11 -488 0q-6 93 -5 250q2 209 1 255q-23 6 -98 4q-9 0 -25 -3q-16 -2 -22 -2q-21 0 -18 21q2 12 22 10q3 -1 21 -3q13 -3 22 -3h49h45
q6 73 3 259q-3 172 9 254q44 -1 247 0q151 1 241 -4q1 -23 -3 -71q-3 -44 -1 -72q-63 -5 -172 -4q-147 1 -178 0q-5 -50 -4 -138q1 -118 0 -143q38 -5 107 -4q94 1 113 0q-3 6 4 -73q41 -6 149 -4q106 2 144 -4q-1 -18 -24 -19q-8 0 -20 1q-14 2 -17 2h-112zM951 603
q-19 1 -23 5v85q46 -35 32 -36q13 144 4 167q-4 7 -22 2q-15 -4 -14 6q2 8 20 8q20 0 24 4q-1 465 -8 545q-35 12 -207 12h-659q-9 -3 -12 -12q-13 -35 -13 -281q0 -220 5 -264q3 -4 21 -5q17 0 19 -7q-2 -3 4 -32q5 -25 -12 -29q-1 47 0 40q-3 21 -20 21q-20 -17 -19 -78
q1 -18 4 -51q2 -31 3 -42q3 -3 20 -2q14 2 16 -6q-4 -49 0 -45q-3 -4 -22 -5q-16 0 -14 -11q-14 -445 8 -545q157 -11 424 -9q358 2 434 1q24 20 28 113q4 70 1 220q-3 159 -1 224q-3 6 -21 7zM867 15q-23 0 -65 2q-43 1 -57 1h-460q-11 0 -52 -2q-40 -1 -63 -1
q-78 0 -97 19q-21 22 -20 154q0 40 2 104q2 63 2 76v871q0 13 -2 61q-1 35 1 54q5 52 42 64q13 4 224 4h431q195 0 207 -9q27 -17 29 -152q0 -42 -2 -105q-2 -67 -2 -76v-895q0 -90 -1 -96q-3 -45 -20 -59q-19 -15 -97 -15zM977 1418q-19 16 -208 16h-447q-221 0 -232 -4
q-35 -12 -42 -55q-3 -15 -3 -96v-1074q0 -157 8 -171q17 -28 92 -32q-6 0 120 0h488q13 0 62 -1q41 -1 65 -1q75 2 97 22q20 19 20 159v542v532q0 144 -20 163z" />
    <glyph glyph-name="F" unicode="F" horiz-adv-x="1049" 
d="M984 1267q-13 133 -12 130q-162 6 -428 5q-356 -1 -434 -1q-9 -3 -12 -12q-11 -96 -9 -267q2 -229 1 -278q-4 2 31 -6q19 -4 9 -18q0 -1 -16 6t-24 -2v-155q22 -5 34 -21q13 -17 6 -40q-4 -4 -19 -4q-17 0 -21 -4q0 -49 -1 -277q-1 -170 5 -272q35 -12 211 -12
q551 0 663 8q4 20 16 549q-4 6 -21 7q-19 2 -23 5v98q-50 5 -138 5q-118 -2 -143 -1q-5 -4 -4 -29q1 -22 -8 -24h-220q-7 -64 -3 -232q2 -155 -9 -227q-10 0 -66 -1q-40 -1 -60 5q-6 93 -5 249q2 210 1 255q-113 19 -159 -4q-5 11 -5 31q0 23 9 26q3 -33 59 -31q87 3 92 2
q6 81 4 257q-2 175 4 256q44 -1 250 0q155 1 246 -4q-1 -12 0 -76q1 -47 -4 -71q-31 0 -182 1q-111 1 -176 -5v-276q34 -6 116 -4t116 -4q7 -79 4 -74h145h136q1 -3 5 -43q3 -27 23 -26q14 23 16 82q3 62 -12 93q9 4 12 24v407zM996 206q0 -150 -8 -163q-14 -23 -88 -25
q-24 -1 -63 0q-52 1 -60 1h-472q-8 0 -49 -2t-66 -2q-85 0 -104 20q-23 23 -22 158q0 40 3 106q2 63 2 78v711q0 13 -3 77q-2 62 -2 101q1 128 34 148l12 4t224 4h439q188 0 203 -13q25 -19 25 -153q0 -41 -2 -103q-3 -63 -3 -73v-435v-439zM1009 1251q0 145 -17 163
q-15 17 -82 20h-576q-221 0 -232 -4q-44 -16 -49 -138q-1 -39 1 -103q3 -76 3 -89v-894q0 -158 8 -171q18 -30 92 -34q24 -1 63 0q52 1 57 1h488q14 0 60 -1q42 -1 65 -1q76 2 98 23q21 19 21 154v1074z" />
    <glyph glyph-name="G" unicode="G" horiz-adv-x="1024" 
d="M536 642q0 41 -5 63q-36 10 -111 9q-102 -2 -120 -1q-9 -3 -8 -12q-15 -154 73 -271q44 -59 101 -76q64 -20 134 14q50 24 78 76q31 57 24 127q-13 0 -86 -1q-53 -1 -81 5q0 9 1 67zM905 710q-24 5 -29 3q1 -175 -72 -317q-76 -149 -196 -187q-64 -20 -143 -8
q-76 12 -129 49q-174 122 -191 459q-8 8 -28 0q-16 -7 -16 8q-2 18 10 12q21 -8 30 -4q19 169 41 247q34 123 105 187q114 103 300 73q84 -14 145 -57q66 -47 87 -117l-121 -98q-93 133 -228 114q-100 -14 -146 -122q-40 -92 -32 -227q83 3 296 -4q200 -6 292 0q5 0 22 7
q10 4 15 -3q3 -18 -12 -15zM746 1403h-430q-219 0 -248 -16q-5 -100 -4 -268q1 -224 0 -272q2 -7 19 -7q17 -1 18 -10q-3 -5 -18 -4q-16 1 -19 -4v-158q6 -10 22 -3t19 -1v-53q-4 -4 -21 -4q-16 0 -20 -4v-540q17 -25 100 -27q26 -1 71 1q51 2 65 2h438q172 0 207 12
q11 101 10 273q-2 245 -2 275q-2 7 -18 8q-19 0 -22 4v53q4 3 21 -1q15 -3 19 5q0 13 1 82q1 50 -5 76q-4 8 -21 4q-15 -4 -15 4q1 8 20 9q18 1 20 8q-1 47 1 277q2 171 -9 267q-33 12 -199 12zM60 31q-16 51 -16 345v714q0 14 -3 87q-2 64 -1 103q3 124 40 135q14 4 232 4
h438q171 0 207 -12q17 -58 17 -341v-702q0 -277 -21 -333q-448 -22 -893 0zM978 1395q-26 34 -85 38q-20 1 -55 0q-45 -2 -55 -2h-695q-46 -11 -53 -75q1 6 1 -132v-1031q0 -147 12 -162q21 -27 99 -31q26 -1 70 1q57 1 70 1h480q7 0 58 -1q38 -1 62 0q69 4 87 34
q8 14 8 162q0 980 -4 1198z" />
    <glyph glyph-name="H" unicode="H" horiz-adv-x="1035" 
d="M284 23q-15 0 -53 -2q-43 -3 -62 -3q-75 -2 -96 13q-30 22 -30 144q0 36 3 99q3 64 3 82v873q0 9 -1 52q-1 34 0 53q2 59 21 74q61 12 459 12h231q169 0 208 -16q12 -60 12 -342v-877q0 -126 -21 -154q-121 -8 -674 -8zM873 1433q-24 1 -66 0q-52 -1 -64 -1h-455
q-11 0 -64 1q-44 1 -70 1q-81 -2 -89 -22q-23 -8 -26 -66q-1 -19 0 -53q2 -41 2 -52v-873q0 -18 -3 -78q-3 -65 -3 -101q-2 -129 18 -158q19 -28 96 -31q25 -1 65 1q49 2 58 2h496q12 0 62 -2q39 -2 61 0q66 4 92 38q4 173 4 1036q0 21 3 83q3 66 4 100q2 124 -23 150
q-22 23 -98 25zM828 451q2 -216 1 -258q-27 4 -66 2q-38 -2 -64 2q-6 84 -5 225q1 189 1 230q-65 6 -177 5q-149 -1 -181 -1q-6 -71 -4 -229t-4 -230q-23 -6 -66 -4q-48 3 -64 0q-1 43 1 254q1 165 -5 258q-8 12 -49 7q-38 -4 -40 9q1 9 37 3q39 -8 52 5q6 93 5 259
q-2 210 -1 253q11 -1 68 1q41 0 62 -5q6 -78 4 -212q-2 -158 0 -210q65 -6 176 -5q150 1 181 1q7 67 5 215t4 215h130q0 -43 -1 -251q-1 -165 5 -257q16 -12 52 -12q3 0 25 8q13 5 12 -8q2 -16 -32 -10q-42 8 -53 -2q-11 -89 -9 -258zM958 595q-4 10 -21 7q-16 -3 -19 6
q6 69 4 65q1 -1 19 -13q13 -9 13 0q6 27 5 79q-1 69 -1 84q-2 5 -20 3q-17 -1 -16 9q3 4 20 5q14 1 16 7q0 48 1 273q1 167 -5 267q-32 17 -199 17h-438q-18 0 -72 1q-47 2 -74 1q-83 -1 -102 -27v-536q3 -3 21 -3q16 0 16 -9q-3 -5 -18 -4q-16 1 -19 -4q1 -14 0 -84
q-1 -52 4 -79q1 -1 15 6q14 8 22 -2v-60q-4 -5 -21 -5q-16 1 -20 -4q2 -47 -1 -279q-2 -172 9 -269q36 -12 207 -12q551 0 662 8q12 30 12 171v381z" />
    <glyph glyph-name="I" unicode="I" horiz-adv-x="1021" 
d="M427 725q12 76 8 257t8 258h126q1 -46 -1 -256q0 -158 5 -251q91 -24 276 -12l61 4q2 -16 -23 -16q-8 0 -24 2q-16 1 -22 2h-132q-94 -1 -132 0q-11 -91 -9 -253q2 -217 1 -262q-67 -13 -134 0v506q-58 12 -271 9q-7 -1 -22 -2q-15 -2 -21 -3q-23 -1 -26 13q-2 12 10 10
q4 -1 10 -4q6 -2 8 -2q120 -12 304 0zM78 838q17 -2 17 -12q-2 0 -21 1q-13 0 -12 -9q-12 -78 0 -166q10 -1 19 7q9 9 18 9v-61q-5 -3 -24 -4q-18 -1 -21 -8q6 -79 4 -265q-2 -188 4 -274q3 -4 15 -9q11 -5 14 -12h656q15 0 53 -1q34 -2 53 -1q60 1 93 23q0 39 1 274
q1 162 -5 269q-2 7 -18 4q-15 -3 -14 0q-10 20 0 69q3 -8 16 -13q12 -5 20 1v162q-2 5 -21 4q-16 -2 -15 8q3 4 19 5q15 1 17 7v536q-33 22 -92 23q-18 0 -53 -1q-38 -2 -54 -2h-437q-222 0 -248 -16q-6 -82 -4 -240q3 -178 0 -239q-2 -55 0 -61q3 -5 20 -8zM881 1432
q-22 1 -58 0q-48 -2 -59 -2h-495q-17 0 -63 2q-40 2 -62 2q-69 -2 -94 -32q31 13 61 16h422q343 0 413 -8q20 -31 20 -154v-1067q0 -11 2 -41q1 -27 0 -42q-1 -48 -22 -75q-443 -21 -888 0q-20 55 -20 325v1013q3 4 12 33q-21 -14 -22 -71q-1 -18 0 -51q2 -39 2 -53
q0 -984 4 -1188q27 -34 93 -38q22 -1 60 0q49 2 62 2h502q14 0 63 -2q39 -2 61 0q68 3 95 38q11 678 0 1355q-26 34 -89 38z" />
    <glyph glyph-name="J" unicode="J" horiz-adv-x="1052" 
d="M733 708q10 -252 -81 -384q-102 -149 -321 -123q1 13 0 78q-1 48 4 72q152 -30 217 80q56 95 39 277q-81 6 -241 4q-191 -1 -230 0q-2 19 22 16q5 -1 23 -4q16 -3 24 -4q59 -2 77 8q78 -14 321 -4q6 73 3 260q-3 173 9 255h126q5 -93 4 -251q-1 -210 0 -256
q49 -23 170 -12q-3 0 23 8q14 4 13 -8q5 -15 -10 -13q-4 0 -14 3q-9 2 -12 2q-119 3 -166 -4zM972 1381q-10 19 -79 22q-22 0 -60 -1q-47 -1 -56 -1h-434q-224 0 -255 -16q-11 -271 0 -539q0 -9 20 -8q19 0 16 -12q-1 -1 -23 0q-14 1 -13 -9q-12 -75 0 -162q3 -5 16 4
q14 10 20 0v-52q-36 -31 -36 -21q-11 -210 0 -531q35 -21 96 -23q19 0 55 1q39 2 56 2h454q182 0 219 12q12 136 12 543q-5 3 -23 7q-16 4 -22 10q-5 11 0 60q42 -4 37 -8q-2 23 5 85q6 49 -5 78q-3 4 -19 3q-15 -1 -18 5q2 8 22 8q21 0 23 8q-1 55 0 183q2 121 0 178
q-6 169 -8 174zM299 23q-13 0 -54 -2t-64 -2q-79 0 -97 16q-23 20 -22 147q0 36 3 102q3 64 3 83v431v441q0 11 -2 54q-1 35 0 54q3 57 30 58q9 12 12 13h669q10 0 52 1q39 1 62 0q74 -1 89 -18q12 -13 12 -166v-1050q0 -125 -20 -154q-111 -8 -673 -8zM1000 1389
q-23 36 -82 41q5 0 -108 0h-463q-20 0 -82 2q-55 3 -85 2q-97 -3 -116 -37q-8 -14 -8 -162v-868q0 -23 -3 -85q-3 -67 -3 -100q-2 -123 18 -151q17 -26 87 -29q24 -2 64 -1q56 1 64 1h486q11 0 60 -1q41 -1 66 -1q78 3 97 27q12 16 12 158q0 985 -4 1204z" />
    <glyph glyph-name="K" unicode="K" horiz-adv-x="1038" 
d="M597 710q41 -92 123 -257q88 -174 125 -255q-107 -9 -147 0q-46 67 -117 212q-73 151 -114 215q-20 -14 -74 -102q-7 -12 -32 -56q-19 -34 -33 -54q0 -19 1 -110q1 -68 -5 -105q-63 -12 -134 0q-6 96 -4 259q3 182 0 253q-71 17 -69 -16q-9 3 -9 26q0 19 5 31
q3 -19 26 -26q22 -6 43 1q8 82 5 252q-4 178 3 264h134q9 -326 4 -451q0 -6 -2 -18t-2 -18q-2 -20 13 -29q20 -3 34 17q4 7 10 19q7 14 8 17q13 23 277 463h158q-47 -86 -133 -226q-100 -165 -135 -225q10 -29 33 -65q4 0 142 -5q93 -4 142 1q-1 0 29 8q17 4 24 -4
q2 -15 -23 -15q-8 0 -24 1q-16 2 -22 2q-193 2 -260 -4zM320 1405q-214 0 -244 -16q-10 -273 0 -541q1 -9 21 -8t20 -8q10 -52 -4 -73q-3 5 -3 43q0 29 -21 26q-16 -4 -18 -28v-22q1 -18 1 -23q0 -75 4 -90q6 -7 23 -6q16 0 18 -6q8 -28 -9 -41q-4 -3 -16 -10
q-11 -5 -16 -10q-5 -97 -4 -260q1 -217 0 -264q18 -33 101 -36q26 -1 73 1q55 2 70 2h439q170 0 203 16q16 94 14 263q-3 242 -1 278q-3 9 -22 11q-20 2 -23 9v61q14 -11 16 -12q9 -4 20 4q0 14 7 82q5 48 -7 77q-3 6 -22 3q-16 -3 -14 5t22 8q20 1 23 8q-1 52 0 177
q1 120 0 177q-1 18 -5 55q-4 35 -4 50q1 10 3 33q2 18 1 27q-2 28 -28 38h-618zM983 198q0 -133 -12 -163q-43 -14 -212 -12q-672 7 -683 8q-20 28 -22 76q0 15 1 41q1 32 1 42v890q0 17 -2 86q-1 61 -1 98q2 117 28 149q110 8 678 8q194 0 208 -12q23 -21 22 -155
q-1 -40 -4 -105q-2 -63 -2 -77v-874zM950 1433q-77 0 -429 1q-264 1 -424 -5q-41 -17 -49 -44q-4 -183 -4 -1033q0 -21 -3 -84q-3 -64 -3 -99q0 -120 26 -146q22 -21 99 -23q24 0 66 1q46 2 59 2h487q13 0 62 -2q37 -1 59 0q63 4 91 34q13 356 4 1358q-23 17 -41 40z" />
    <glyph glyph-name="L" unicode="L" horiz-adv-x="1027" 
d="M958 1315q0 23 -1 33q-3 35 -22 50q-115 4 -666 4q-15 0 -54 2q-35 1 -54 1q-61 -2 -95 -23v-540q3 -4 23 -4q17 1 18 -8q2 -86 8 -105q74 -14 126 4q11 81 8 253q-3 186 4 258q11 -1 67 0q42 1 63 -4q1 -46 -1 -258q-1 -159 5 -253q381 -8 483 -5q3 1 11 2q9 3 13 3
q17 2 20 -9q-77 -6 -263 -4q-187 2 -268 -4q0 -31 -1 -181q-1 -111 5 -176q34 -1 193 1q119 1 188 -5q-3 -25 2 -83q5 -49 -2 -67q-260 -11 -519 0q-1 45 0 258q1 159 -4 253q10 -2 -118 4q-10 3 -16 -13q-4 -13 -12 -7q1 82 4 122q-4 15 -33 12q-5 -28 -4 -81q1 -71 0 -85
q4 -4 19 -2q13 2 18 -7q0 -5 3 -23q2 -14 1 -25q-7 -5 -21 -2q-13 3 -20 -2v-540q15 -10 25 -24q75 1 431 -1q265 -2 421 9q-4 -18 16 548q-6 7 -23 7q-16 -1 -22 9q1 7 0 45q-1 28 4 40q11 -34 29 -36q10 150 4 166q-6 9 -22 1q-14 -7 -15 3q-1 12 18 13q23 0 27 3
q-4 65 1 223q4 150 -1 215q-1 12 -1 35zM864 17q-22 1 -63 3q-39 3 -53 3h-459q-206 0 -219 8q-28 17 -29 151q0 41 3 106q2 67 2 79v897v94q6 45 45 56q13 4 227 4h438q189 0 203 -16q12 -14 12 -162v-1047q0 -146 -12 -158q-19 -19 -95 -18zM983 1078q0 16 3 79
q3 65 3 103q1 130 -26 154q-21 20 -93 20q-21 0 -60 -2q-40 -1 -54 -1q-559 0 -673 -5q-43 -15 -50 -69q1 3 1 -125v-877q0 -25 -3 -91q-2 -66 -2 -100q0 -117 25 -141q20 -20 95 -22q24 -1 65 0q48 1 59 1h479q12 0 61 -1q41 -1 65 -1q74 3 93 27q12 15 12 162v889z" />
    <glyph glyph-name="M" unicode="M" 
d="M524 619q25 61 20 86q-11 3 -27 2t-26 2q17 -80 33 -90zM756 729q-1 18 1 109q2 68 -9 99q-15 -38 -34 -103q-24 -83 -31 -105q36 -15 73 0zM271 729q15 -5 39 -5q27 0 34 9q-6 17 -32 108q-19 67 -41 100v-212zM890 451q1 -210 0 -256q-69 -12 -130 0q-6 93 -5 250
q2 210 1 256q6 -3 -73 4q-39 -91 -84 -246q-66 -228 -75 -256q-38 94 -87 248q-71 225 -80 254h-82q-6 -81 -4 -255q2 -175 -4 -255q-65 -12 -130 0q-6 93 -5 248q1 209 0 254q1 8 -16 7q-16 0 -12 13q-2 14 9 10q16 -4 19 2v497q4 9 13 12h175q30 -77 83 -257
q50 -172 84 -256h65q37 92 84 254q59 201 79 259h171q6 -91 5 -246q-1 -206 -1 -251q0 -14 17 -14q16 0 16 -10q5 -13 -10 -12q-17 0 -19 -4q-5 -94 -4 -250zM316 1405q-19 0 -72 2q-46 1 -71 1q-80 -2 -106 -23q-1 -137 0 -366q1 -244 0 -359q5 -5 23 0q16 5 18 -4v-49
q-3 -7 -23 -9q-19 -3 -18 -16q1 -32 0 -264q-1 -171 4 -269q35 -17 212 -17h457q180 0 216 17q5 99 4 266q-1 223 0 271q-2 9 -20 12q-19 2 -21 9v57q5 5 16 -6t21 -2q12 132 -5 179q11 12 13 37q2 43 -1 125q-3 107 -3 140q0 220 -13 260q-103 8 -631 8zM862 9q-23 0 -65 1
q-43 2 -57 2h-465q-11 0 -59 -1q-39 -1 -63 -1q-72 3 -90 22q-21 23 -20 145q0 35 2 99q2 63 2 82v856q0 14 -2 68q-1 38 1 58q4 57 38 78q78 -1 436 0q268 1 431 -4q26 -24 30 -71q-1 7 -1 -84v-893q0 -21 3 -85q3 -67 3 -102q1 -124 -26 -151q-20 -19 -98 -19zM988 1063
q0 16 3 78q3 67 4 106q2 137 -19 163q-16 19 -90 21q-23 1 -62 0q-49 -1 -56 -1q-145 0 -343 2q-235 2 -293 2q-67 -3 -85 -37q-5 -9 -12 -252q-5 -161 -1 -461q5 -410 5 -497q0 -153 12 -167q17 -20 99 -20q25 0 66 2t51 2q575 0 697 8q23 25 25 72q1 15 0 41q-1 34 -1 42
v896z" />
    <glyph glyph-name="N" unicode="N" horiz-adv-x="1043" 
d="M709 513q12 96 0 192q-82 2 -89 4q24 -108 89 -196zM444 730q-48 135 -106 228q-11 -114 0 -228q53 -14 106 0zM847 453q2 -212 1 -258q-81 -12 -151 0q-49 93 -120 253q-89 200 -117 257h-122q-5 -94 -4 -252q1 -212 0 -258q-67 -12 -135 0v506q-7 7 -47 3
q-35 -3 -38 13q0 13 34 9q39 -4 47 4q7 72 4 257q-3 171 9 252h163q211 -464 236 -514q8 1 54 0q33 -1 48 5q6 80 4 254q-2 175 4 255h127q5 -93 4 -250q-1 -210 0 -255q7 -12 45 -8q37 3 41 -5q0 -19 -32 -17q-46 2 -50 1q-6 -94 -5 -252zM326 1406q-219 0 -245 -16
q-6 -137 -4 -369q2 -273 0 -361q5 -6 22 1q16 6 19 -5v-49q-2 -7 -23 -9q-19 -2 -18 -15v-274q0 -13 -2 -61q-3 -53 -4 -81q-2 -103 18 -123q16 -15 93 -15q23 0 65 2q41 1 54 1h453q179 0 212 16q6 100 5 267q-1 223 -1 272q-35 20 -34 19q-15 15 -7 46q2 8 19 6
q18 -3 22 6q-1 12 1 91q1 56 -9 81q8 45 8 281q0 237 -12 281q-104 8 -632 8zM996 1241q1 59 -3 98q2 -54 3 -98zM996 1241q0 -37 -3 -98q-2 -57 -2 -71v-709q0 -21 2 -85q3 -66 4 -102q0 -124 -27 -148q-20 -18 -95 -19q-23 0 -64 1q-43 2 -57 2h-465q-194 0 -212 16
q-27 24 -26 148q0 37 3 101q3 63 3 81v877v114q5 54 36 70h665q200 0 212 -8q17 -12 23 -72q-2 61 -2 67q-42 26 -122 28q-26 0 -72 -1q-51 -2 -71 -2h-490q-158 0 -175 -20q-12 -15 -12 -164v-893q0 -14 -3 -80q-3 -65 -3 -105q0 -133 26 -153q20 -16 97 -16q22 0 65 2
q42 2 58 2h465q15 0 57 -2q43 -2 66 -2q81 0 101 16q28 21 27 142q0 35 -3 103q-3 65 -3 89q0 783 -3 891z" />
    <glyph glyph-name="O" unicode="O" horiz-adv-x="1027" 
d="M793 360q-91 -151 -257 -168q-33 -4 -61 0q-311 38 -342 505q1 9 -19 7q-19 -1 -18 9q4 -21 37 16q11 237 106 379q44 66 127 103q94 42 199 27q147 -21 233 -171q79 -138 80 -334q1 -11 20 -7q18 4 17 -5q-8 22 -37 -20q-2 -205 -85 -341zM911 660q3 6 19 -2q14 -7 17 6
q10 422 0 725q-32 16 -199 16h-648q-41 -8 -46 -57q-1 -14 6 -98q2 -24 -5 -88q-7 -63 -3 -99q21 -244 16 -232q-17 -43 -4 -171q6 -8 19 -1t13 5q3 -5 4 -61q-43 -24 -40 -16q0 -48 -1 -272q-1 -166 5 -266q34 -16 212 -16h456q181 0 215 16q6 91 5 270q-2 181 3 268
q-3 7 -23 10q-20 4 -21 14v49zM271 697q1 -100 27 -182q28 -87 75 -124q69 -53 143 -48q68 5 125 57q56 51 84 130q29 82 19 171q-73 6 -232 4q-160 -2 -232 4q-9 -3 -9 -12zM691 986q-65 113 -196 110q-91 -3 -154 -82q-85 -105 -65 -289q41 1 236 0q146 -1 232 4
q3 160 -53 257zM864 11q-24 -1 -64 0q-48 2 -60 2h-464q-14 0 -57 -2q-41 -1 -64 -1q-75 1 -95 19q-28 25 -27 199q0 51 3 134q3 82 3 98v746q-3 183 25 203q111 8 684 8q194 0 207 -12q24 -20 23 -156q-1 -39 -4 -105q-2 -63 -2 -77v-875q0 -141 -17 -159q-18 -20 -91 -22z
M980 1063q0 21 3 84q3 69 4 104q2 130 -19 158q-18 24 -78 25q-108 1 -325 -2q-255 -3 -334 -3q-12 0 -51 2q-32 1 -50 0q-57 -2 -91 -26q-8 -189 -8 -1046q0 -20 -3 -83q-2 -67 -3 -104q-1 -128 23 -151q18 -19 94 -19q24 -1 66 1q44 1 59 1h473q15 0 57 -2q43 -2 66 -2
q81 -1 101 17q16 14 16 158v888z" />
    <glyph glyph-name="P" unicode="P" horiz-adv-x="1035" 
d="M773 702q-6 -3 -72 -51q-47 -33 -87 -42q-42 -9 -130 -5q-91 5 -138 -3q-5 -74 -4 -201q1 -169 0 -205q-67 -13 -134 0v503q-11 6 -61 4q-40 -1 -41 17q3 11 36 6q43 -7 58 -2q12 76 8 256t8 256q16 -1 255 2q145 2 212 -31q73 -35 112 -122q37 -80 35 -178q0 6 -41 -179
q19 -7 74 -4q54 3 60 0q3 -21 -21 -23q-8 0 -22 1q-17 1 -22 1h-85zM952 1389q-17 16 -89 16q-22 0 -61 -2q-40 -2 -54 -2h-646q-8 -5 -32 -32q0 -35 -1 -367q0 -212 5 -344q3 -6 18 0q15 7 18 0v-57q-43 -24 -40 -16v-281q0 -226 16 -268q112 -4 654 -4q13 0 54 -2
q42 -1 65 -1q79 -1 93 15q9 12 9 50q-1 66 -1 60q13 198 8 435q-4 6 -25 7q-20 1 -24 9q1 45 4 53q47 17 45 12q-11 159 -12 163q9 7 12 36q16 139 0 329q-17 191 -16 191zM342 1072q1 -28 0 -161q-1 -99 4 -156q3 1 173 -1q98 -2 136 38q34 35 37 116q3 82 -29 128
q-31 44 -127 49q-28 1 -89 0q-62 -2 -93 -1q-9 -3 -12 -12zM869 9q-23 -1 -64 1q-43 2 -57 2h-463q-13 0 -58 -2q-41 -1 -64 -1q-76 1 -93 19q-22 22 -21 150q0 39 2 102q3 62 3 77v862q0 9 -2 62q-1 37 1 58q4 60 33 75h671q14 0 59 1q39 1 61 1q70 -2 87 -19
q15 -15 17 -69q1 -18 0 -48q-1 -37 -1 -45v-435v-439q0 -22 3 -84q3 -67 4 -101q1 -124 -23 -148q-19 -19 -95 -19zM992 1064q0 17 3 82q3 66 3 105q1 134 -26 159q-35 31 -193 18q-165 -13 -197 6q-40 -8 -277 -8q-15 0 -61 3q-47 2 -73 2q-90 1 -113 -25q-17 -18 -17 -159
v-882q0 -13 -2 -75q-2 -66 -3 -106q-1 -137 18 -160q17 -22 93 -23q23 -1 64 1q45 2 58 2h475q16 0 59 -2q45 -2 68 -2q82 0 101 16q26 21 26 149q0 38 -3 105t-3 87v707z" />
    <glyph glyph-name="Q" unicode="Q" horiz-adv-x="1027" 
d="M753 383q8 -20 31 -51q23 -32 30 -51q-26 -42 -93 -81q-60 88 -65 93q-214 -87 -361 56q-131 128 -143 355q-18 5 -36 -4t-21 -8v44q1 0 21 -9q18 -8 36 -3q5 228 91 366q104 166 303 146q150 -15 234 -163q78 -140 71 -341q5 -10 30 -8q28 2 31 0q5 -21 -17 -21
q-46 -1 -40 1q-23 -221 -102 -321zM108 767q0 -19 -13 -19q3 40 4 41q9 -4 9 -22zM102 816q3 -2 5 -3q1 -3 -2 -7q-2 -5 -2 -9q-9 1 -8 21q4 0 7 -2zM954 1356q2 19 -10 30q-34 17 -199 17h-430q-20 0 -75 2q-49 1 -74 1q-82 -3 -103 -32q-9 -78 -4 -225q6 -153 0 -218
q-1 -7 -6 -26q-3 -16 -3 -27q1 -7 8 -23q8 -16 9 -25q0 -4 -4 -17t-4 -20q-5 -67 4 -130q1 -10 15 -5q17 4 21 -3v-49q-1 -8 -20 -8q-18 -1 -16 -12q-4 -69 -4 -410q0 -118 12 -130q15 -16 89 -16q22 0 62 2q39 1 52 1h654q20 14 24 41q-1 -4 0 53q7 295 4 463q-3 6 -21 7
q-19 1 -23 5v61q3 -1 10 -3q6 -3 9 -3q11 -3 17 6q0 5 8 88q5 52 -12 79q9 7 12 36q10 79 2 230q-10 190 -10 225q0 -8 6 35zM286 692q1 -142 81 -229q85 -93 208 -48q-15 35 -52 87q-40 55 -54 84q53 67 89 85q14 -16 56 -84q34 -53 62 -78q50 57 53 191q-221 11 -443 0v-8
zM322 977q-46 -101 -32 -253q40 1 222 0q137 -1 217 4q10 161 -47 267q-65 123 -197 107q-111 -14 -163 -125zM863 10q-24 0 -64 1q-45 2 -58 2h-467q-14 0 -58 -1q-41 -2 -64 -1q-76 0 -93 18q-24 25 -23 143q1 33 4 101q2 64 2 90v873q0 116 0 109q5 55 37 70q77 -2 442 1
q272 2 431 -9q17 -31 17 -163v-1048q0 -147 -13 -163q-17 -21 -93 -23zM981 1065q0 24 3 88q3 68 3 103q1 124 -22 151q-27 30 -139 27q-24 -1 -87 -5q-49 -3 -67 -2q-45 2 -126 3q-122 1 -142 1q-26 -4 -183 -4q-154 0 -166 -8q-20 -13 -24 -64q-1 -11 -1 -91v-552v-540
q0 -9 -1 -43q-1 -27 0 -43q3 -47 26 -73q119 -8 686 -8q15 0 55 -2q42 -3 64 -3q78 -1 101 17q25 21 25 145q0 37 -3 102q-2 66 -2 86v715z" />
    <glyph glyph-name="R" unicode="R" horiz-adv-x="1038" 
d="M879 10q-24 -1 -65 1q-44 1 -55 1h-229q-378 0 -450 12q-19 28 -21 76q-1 16 0 42q1 33 1 42v1079v92q4 46 28 59q16 8 217 8h445q206 0 229 -12q13 -34 13 -348v-703q0 -20 2 -83q3 -66 3 -101q1 -124 -22 -147q-18 -17 -96 -18zM1004 1242q0 156 -12 168q-4 3 -11 7
q-7 3 -10 5q-12 10 -221 12h-457q-186 0 -221 -12q-22 -26 -25 -72q0 5 0 -83v-908q0 -19 -3 -85q-3 -68 -3 -105q-1 -130 27 -153q20 -16 99 -16q23 0 66 2q41 2 56 2h470q209 0 224 12q21 17 21 155v1071zM958 600q-19 1 -24 5v98q-25 -2 -84 6q-51 7 -75 2
q-23 -5 -57 -39q-33 -35 -53 -39q21 -75 86 -223q62 -141 81 -218q-10 0 -72 -1q-44 0 -67 5q-24 54 -87 205q-55 129 -89 204q-81 11 -163 0q-6 -64 -4 -205t-4 -204q-113 -13 -139 8q-4 81 4 251q7 154 0 248q1 0 -82 4q-14 -38 -12 -106q-3 -1 -12 0q-8 0 -12 -1
q-13 -1 -13 -12v-539q34 -16 209 -16h457q13 0 56 -2t66 -2q81 0 95 16q8 10 16 110q5 64 1 214q-4 159 -1 223q-4 7 -21 8zM354 1079q-11 -157 0 -319q33 2 91 1q68 -2 90 -1q99 2 134 41q53 60 30 166q-24 108 -100 124q-41 9 -114 2q-79 -8 -123 -2q-8 -3 -8 -12z
M934 834h13q-4 -18 -13 -17v17zM114 731q-4 61 7 74q2 -6 1 -38q0 -28 7 -40q85 8 78 4q13 79 4 247q-10 179 0 264q58 -4 152 -1q122 4 148 4q165 -2 235 -64q74 -65 88 -205q15 -141 -43 -245q22 -5 74 -4q59 1 69 0q6 -6 7 -38q1 -27 14 -31q23 22 25 82q1 53 -13 94
q12 29 12 220q0 248 -12 339q-33 17 -200 17q-569 0 -675 -8q-12 -30 -12 -184v-483q0 -3 -2 -21q-2 -16 -1 -26q2 -30 28 -30q13 13 9 73z" />
    <glyph glyph-name="S" unicode="S" horiz-adv-x="1024" 
d="M976 198q0 -142 -16 -159q-18 -17 -92 -18q-23 -1 -64 1q-45 1 -60 1h-459q-15 0 -54 -2q-44 -2 -65 -3q-81 -2 -101 13q-23 18 -22 154q0 39 3 106q3 63 3 78v878q0 10 -1 44q-1 29 -1 46q1 52 18 69q17 16 90 18q23 0 63 -1q45 -1 58 -1h456q194 0 219 -8
q23 -11 26 -70q1 -20 0 -56q-1 -49 -1 -57v-1033zM988 1235q0 156 -12 167q-10 9 -21 16q-23 16 -219 16h-464q-203 0 -219 -16q-25 -25 -23 -148q0 -34 3 -100q4 -61 4 -81v-1041q23 -38 85 -45h118h496q13 0 60 -2q43 -1 68 -1q81 2 104 23q20 19 20 155v1057zM924 790
q0 -20 -5 -31q-8 9 -4 57q8 -5 9 -26zM937 604q-16 -1 -18 5q-1 22 -4 53q-4 32 -4 48q-111 12 -216 0q124 -162 94 -309q-15 -71 -84 -130q-67 -57 -148 -69q-187 -27 -329 81q9 19 25 73q14 48 27 70q72 -69 203 -73q139 -5 172 81q20 55 0 106q-18 42 -102 101
q-95 67 -130 73q-51 10 -148 2q-102 -8 -153 -2q-10 3 -14 -10q-4 -11 -10 -6q14 40 12 37q199 -11 280 4q-86 68 -123 130q-53 91 -31 203q15 66 80 111q60 42 146 56q84 14 161 -4q83 -19 129 -69q-3 -11 -17 -70q-11 -43 -19 -68q-65 58 -200 58q-62 0 -103 -18
q-45 -21 -51 -61q-7 -48 57 -110q18 -18 166 -113q89 -58 86 -57q36 -7 125 2q95 9 127 6q0 -1 -3 -42q-1 -22 11 -31q10 2 20 0q6 26 5 78q-1 70 -1 84q-3 7 -22 3q-16 -3 -14 5q0 9 16 9q18 -1 20 4v540q-32 22 -91 23q-19 1 -53 -1q-39 -1 -55 -1h-658q-29 -8 -33 -34
q0 2 0 -56q0 -42 -4 -228q-3 -151 0 -243q3 -3 29 -4q19 -1 16 -17q-1 -2 -16 3t-21 -3q-8 -20 4 -162q16 -7 23 11q6 16 10 13v-77q-47 -20 -45 -17q6 -476 16 -540q575 -11 602 -8q31 3 147 -2q87 -4 125 14q6 105 5 269q-1 227 -1 276q-2 4 -18 3z" />
    <glyph glyph-name="T" unicode="T" horiz-adv-x="1032" 
d="M743 714q-94 1 -148 -4q-6 -80 -4 -254q2 -175 -4 -255h-142q-6 80 -4 255q2 174 -4 254q-257 7 -309 4q4 0 -15 -7q-8 -3 -6 11q-4 16 10 15q4 0 12 -1q8 -2 11 -2q16 0 146 -2q91 -3 151 6q11 179 0 354q-36 6 -122 4t-122 4v146h642q13 -73 0 -146q-41 -5 -115 -5
q-100 2 -121 1q-11 -59 -9 -172q3 -151 1 -182q53 -11 154 -9q137 2 163 1q6 10 5 43q-2 32 3 42q11 -15 10 -58q-3 -58 -1 -68q-10 0 -14 13t-15 12q-27 -1 -153 0zM939 604q-16 -1 -18 4v49q6 4 21 4q11 1 15 8q12 74 0 155q-5 7 -23 2q-16 -4 -18 6q1 9 23 8q20 -1 18 12
q10 397 -4 541q-34 12 -203 12h-431q-222 0 -248 -16q-7 -84 -9 -541q3 -8 25 -8q21 0 20 -12q1 0 -25 2q-11 0 -15 -11q-2 -7 4 -183q14 -1 22 13q9 18 14 20q1 -41 -7 -54q-6 -8 -38 -23q14 -553 13 -541q103 -14 331 -9q235 5 344 -7q29 10 90 9q88 -2 101 -1
q19 17 22 55q0 12 -1 33q-1 26 -1 34q0 363 -4 435q-2 5 -18 4zM67 31q-17 51 -17 341v716q0 19 -2 86q-3 64 -3 101q2 119 34 138q22 14 104 12q22 0 69 -2q44 -2 63 -2h435q196 0 207 -8q27 -19 27 -149q-1 -38 -4 -105q-3 -65 -3 -83v-891q0 -9 2 -40q1 -26 0 -41
q-2 -47 -22 -73q-444 -22 -890 0zM990 1072q0 12 2 74q3 64 4 105q1 137 -23 162q-16 18 -83 21q3 0 -120 0h-455q-219 0 -232 -4q-38 -12 -44 -58q-1 -3 -1 -97v-878q0 -21 -3 -87q-3 -71 -3 -109q-2 -136 18 -166q18 -27 85 -32q9 -1 127 -1h488q12 0 62 -1q41 -1 66 -1
q74 3 95 26q17 18 17 159v887z" />
    <glyph glyph-name="U" unicode="U" horiz-adv-x="1029" 
d="M989 1240q0 8 2 51v52q-3 58 -22 60q8 -185 8 -1044q0 -16 3 -81q2 -65 2 -103q0 -128 -25 -145q-24 -16 -102 -14q-20 1 -63 4q-39 2 -54 2h-447q-15 0 -52 -2q-42 -3 -61 -4q-76 -2 -102 14q-30 19 -30 143q0 37 3 102q3 66 3 84v885q0 142 16 159q17 16 89 18
q23 0 64 -1q45 -1 58 -1h451q206 0 231 -12q1 -1 4 -3q2 -1 4 -1q-5 28 -93 31q-28 1 -73 -1q-53 -2 -61 -2h-463q-13 0 -57 2q-41 1 -65 1q-77 -1 -97 -19q-27 -24 -27 -146q1 -36 4 -100q2 -63 2 -83q0 -861 4 -1044q24 -35 87 -40q-2 0 120 0h504q7 0 62 -2q41 -1 66 1
q76 3 95 29q21 29 19 152q0 33 -4 101q-3 61 -3 84v873zM336 700q-21 -175 30 -269q59 -109 205 -80q156 31 122 357q-62 6 -170 5q-145 -1 -175 -1q-9 -3 -12 -12zM895 710q-36 8 -56 -2q-10 -185 -28 -264q-29 -129 -102 -186q-93 -75 -235 -55q-137 20 -199 107
q-49 68 -65 176q-8 60 -12 218q-9 11 -47 8q-39 -3 -43 4q1 19 36 14q43 -5 54 3q6 78 4 258q-3 177 4 249h126q5 -94 4 -253q-1 -213 0 -258q30 0 181 -1q111 -1 176 5q6 93 5 251q-2 211 -1 256h130q6 -93 5 -249q-2 -209 -1 -254q16 -16 62 -5q19 4 25 3q10 -2 7 -15
q-4 -16 -30 -10zM750 1403h-430q-18 0 -71 1q-47 1 -73 1q-81 -2 -104 -23q2 -88 -5 -267q-6 -171 -3 -269q2 -7 25 -7q20 0 19 -13q-34 -2 -36 -4q-5 -14 4 -163q15 -6 22 7t10 10q-2 -74 0 -69q-3 -4 -24 -5q-17 0 -16 -12q-12 -105 4 -316q18 -243 12 -228q641 -9 869 4
q11 79 8 545q-2 6 -21 7q-18 1 -20 9v57q5 1 23 -6q13 -5 14 6q12 75 0 154q-2 6 -18 4q-17 -2 -19 4q1 8 21 8q18 0 16 12q10 399 -4 540q-34 13 -203 13z" />
    <glyph glyph-name="V" unicode="V" horiz-adv-x="1016" 
d="M421 704q-2 -3 -1 -7q8 -37 25 -101q21 -76 28 -102q30 -125 40 -138q78 363 78 354q-84 12 -167 0q0 -3 -3 -6zM741 710q-35 -89 -76 -251q-51 -197 -70 -258h-175q-26 82 -71 254t-72 255q-27 6 -96 4q-70 -3 -83 0q-1 19 27 20q8 0 26 -2t25 -2q79 0 93 4
q-22 98 -65 254q-53 187 -69 250q25 6 73 5q65 -1 78 -1q20 -70 63 -255q38 -165 67 -253q138 -12 187 4q26 95 62 251q48 207 60 253h150q-17 -88 -65 -252q-47 -164 -65 -252q11 -8 94 -8q8 0 25 2q17 1 24 1q27 1 28 -15q0 -13 -15 -10q-3 0 -13 3q-9 3 -13 3
q-87 4 -134 -4zM953 1125q0 229 -13 272q-101 8 -634 8q-17 0 -70 2q-47 2 -73 1q-83 -2 -101 -27v-533q1 -7 19 -7q17 -1 17 -9q-2 -6 -18 -5t-18 -3v-159q5 -7 20 0q14 8 16 4q14 -26 0 -65q-39 0 -44 -8q5 -74 0 -460q-1 -49 20 -89q135 0 415 -6q294 -7 403 -7
q27 0 57 21q5 100 4 268q-1 224 0 273q-3 7 -21 7q-18 1 -20 9v53q7 1 22 -3q12 -3 19 3q-1 13 0 82q1 50 -4 77q-1 5 -19 3q-16 -2 -14 9q2 5 18 4t19 4v281zM856 18q-22 0 -64 2q-40 2 -55 2h-455q-203 0 -216 8q-27 18 -28 147q-1 39 1 103q3 67 3 80v712q0 20 -3 88
q-3 67 -3 105q0 126 30 148q0 1 2 0h2q0 2 8 4q110 4 667 4q193 0 208 -12q27 -22 26 -150q0 -37 -3 -104q-3 -65 -3 -83v-883q0 -138 -20 -155q-21 -16 -97 -16zM981 1271q0 91 1 82q-3 46 -25 73q-108 8 -651 8q-224 0 -256 -17q-17 -33 -17 -179v-585q-2 -30 -1 -72
q2 -59 1 -71q0 -10 -4 -34q-4 -23 -4 -35q1 -22 5 -130q4 -86 3 -126q0 -13 -2 -44q-1 -28 -1 -43q0 -47 16 -68q19 -26 94 -29q25 -2 67 -1q56 2 66 2h489h126q69 5 85 32q8 14 8 167v1070z" />
    <glyph glyph-name="W" unicode="W" horiz-adv-x="1027" 
d="M645 699q8 -39 21 -113q15 -87 19 -110q1 -4 1 -13q-1 -10 -1 -14q1 -16 17 -18q26 229 28 272q-9 9 -38 10q-26 0 -43 -6q-2 -8 -4 -8zM283 699q-3 13 20 -187q8 -64 25 -73q33 174 40 268q-40 15 -81 0q-5 -1 -4 -8zM478 732q48 -9 65 0q-1 34 -12 97q-12 61 -12 98
q-3 1 -6 4q-4 3 -6 4q-31 -146 -29 -203zM802 455q-21 -183 -35 -256h-147q-11 103 -34 256q-35 226 -39 252q6 -2 -73 5q-18 -89 -41 -256q-27 -182 -40 -257h-143q-13 73 -34 256q-20 167 -39 252q-13 8 -42 4q-30 -5 -35 -4q-6 28 28 23q42 -6 49 6q-36 235 -69 504
q8 -1 56 1q34 0 50 -5q10 -68 33 -253q21 -161 36 -251q62 -13 89 4q12 60 78 504q9 -1 59 1q37 0 55 -5q13 -72 39 -251q24 -162 42 -249q31 -20 85 -4q16 71 69 508h110q-33 -273 -69 -500q4 -16 41 -11q35 5 36 -9q-1 -14 -32 -10q-36 5 -45 -3q-19 -84 -38 -252z
M954 1126q0 226 -12 269q-102 8 -635 8q-16 0 -69 2q-48 1 -74 1q-83 -2 -101 -28v-536q3 -4 22 -4q15 1 15 -9q-2 -5 -18 -4t-19 -4v-162q7 -7 23 4q14 10 18 0q-6 -60 -4 -57q-3 -4 -20 -5q-14 -1 -17 -7q1 -49 0 -273q-1 -168 5 -268q12 -14 34 -15q7 0 19 1q14 2 20 2
q373 9 784 -8q26 12 29 49q0 -5 0 68v444q-3 6 -21 7q-17 2 -20 9q6 64 4 61q6 0 19 -8q11 -6 18 0v158q-2 5 -21 4q-17 -1 -16 8q4 4 20 5q15 1 17 8v280zM974 187q-1 -138 -20 -154q-17 -15 -97 -15q-23 0 -65 1t-54 1h-455q-14 0 -51 -2l-63 -3q-78 -2 -101 13
q-31 20 -31 142q0 36 3 104q3 69 3 92v898q0 6 -1 42q-1 25 0 41q4 46 30 68q118 4 675 4q192 0 207 -12q27 -21 26 -151q0 -39 -3 -104q-3 -63 -3 -79v-886zM982 1114q0 18 3 75q2 59 3 91q1 112 -22 135q-17 18 -89 19q-22 0 -62 -1q-43 -2 -56 -2h-679q-30 -21 -41 -36
q-4 -213 -4 -1196q0 -153 8 -166q16 -27 84 -32q10 -1 123 -1h480q205 0 224 12q29 19 32 68q1 12 -4 95v939z" />
    <glyph glyph-name="X" unicode="X" horiz-adv-x="1016" 
d="M699 201q-31 55 -97 190q-60 124 -98 188q-18 -28 -195 -378q-27 -3 -76 -1q-57 2 -83 1q40 83 133 251q89 163 132 253q-50 11 -167 9q-133 -3 -155 -1q-3 20 27 20q9 0 28 -2t27 -2q209 0 236 8q-37 77 -132 251q-86 158 -129 254h151q31 -53 100 -195
q61 -126 103 -192q36 63 102 193q66 132 101 194h147q7 17 -261 -501q42 -15 248 -12q7 0 20 2q14 1 20 1q23 1 30 -11q-3 -11 -26 -11q-6 0 -22 2q-14 1 -22 1q-186 2 -252 -4q37 -85 132 -253q90 -161 129 -255h-151zM911 676q2 -1 7 -6q6 -5 9 -7q10 -7 20 1v159
q-2 5 -21 3q-16 -1 -15 9q3 4 19 5q15 1 17 7q-1 48 1 278q2 171 -9 267q-33 12 -203 12h-431q-18 0 -72 2q-48 2 -74 1q-83 -2 -102 -27v-533q1 -7 19 -7q17 0 17 -9q-40 0 -39 -63q3 -103 3 -104q7 -8 24 -1q15 5 16 -3v-53q-4 -3 -21 -4q-16 -1 -19 -8q3 -71 -2 -290
q-4 -166 10 -255q69 -12 236 -8q166 4 236 -8q57 13 205 8q145 -5 197 8q14 144 4 549q-1 6 -16 4t-16 4q-14 28 0 69zM840 16q-20 1 -63 3q-38 3 -53 3h-448q-14 0 -51 -2q-42 -3 -63 -4q-77 -2 -101 14q-27 18 -24 150v1086q0 88 -1 82q4 46 29 68q119 4 683 4q13 0 53 2
q38 2 60 2q71 0 90 -20q16 -16 18 -70q0 -17 -1 -47v-45v-883q0 -19 2 -85q3 -65 3 -102q0 -123 -30 -142q-25 -16 -103 -14zM976 1270q0 8 1 41q1 26 0 42q-3 47 -26 72q-160 10 -434 9q-366 -3 -444 -1q-29 -22 -41 -37q-4 -183 -4 -1033q0 -16 -2 -76q-3 -65 -4 -101
q-2 -129 19 -156q18 -24 89 -28h126h488q6 0 62 -2q40 -1 65 1q73 3 92 29q13 16 13 167v1073z" />
    <glyph glyph-name="Y" unicode="Y" horiz-adv-x="1029" 
d="M751 713q-75 -1 -106 0q-63 -56 -66 -229q-2 -50 2 -148q4 -97 3 -135q-18 -1 -70 -1q-57 1 -80 1q0 1 -3 281q-1 169 -54 231q-40 0 -147 -1q-99 0 -133 1q-7 19 11 19q6 1 17 -1q13 -2 16 -2q143 -4 224 4q-28 87 -101 251q-77 173 -106 257h150q27 -60 98 -242
q59 -153 101 -238q12 13 53 118q83 212 150 362h143q-33 -98 -102 -254q-79 -179 -106 -250q47 -12 212 -8q5 0 16 2q12 1 18 1q20 1 23 -11q-4 -12 -23 -11q-6 0 -17 1q-12 2 -17 2h-106zM956 1269q-1 37 -3 55q-4 65 -19 76q-106 4 -630 4q-215 0 -240 -17
q-11 -271 0 -540q0 -9 20 -8q19 0 17 -12q-2 -1 -23 0q-15 1 -14 -9q-5 -25 -4 -74q1 -66 0 -80q5 -7 21 -3q16 5 20 -1v-53q-4 -3 -22 -4q-16 -2 -19 -8v-415q0 -119 8 -130q10 -13 31 -12q7 0 19 2q14 2 19 2q244 13 740 0q5 0 20 -1q12 -2 19 -1q21 0 34 14q12 266 8 537
q-2 8 -21 11q-20 2 -23 9q-8 12 0 57q39 -2 36 -4q-3 26 5 84q6 47 -5 74q-2 5 -18 4t-18 5q2 8 22 8t22 8q-3 49 1 182q5 131 -1 192q-1 13 -2 48zM971 359q0 -19 2 -86q2 -65 2 -102q-1 -123 -29 -141q-22 -14 -102 -13q-22 1 -65 3q-38 2 -52 2h-447q-14 0 -50 -3
q-42 -3 -62 -4q-78 -3 -104 15q-25 17 -25 154q0 41 2 106q3 65 3 77v894q0 7 -2 45q-1 29 0 46q5 52 38 64q12 4 228 4h443q187 0 203 -16q23 -23 22 -160q0 -40 -3 -104q-2 -62 -2 -74v-707zM983 1083q0 16 3 79q3 64 3 101q1 128 -27 153q-18 16 -93 18q-24 0 -62 -1
q-44 -1 -52 -1q-580 0 -695 -8q-26 -24 -29 -70q-1 -15 -1 -40q2 -35 2 -40v-895q0 -17 -3 -80q-3 -68 -4 -106q-2 -136 19 -163q18 -25 89 -29q-5 0 122 0h488q7 0 63 -1q40 0 64 1q71 3 92 25q21 21 21 170v887z" />
    <glyph glyph-name="Z" unicode="Z" horiz-adv-x="1038" 
d="M723 713h-126q-24 -30 -220 -362q72 -18 204 -12q157 7 223 0q1 -71 0 -142q-107 5 -295 4q-243 -1 -290 0q3 27 -1 78q-4 47 1 72q1 4 49 90q10 18 77 130q47 79 73 134q-255 12 -280 8q-19 -4 -37 -16q1 9 0 61q-1 38 4 56q9 -22 8 -77q25 -8 155 -8h158q15 5 61 85
q125 220 155 281q-66 6 -212 4q-145 -2 -211 4v138q52 -1 295 1q181 1 290 -5q-3 -27 1 -76q3 -46 -1 -70q0 -2 -49 -90q-18 -34 -76 -132q-48 -81 -74 -132q57 -12 248 -8q5 0 18 2q13 1 19 1q22 1 28 -11q-2 -11 -26 -11q-6 0 -21 1q-15 2 -22 2h-126zM940 603
q-20 0 -22 8q1 6 -1 39q-1 25 5 34q1 -2 3 -9t4 -10q6 -10 21 -5q15 135 4 158q1 9 -16 9q-18 -1 -20 4q2 8 22 8t23 8q2 83 -1 276q-3 175 1 248q-6 8 -33 33q-76 -1 -427 0q-263 1 -422 -4q-17 -40 -17 -269q0 -237 5 -284q0 -9 20 -8q19 0 16 -12q0 -3 -18 0
q-20 3 -18 -9q-12 -68 0 -154q2 -2 17 -2q14 1 19 -6v-53h-12q-9 1 -13 0q-13 0 -11 -12q-14 -317 -13 -337q1 -7 2 -58q1 -41 4 -67q7 -81 31 -91q124 7 429 4q281 -3 424 8q-1 -7 17 545q-3 7 -23 8zM850 17q-20 1 -65 3q-41 2 -58 2h-455q-13 0 -55 -2q-40 -1 -63 -1
q-77 0 -94 19q-20 24 -18 159q0 39 3 106q3 61 3 77v881q0 106 0 101q5 49 41 58h215q530 0 642 -4q27 -22 30 -70q1 -15 0 -42q-1 -34 -1 -43v-898q0 -22 3 -89t3 -103q0 -122 -31 -141q-22 -14 -100 -13zM987 1079q0 15 3 78q3 65 3 104q1 132 -22 155q-17 16 -94 18
q-24 0 -63 -1q-43 -1 -51 -1q-576 0 -690 -8q-35 -22 -39 -78q-1 -19 0 -57q2 -50 2 -68v-866q0 -24 -2 -87q-3 -66 -3 -100q-1 -118 21 -142q22 -23 95 -25q24 -1 64 -1q52 2 61 2h487h129q69 5 87 32q20 30 18 154q0 33 -3 100q-3 61 -3 83v708z" />
    <glyph glyph-name="bracketleft" unicode="[" 
d="M918 654q1 37 -1 53q-396 3 -805 0q-2 -17 -1 -54q0 -38 -2 -55q-48 -2 -42 -1v-472q0 -62 2 -66q7 -24 48 -28q-7 1 78 1h643q96 0 105 4q7 3 21 29v532q-5 2 -23 1q-16 0 -21 3q-2 16 -2 53zM930 829q-9 -64 1 -174q0 -9 31 6q2 15 2 92q0 64 -3 76h-31zM67 829v-174
q3 -1 3 4q0 4 2 5q3 -3 23 -3q2 0 4 -4q1 -3 3 -1v87q0 54 -1 86h-34zM186 1402q-92 0 -96 -1q-18 -6 -22 -33q-1 -8 -1 -56q0 -391 2 -475q7 -2 21 -1t21 0v-55q-1 -33 1 -52q228 -5 805 -2q2 17 1 55q0 38 2 55q37 -1 42 0q2 83 2 475q0 60 -2 66q-9 22 -39 25
q3 -1 -65 -1h-672zM940 14q-4 -1 -56 -1q-109 -1 -297 0h-287h-108q-110 0 -127 16q-13 19 -17 152q-2 80 3 257q0 6 -1 19q-2 14 -2 20v827q0 62 6 80q9 34 45 39h736q99 0 104 -2q23 -6 41 -39v-1248q0 -71 -3 -80q-8 -32 -37 -40zM994 1305q0 69 -4 81q-12 37 -47 46
q-10 2 -104 2h-745q-46 -8 -55 -53q-1 -7 -1 -82v-1247q23 -48 59 -52h841q42 7 53 55q3 10 3 80v1170z" />
    <glyph glyph-name="backslash" unicode="\" 
d="M918 654q1 37 -1 53q-396 3 -805 0q-2 -17 -1 -54q0 -38 -2 -55q-48 -2 -42 -1v-472q0 -62 2 -66q7 -24 48 -28q-7 1 78 1h643q96 0 105 4q7 3 21 29v532q-5 2 -23 1q-16 0 -21 3q-2 16 -2 53zM930 829q-9 -64 1 -174q0 -9 31 6q2 15 2 92q0 64 -3 76h-31zM67 829v-174
q3 -1 3 4q0 4 2 5q3 -3 23 -3q2 0 4 -4q1 -3 3 -1v87q0 54 -1 86h-34zM186 1402q-92 0 -96 -1q-18 -6 -22 -33q-1 -8 -1 -56q0 -391 2 -475q7 -2 21 -1t21 0v-55q-1 -33 1 -52q228 -5 805 -2q2 17 1 55q0 38 2 55q37 -1 42 0q2 83 2 475q0 60 -2 66q-9 22 -39 25
q3 -1 -65 -1h-672zM940 14q-4 -1 -56 -1q-109 -1 -297 0h-287h-108q-110 0 -127 16q-13 19 -17 152q-2 80 3 257q0 6 -1 19q-2 14 -2 20v827q0 62 6 80q9 34 45 39h736q99 0 104 -2q23 -6 41 -39v-1248q0 -71 -3 -80q-8 -32 -37 -40zM994 1305q0 69 -4 81q-12 37 -47 46
q-10 2 -104 2h-745q-46 -8 -55 -53q-1 -7 -1 -82v-1247q23 -48 59 -52h841q42 7 53 55q3 10 3 80v1170z" />
    <glyph glyph-name="bracketright" unicode="]" 
d="M918 654q1 37 -1 53q-396 3 -805 0q-2 -17 -1 -54q0 -38 -2 -55q-48 -2 -42 -1v-472q0 -62 2 -66q7 -24 48 -28q-7 1 78 1h643q96 0 105 4q7 3 21 29v532q-5 2 -23 1q-16 0 -21 3q-2 16 -2 53zM930 829q-9 -64 1 -174q0 -9 31 6q2 15 2 92q0 64 -3 76h-31zM67 829v-174
q3 -1 3 4q0 4 2 5q3 -3 23 -3q2 0 4 -4q1 -3 3 -1v87q0 54 -1 86h-34zM186 1402q-92 0 -96 -1q-18 -6 -22 -33q-1 -8 -1 -56q0 -391 2 -475q7 -2 21 -1t21 0v-55q-1 -33 1 -52q228 -5 805 -2q2 17 1 55q0 38 2 55q37 -1 42 0q2 83 2 475q0 60 -2 66q-9 22 -39 25
q3 -1 -65 -1h-672zM940 14q-4 -1 -56 -1q-109 -1 -297 0h-287h-108q-110 0 -127 16q-13 19 -17 152q-2 80 3 257q0 6 -1 19q-2 14 -2 20v827q0 62 6 80q9 34 45 39h736q99 0 104 -2q23 -6 41 -39v-1248q0 -71 -3 -80q-8 -32 -37 -40zM994 1305q0 69 -4 81q-12 37 -47 46
q-10 2 -104 2h-745q-46 -8 -55 -53q-1 -7 -1 -82v-1247q23 -48 59 -52h841q42 7 53 55q3 10 3 80v1170z" />
    <glyph glyph-name="asciicircum" unicode="^" 
d="M918 654q1 37 -1 53q-396 3 -805 0q-2 -17 -1 -54q0 -38 -2 -55q-48 -2 -42 -1v-472q0 -62 2 -66q7 -24 48 -28q-7 1 78 1h643q96 0 105 4q7 3 21 29v532q-5 2 -23 1q-16 0 -21 3q-2 16 -2 53zM930 829q-9 -64 1 -174q0 -9 31 6q2 15 2 92q0 64 -3 76h-31zM67 829v-174
q3 -1 3 4q0 4 2 5q3 -3 23 -3q2 0 4 -4q1 -3 3 -1v87q0 54 -1 86h-34zM186 1402q-92 0 -96 -1q-18 -6 -22 -33q-1 -8 -1 -56q0 -391 2 -475q7 -2 21 -1t21 0v-55q-1 -33 1 -52q228 -5 805 -2q2 17 1 55q0 38 2 55q37 -1 42 0q2 83 2 475q0 60 -2 66q-9 22 -39 25
q3 -1 -65 -1h-672zM940 14q-4 -1 -56 -1q-109 -1 -297 0h-287h-108q-110 0 -127 16q-13 19 -17 152q-2 80 3 257q0 6 -1 19q-2 14 -2 20v827q0 62 6 80q9 34 45 39h736q99 0 104 -2q23 -6 41 -39v-1248q0 -71 -3 -80q-8 -32 -37 -40zM994 1305q0 69 -4 81q-12 37 -47 46
q-10 2 -104 2h-745q-46 -8 -55 -53q-1 -7 -1 -82v-1247q23 -48 59 -52h841q42 7 53 55q3 10 3 80v1170z" />
    <glyph glyph-name="underscore" unicode="_" 
d="M918 654q1 37 -1 53q-396 3 -805 0q-2 -17 -1 -54q0 -38 -2 -55q-48 -2 -42 -1v-472q0 -62 2 -66q7 -24 48 -28q-7 1 78 1h643q96 0 105 4q7 3 21 29v532q-5 2 -23 1q-16 0 -21 3q-2 16 -2 53zM930 829q-9 -64 1 -174q0 -9 31 6q2 15 2 92q0 64 -3 76h-31zM67 829v-174
q3 -1 3 4q0 4 2 5q3 -3 23 -3q2 0 4 -4q1 -3 3 -1v87q0 54 -1 86h-34zM186 1402q-92 0 -96 -1q-18 -6 -22 -33q-1 -8 -1 -56q0 -391 2 -475q7 -2 21 -1t21 0v-55q-1 -33 1 -52q228 -5 805 -2q2 17 1 55q0 38 2 55q37 -1 42 0q2 83 2 475q0 60 -2 66q-9 22 -39 25
q3 -1 -65 -1h-672zM940 14q-4 -1 -56 -1q-109 -1 -297 0h-287h-108q-110 0 -127 16q-13 19 -17 152q-2 80 3 257q0 6 -1 19q-2 14 -2 20v827q0 62 6 80q9 34 45 39h736q99 0 104 -2q23 -6 41 -39v-1248q0 -71 -3 -80q-8 -32 -37 -40zM994 1305q0 69 -4 81q-12 37 -47 46
q-10 2 -104 2h-745q-46 -8 -55 -53q-1 -7 -1 -82v-1247q23 -48 59 -52h841q42 7 53 55q3 10 3 80v1170z" />
    <glyph glyph-name="grave" unicode="`" 
d="M918 654q1 37 -1 53q-396 3 -805 0q-2 -17 -1 -54q0 -38 -2 -55q-48 -2 -42 -1v-472q0 -62 2 -66q7 -24 48 -28q-7 1 78 1h643q96 0 105 4q7 3 21 29v532q-5 2 -23 1q-16 0 -21 3q-2 16 -2 53zM930 829q-9 -64 1 -174q0 -9 31 6q2 15 2 92q0 64 -3 76h-31zM67 829v-174
q3 -1 3 4q0 4 2 5q3 -3 23 -3q2 0 4 -4q1 -3 3 -1v87q0 54 -1 86h-34zM186 1402q-92 0 -96 -1q-18 -6 -22 -33q-1 -8 -1 -56q0 -391 2 -475q7 -2 21 -1t21 0v-55q-1 -33 1 -52q228 -5 805 -2q2 17 1 55q0 38 2 55q37 -1 42 0q2 83 2 475q0 60 -2 66q-9 22 -39 25
q3 -1 -65 -1h-672zM940 14q-4 -1 -56 -1q-109 -1 -297 0h-287h-108q-110 0 -127 16q-13 19 -17 152q-2 80 3 257q0 6 -1 19q-2 14 -2 20v827q0 62 6 80q9 34 45 39h736q99 0 104 -2q23 -6 41 -39v-1248q0 -71 -3 -80q-8 -32 -37 -40zM994 1305q0 69 -4 81q-12 37 -47 46
q-10 2 -104 2h-745q-46 -8 -55 -53q-1 -7 -1 -82v-1247q23 -48 59 -52h841q42 7 53 55q3 10 3 80v1170z" />
    <glyph glyph-name="a" unicode="a" horiz-adv-x="1049" 
d="M440 710q-19 -18 -29 -63q-2 -8 -7 -38q-5 -24 -8 -37q38 -6 131 -5q91 1 121 -4q7 44 -29 147h-179zM522 1072q-61 -212 -82 -338q86 -12 171 0q-39 215 -89 338zM770 710q15 -87 61 -251q49 -175 65 -258q-22 -5 -64 -4q-61 1 -70 0q-19 25 -33 97q-14 74 -32 98h-334
q-23 -24 -38 -93q-17 -78 -31 -102q-10 1 -74 -1q-46 -1 -64 9q49 171 130 501q-12 4 -90 4q-8 0 -24 -1q-17 -1 -23 -2q-26 0 -30 11q1 15 26 15q7 0 24 -1q16 -2 23 -2h94q15 28 73 249q9 32 35 127q23 79 34 125q0 3 2 6q2 4 2 6h192q12 -49 34 -129q27 -103 35 -131
q58 -219 73 -253h94q7 0 23 1t23 2q25 0 31 -11q-7 -14 -32 -14q-7 0 -23 1t-22 1h-90zM318 1402q-15 0 -66 1q-45 2 -71 1q-80 -1 -99 -23v-537q4 -3 17 -5t16 -7q-16 -1 -33 -8v-163q6 -6 20 3q15 8 17 5q16 -30 0 -61q-4 -3 -19 -5q-14 -2 -18 -7q-12 -120 0 -252
q2 -25 -4 -75q-6 -51 -4 -76q14 -152 12 -146q113 -9 664 -9q179 0 215 13q14 142 4 545q-1 7 -18 8q-17 0 -18 8v53q39 16 36 0q6 25 5 75q-1 66 0 80q-3 9 -21 7q-17 -2 -16 5q-1 9 17 8q17 -1 15 8q5 71 5 428q0 8 1 35q1 22 0 34q-2 39 -22 57h-635zM879 16
q-23 -1 -63 1q-45 1 -58 1h-456q-15 0 -55 -2q-42 -2 -63 -2q-76 0 -98 16q-37 28 -24 330v891v106q6 50 37 65h671q14 0 59 1q40 1 62 1q70 -1 87 -18q23 -24 22 -156q-1 -38 -3 -104q-3 -62 -3 -78v-879q0 -136 -20 -155q-19 -17 -95 -18zM1002 1080q0 11 2 76q2 64 2 105
q0 137 -20 157q-17 16 -208 16h-447q-219 0 -232 -4q-42 -12 -47 -80q-2 -24 0 -66q2 -56 2 -69v-900q1 -23 -4 -73q-5 -53 -4 -77q3 -113 16 -131q21 -28 94 -32q-5 0 130 0h492q6 0 60 -2q40 -1 65 1q73 4 91 33q8 14 8 167v879z" />
    <glyph glyph-name="b" unicode="b" horiz-adv-x="1021" 
d="M343 644q1 -26 -1 -149q-1 -92 5 -144q9 1 132 -7q75 -4 116 15q58 28 75 108q18 80 -23 140q-29 44 -119 49q-28 2 -84 0q-62 -1 -89 0q-9 -4 -12 -12zM550 814q39 18 57 61q17 40 13 88q-5 47 -28 81q-25 38 -62 46q-29 6 -84 1q-60 -5 -91 -1q-9 -3 -12 -12
q1 -24 -1 -137q-1 -84 5 -131q209 7 203 4zM765 709q58 -78 56 -207q-2 -124 -56 -199q-63 -88 -232 -104q-60 -6 -324 2q-1 45 0 254q1 157 -4 249q-9 7 -54 4q-39 -4 -44 13q-3 -16 94 8q12 76 8 256q-4 179 8 255q57 -5 173 2q108 6 160 -2q75 -11 127 -65
q48 -51 66 -126q17 -74 1 -148q-16 -77 -64 -132q17 -39 108 -40q131 -3 135 -4q-1 -18 -27 -19q-8 0 -24 1q-16 2 -22 2h-85zM960 595q-3 5 -21 7q-17 2 -20 9v53q5 2 19 -4q12 -5 22 4v154q-2 9 -21 7q-17 -1 -16 5q0 9 17 8t16 9q6 104 5 264q-2 223 -1 267q-13 8 -20 21
h-853q-9 -4 -12 -12q-11 -272 0 -545q2 -5 18 -6q14 -1 14 -10q0 -1 -12 3q-13 4 -20 -3q-12 -88 0 -170q3 -3 17 7q14 11 19 5v-61q-4 -3 -21 -5q-15 -2 -19 -7v-431q0 -8 -1 -34q-1 -22 -1 -35q2 -38 22 -56h849q19 17 21 55q1 12 0 33q-1 26 -1 33v435zM857 15
q-22 0 -64 2q-41 1 -56 1h-455q-193 0 -211 17q-26 23 -26 151q0 38 3 102t3 79v707q0 18 -3 95q-2 66 -1 104q3 123 40 146q77 -1 442 1q271 2 431 -9q20 -52 20 -337v-715q0 -19 3 -84t3 -101q-1 -121 -30 -144q-22 -16 -99 -15zM988 205q0 988 -8 1202q-33 25 -94 27
q-19 0 -54 -1q-40 -2 -55 -2h-682q-45 -9 -53 -65q0 1 0 -118v-885q0 -22 -2 -85q-3 -67 -4 -102q-1 -123 23 -150q21 -23 98 -26q25 0 67 1q51 1 62 1h512q102 1 117 3q59 8 73 46v154z" />
    <glyph glyph-name="c" unicode="c" horiz-adv-x="1029" 
d="M593 718q22 12 150 12q153 0 179 4q3 0 4 -16q-118 -26 -248 0q-46 -20 -85 0zM267 371q-74 130 -89 335q-6 6 -37 3q-28 -2 -32 9q-2 17 22 14q36 -4 43 -2q13 200 87 333q87 158 242 179q124 17 220 -38q87 -50 130 -145q-62 -51 -118 -81q-107 113 -215 98
q-100 -15 -153 -121q-48 -94 -42 -221q35 -6 134 -4q92 3 130 -8q-38 -16 -125 -14q-118 3 -139 2q-7 -132 54 -234q67 -112 177 -112q48 0 96 29q16 10 41 28q30 23 38 28q22 -8 110 -77q-40 -88 -121 -135q-88 -51 -200 -40q-163 17 -253 174zM531 1402q-357 -3 -434 -1
l-25 -24q1 -48 0 -269q-1 -166 5 -264q3 -3 21 -5q15 -1 15 -11q-4 -4 -21 0q-15 4 -20 -4q1 -14 0 -84q-1 -52 5 -79q1 -4 16 4q15 7 20 0v-57q-3 -3 -22 -4q-15 -1 -14 -12q-7 -60 -4 -218q3 -146 -9 -213q8 -14 7 -63q-1 -43 18 -55q160 -6 424 -5q353 1 430 1
q7 13 20 20v537q-4 5 -21 7t-20 9q2 56 4 61q28 -19 37 -12v158q-2 9 -21 8q-17 -2 -16 5q1 8 16 8q18 0 21 4q-1 44 1 278q2 168 -9 271q-157 11 -424 9zM875 17q-23 -1 -64 0q-48 1 -59 1h-464q-14 0 -56 -1q-41 -2 -64 -2q-75 1 -96 20q-22 20 -23 139q0 36 1 97
q2 66 2 81v874q0 121 0 120q5 59 37 75h658q199 0 212 -8q29 -19 30 -142q0 -37 -3 -102q-3 -66 -3 -85v-887q0 -140 -16 -158q-18 -20 -92 -22zM991 1072q0 326 -12 341q-14 18 -86 21q13 -1 -117 -1h-451q-216 0 -232 -4q-30 -7 -39 -22q-8 -14 -10 -59v-1143
q0 -157 8 -170q17 -27 90 -32q5 -1 122 -1h492q10 0 60 -1q42 -1 67 -1q77 3 96 27q12 15 12 162v883z" />
    <glyph glyph-name="d" unicode="d" horiz-adv-x="1029" 
d="M295 697v-345q194 -19 306 80q107 95 113 273q-75 6 -203 5q-171 -1 -208 -1q-8 -2 -8 -12zM295 904q-1 -110 4 -174q37 0 210 -1q129 -1 205 5q-3 179 -112 277q-116 103 -307 72q1 -31 0 -179zM749 362q-107 -148 -291 -165q-1 0 -301 4q-1 80 0 245v255q-7 12 -32 8
q-27 -5 -29 -4v25q2 9 24 2q24 -8 33 2q6 88 4 250q-1 195 0 246q-6 1 -1 6t9 6q55 -3 160 1q95 3 141 -1q172 -16 280 -160q106 -140 106 -340q4 -13 31 -11q28 1 30 -5q4 -19 -21 -18q-31 2 -36 -3q-7 -207 -107 -343zM747 1401h-663l-25 -25q1 -48 0 -269q-1 -165 5 -263
q2 -5 22 -6q16 -1 14 -19q-34 22 -36 4q-13 -77 0 -158q5 -9 18 -1q14 8 18 1v-57q-3 -3 -22 -5q-15 -1 -14 -12q-5 -46 -5 -276q0 -226 13 -268q225 -14 862 -4q5 10 16 16q11 293 8 537q-4 6 -21 7q-19 1 -24 5q-8 14 0 61q40 -6 37 -8q-3 25 5 87q7 51 -5 79q-4 7 -20 4
q-15 -3 -17 0q5 4 24 5q17 1 21 8q3 209 -8 540q-32 17 -203 17zM970 193q0 -143 -16 -159q-20 -19 -97 -19q-23 0 -65 1q-43 2 -58 2h-467q-11 0 -59 -1q-40 -1 -63 -1q-73 3 -90 23q-12 15 -12 162q0 985 4 1192q21 28 110 31q29 1 78 -1q57 -2 72 -2h444q12 0 54 1
q38 2 60 1q72 -1 89 -18q23 -23 22 -156q0 -39 -3 -104q-3 -63 -3 -78v-874zM982 1071q0 13 3 76q3 64 3 103q0 135 -22 163q-15 18 -83 21q-23 1 -63 0q-55 -1 -65 -1h-448q-218 0 -231 -4q-37 -11 -44 -61q-1 -6 -1 -89v-1074q0 -157 8 -171q16 -26 86 -31q9 -1 126 -1
h492q10 0 61 -1q41 -1 66 -1q76 3 96 26q23 26 22 146q0 33 -3 101q-3 65 -3 91v707z" />
    <glyph glyph-name="e" unicode="e" horiz-adv-x="1038" 
d="M755 710h-112q-10 -2 -8 -24q1 -25 -4 -29h-216q-6 -47 -8 -305q65 -6 177 -5q150 1 181 1q-2 -23 2 -76q4 -47 -2 -71q-244 -11 -488 0q-6 93 -5 250q2 209 1 255q-23 6 -98 4q-9 0 -25 -3q-16 -2 -22 -2q-21 0 -18 21q2 12 22 10q3 -1 21 -3q13 -3 22 -3h49h45
q6 73 3 259q-3 172 9 254q44 -1 247 0q151 1 241 -4q1 -23 -3 -71q-3 -44 -1 -72q-63 -5 -172 -4q-147 1 -178 0q-5 -50 -4 -138q1 -118 0 -143q38 -5 107 -4q94 1 113 0q-3 6 4 -73q41 -6 149 -4q106 2 144 -4q-1 -18 -24 -19q-8 0 -20 1q-14 2 -17 2h-112zM951 603
q-19 1 -23 5v85q46 -35 32 -36q13 144 4 167q-4 7 -22 2q-15 -4 -14 6q2 8 20 8q20 0 24 4q-1 465 -8 545q-35 12 -207 12h-659q-9 -3 -12 -12q-13 -35 -13 -281q0 -220 5 -264q3 -4 21 -5q17 0 19 -7q-2 -3 4 -32q5 -25 -12 -29q-1 47 0 40q-3 21 -20 21q-20 -17 -19 -78
q1 -18 4 -51q2 -31 3 -42q3 -3 20 -2q14 2 16 -6q-4 -49 0 -45q-3 -4 -22 -5q-16 0 -14 -11q-14 -445 8 -545q157 -11 424 -9q358 2 434 1q24 20 28 113q4 70 1 220q-3 159 -1 224q-3 6 -21 7zM867 15q-23 0 -65 2q-43 1 -57 1h-460q-11 0 -52 -2q-40 -1 -63 -1
q-78 0 -97 19q-21 22 -20 154q0 40 2 104q2 63 2 76v871q0 13 -2 61q-1 35 1 54q5 52 42 64q13 4 224 4h431q195 0 207 -9q27 -17 29 -152q0 -42 -2 -105q-2 -67 -2 -76v-895q0 -90 -1 -96q-3 -45 -20 -59q-19 -15 -97 -15zM977 1418q-19 16 -208 16h-447q-221 0 -232 -4
q-35 -12 -42 -55q-3 -15 -3 -96v-1074q0 -157 8 -171q17 -28 92 -32q-6 0 120 0h488q13 0 62 -1q41 -1 65 -1q75 2 97 22q20 19 20 159v542v532q0 144 -20 163z" />
    <glyph glyph-name="f" unicode="f" horiz-adv-x="1049" 
d="M984 1267q-13 133 -12 130q-162 6 -428 5q-356 -1 -434 -1q-9 -3 -12 -12q-11 -96 -9 -267q2 -229 1 -278q-4 2 31 -6q19 -4 9 -18q0 -1 -16 6t-24 -2v-155q22 -5 34 -21q13 -17 6 -40q-4 -4 -19 -4q-17 0 -21 -4q0 -49 -1 -277q-1 -170 5 -272q35 -12 211 -12
q551 0 663 8q4 20 16 549q-4 6 -21 7q-19 2 -23 5v98q-50 5 -138 5q-118 -2 -143 -1q-5 -4 -4 -29q1 -22 -8 -24h-220q-7 -64 -3 -232q2 -155 -9 -227q-10 0 -66 -1q-40 -1 -60 5q-6 93 -5 249q2 210 1 255q-113 19 -159 -4q-5 11 -5 31q0 23 9 26q3 -33 59 -31q87 3 92 2
q6 81 4 257q-2 175 4 256q44 -1 250 0q155 1 246 -4q-1 -12 0 -76q1 -47 -4 -71q-31 0 -182 1q-111 1 -176 -5v-276q34 -6 116 -4t116 -4q7 -79 4 -74h145h136q1 -3 5 -43q3 -27 23 -26q14 23 16 82q3 62 -12 93q9 4 12 24v407zM996 206q0 -150 -8 -163q-14 -23 -88 -25
q-24 -1 -63 0q-52 1 -60 1h-472q-8 0 -49 -2t-66 -2q-85 0 -104 20q-23 23 -22 158q0 40 3 106q2 63 2 78v711q0 13 -3 77q-2 62 -2 101q1 128 34 148l12 4t224 4h439q188 0 203 -13q25 -19 25 -153q0 -41 -2 -103q-3 -63 -3 -73v-435v-439zM1009 1251q0 145 -17 163
q-15 17 -82 20h-576q-221 0 -232 -4q-44 -16 -49 -138q-1 -39 1 -103q3 -76 3 -89v-894q0 -158 8 -171q18 -30 92 -34q24 -1 63 0q52 1 57 1h488q14 0 60 -1q42 -1 65 -1q76 2 98 23q21 19 21 154v1074z" />
    <glyph glyph-name="g" unicode="g" horiz-adv-x="1024" 
d="M536 642q0 41 -5 63q-36 10 -111 9q-102 -2 -120 -1q-9 -3 -8 -12q-15 -154 73 -271q44 -59 101 -76q64 -20 134 14q50 24 78 76q31 57 24 127q-13 0 -86 -1q-53 -1 -81 5q0 9 1 67zM905 710q-24 5 -29 3q1 -175 -72 -317q-76 -149 -196 -187q-64 -20 -143 -8
q-76 12 -129 49q-174 122 -191 459q-8 8 -28 0q-16 -7 -16 8q-2 18 10 12q21 -8 30 -4q19 169 41 247q34 123 105 187q114 103 300 73q84 -14 145 -57q66 -47 87 -117l-121 -98q-93 133 -228 114q-100 -14 -146 -122q-40 -92 -32 -227q83 3 296 -4q200 -6 292 0q5 0 22 7
q10 4 15 -3q3 -18 -12 -15zM746 1403h-430q-219 0 -248 -16q-5 -100 -4 -268q1 -224 0 -272q2 -7 19 -7q17 -1 18 -10q-3 -5 -18 -4q-16 1 -19 -4v-158q6 -10 22 -3t19 -1v-53q-4 -4 -21 -4q-16 0 -20 -4v-540q17 -25 100 -27q26 -1 71 1q51 2 65 2h438q172 0 207 12
q11 101 10 273q-2 245 -2 275q-2 7 -18 8q-19 0 -22 4v53q4 3 21 -1q15 -3 19 5q0 13 1 82q1 50 -5 76q-4 8 -21 4q-15 -4 -15 4q1 8 20 9q18 1 20 8q-1 47 1 277q2 171 -9 267q-33 12 -199 12zM60 31q-16 51 -16 345v714q0 14 -3 87q-2 64 -1 103q3 124 40 135q14 4 232 4
h438q171 0 207 -12q17 -58 17 -341v-702q0 -277 -21 -333q-448 -22 -893 0zM978 1395q-26 34 -85 38q-20 1 -55 0q-45 -2 -55 -2h-695q-46 -11 -53 -75q1 6 1 -132v-1031q0 -147 12 -162q21 -27 99 -31q26 -1 70 1q57 1 70 1h480q7 0 58 -1q38 -1 62 0q69 4 87 34
q8 14 8 162q0 980 -4 1198z" />
    <glyph glyph-name="h" unicode="h" horiz-adv-x="1035" 
d="M284 23q-15 0 -53 -2q-43 -3 -62 -3q-75 -2 -96 13q-30 22 -30 144q0 36 3 99q3 64 3 82v873q0 9 -1 52q-1 34 0 53q2 59 21 74q61 12 459 12h231q169 0 208 -16q12 -60 12 -342v-877q0 -126 -21 -154q-121 -8 -674 -8zM873 1433q-24 1 -66 0q-52 -1 -64 -1h-455
q-11 0 -64 1q-44 1 -70 1q-81 -2 -89 -22q-23 -8 -26 -66q-1 -19 0 -53q2 -41 2 -52v-873q0 -18 -3 -78q-3 -65 -3 -101q-2 -129 18 -158q19 -28 96 -31q25 -1 65 1q49 2 58 2h496q12 0 62 -2q39 -2 61 0q66 4 92 38q4 173 4 1036q0 21 3 83q3 66 4 100q2 124 -23 150
q-22 23 -98 25zM828 451q2 -216 1 -258q-27 4 -66 2q-38 -2 -64 2q-6 84 -5 225q1 189 1 230q-65 6 -177 5q-149 -1 -181 -1q-6 -71 -4 -229t-4 -230q-23 -6 -66 -4q-48 3 -64 0q-1 43 1 254q1 165 -5 258q-8 12 -49 7q-38 -4 -40 9q1 9 37 3q39 -8 52 5q6 93 5 259
q-2 210 -1 253q11 -1 68 1q41 0 62 -5q6 -78 4 -212q-2 -158 0 -210q65 -6 176 -5q150 1 181 1q7 67 5 215t4 215h130q0 -43 -1 -251q-1 -165 5 -257q16 -12 52 -12q3 0 25 8q13 5 12 -8q2 -16 -32 -10q-42 8 -53 -2q-11 -89 -9 -258zM958 595q-4 10 -21 7q-16 -3 -19 6
q6 69 4 65q1 -1 19 -13q13 -9 13 0q6 27 5 79q-1 69 -1 84q-2 5 -20 3q-17 -1 -16 9q3 4 20 5q14 1 16 7q0 48 1 273q1 167 -5 267q-32 17 -199 17h-438q-18 0 -72 1q-47 2 -74 1q-83 -1 -102 -27v-536q3 -3 21 -3q16 0 16 -9q-3 -5 -18 -4q-16 1 -19 -4q1 -14 0 -84
q-1 -52 4 -79q1 -1 15 6q14 8 22 -2v-60q-4 -5 -21 -5q-16 1 -20 -4q2 -47 -1 -279q-2 -172 9 -269q36 -12 207 -12q551 0 662 8q12 30 12 171v381z" />
    <glyph glyph-name="i" unicode="i" horiz-adv-x="1021" 
d="M427 725q12 76 8 257t8 258h126q1 -46 -1 -256q0 -158 5 -251q91 -24 276 -12l61 4q2 -16 -23 -16q-8 0 -24 2q-16 1 -22 2h-132q-94 -1 -132 0q-11 -91 -9 -253q2 -217 1 -262q-67 -13 -134 0v506q-58 12 -271 9q-7 -1 -22 -2q-15 -2 -21 -3q-23 -1 -26 13q-2 12 10 10
q4 -1 10 -4q6 -2 8 -2q120 -12 304 0zM78 838q17 -2 17 -12q-2 0 -21 1q-13 0 -12 -9q-12 -78 0 -166q10 -1 19 7q9 9 18 9v-61q-5 -3 -24 -4q-18 -1 -21 -8q6 -79 4 -265q-2 -188 4 -274q3 -4 15 -9q11 -5 14 -12h656q15 0 53 -1q34 -2 53 -1q60 1 93 23q0 39 1 274
q1 162 -5 269q-2 7 -18 4q-15 -3 -14 0q-10 20 0 69q3 -8 16 -13q12 -5 20 1v162q-2 5 -21 4q-16 -2 -15 8q3 4 19 5q15 1 17 7v536q-33 22 -92 23q-18 0 -53 -1q-38 -2 -54 -2h-437q-222 0 -248 -16q-6 -82 -4 -240q3 -178 0 -239q-2 -55 0 -61q3 -5 20 -8zM881 1432
q-22 1 -58 0q-48 -2 -59 -2h-495q-17 0 -63 2q-40 2 -62 2q-69 -2 -94 -32q31 13 61 16h422q343 0 413 -8q20 -31 20 -154v-1067q0 -11 2 -41q1 -27 0 -42q-1 -48 -22 -75q-443 -21 -888 0q-20 55 -20 325v1013q3 4 12 33q-21 -14 -22 -71q-1 -18 0 -51q2 -39 2 -53
q0 -984 4 -1188q27 -34 93 -38q22 -1 60 0q49 2 62 2h502q14 0 63 -2q39 -2 61 0q68 3 95 38q11 678 0 1355q-26 34 -89 38z" />
    <glyph glyph-name="j" unicode="j" horiz-adv-x="1052" 
d="M733 708q10 -252 -81 -384q-102 -149 -321 -123q1 13 0 78q-1 48 4 72q152 -30 217 80q56 95 39 277q-81 6 -241 4q-191 -1 -230 0q-2 19 22 16q5 -1 23 -4q16 -3 24 -4q59 -2 77 8q78 -14 321 -4q6 73 3 260q-3 173 9 255h126q5 -93 4 -251q-1 -210 0 -256
q49 -23 170 -12q-3 0 23 8q14 4 13 -8q5 -15 -10 -13q-4 0 -14 3q-9 2 -12 2q-119 3 -166 -4zM972 1381q-10 19 -79 22q-22 0 -60 -1q-47 -1 -56 -1h-434q-224 0 -255 -16q-11 -271 0 -539q0 -9 20 -8q19 0 16 -12q-1 -1 -23 0q-14 1 -13 -9q-12 -75 0 -162q3 -5 16 4
q14 10 20 0v-52q-36 -31 -36 -21q-11 -210 0 -531q35 -21 96 -23q19 0 55 1q39 2 56 2h454q182 0 219 12q12 136 12 543q-5 3 -23 7q-16 4 -22 10q-5 11 0 60q42 -4 37 -8q-2 23 5 85q6 49 -5 78q-3 4 -19 3q-15 -1 -18 5q2 8 22 8q21 0 23 8q-1 55 0 183q2 121 0 178
q-6 169 -8 174zM299 23q-13 0 -54 -2t-64 -2q-79 0 -97 16q-23 20 -22 147q0 36 3 102q3 64 3 83v431v441q0 11 -2 54q-1 35 0 54q3 57 30 58q9 12 12 13h669q10 0 52 1q39 1 62 0q74 -1 89 -18q12 -13 12 -166v-1050q0 -125 -20 -154q-111 -8 -673 -8zM1000 1389
q-23 36 -82 41q5 0 -108 0h-463q-20 0 -82 2q-55 3 -85 2q-97 -3 -116 -37q-8 -14 -8 -162v-868q0 -23 -3 -85q-3 -67 -3 -100q-2 -123 18 -151q17 -26 87 -29q24 -2 64 -1q56 1 64 1h486q11 0 60 -1q41 -1 66 -1q78 3 97 27q12 16 12 158q0 985 -4 1204z" />
    <glyph glyph-name="k" unicode="k" horiz-adv-x="1038" 
d="M597 710q41 -92 123 -257q88 -174 125 -255q-107 -9 -147 0q-46 67 -117 212q-73 151 -114 215q-20 -14 -74 -102q-7 -12 -32 -56q-19 -34 -33 -54q0 -19 1 -110q1 -68 -5 -105q-63 -12 -134 0q-6 96 -4 259q3 182 0 253q-71 17 -69 -16q-9 3 -9 26q0 19 5 31
q3 -19 26 -26q22 -6 43 1q8 82 5 252q-4 178 3 264h134q9 -326 4 -451q0 -6 -2 -18t-2 -18q-2 -20 13 -29q20 -3 34 17q4 7 10 19q7 14 8 17q13 23 277 463h158q-47 -86 -133 -226q-100 -165 -135 -225q10 -29 33 -65q4 0 142 -5q93 -4 142 1q-1 0 29 8q17 4 24 -4
q2 -15 -23 -15q-8 0 -24 1q-16 2 -22 2q-193 2 -260 -4zM320 1405q-214 0 -244 -16q-10 -273 0 -541q1 -9 21 -8t20 -8q10 -52 -4 -73q-3 5 -3 43q0 29 -21 26q-16 -4 -18 -28v-22q1 -18 1 -23q0 -75 4 -90q6 -7 23 -6q16 0 18 -6q8 -28 -9 -41q-4 -3 -16 -10
q-11 -5 -16 -10q-5 -97 -4 -260q1 -217 0 -264q18 -33 101 -36q26 -1 73 1q55 2 70 2h439q170 0 203 16q16 94 14 263q-3 242 -1 278q-3 9 -22 11q-20 2 -23 9v61q14 -11 16 -12q9 -4 20 4q0 14 7 82q5 48 -7 77q-3 6 -22 3q-16 -3 -14 5t22 8q20 1 23 8q-1 52 0 177
q1 120 0 177q-1 18 -5 55q-4 35 -4 50q1 10 3 33q2 18 1 27q-2 28 -28 38h-618zM983 198q0 -133 -12 -163q-43 -14 -212 -12q-672 7 -683 8q-20 28 -22 76q0 15 1 41q1 32 1 42v890q0 17 -2 86q-1 61 -1 98q2 117 28 149q110 8 678 8q194 0 208 -12q23 -21 22 -155
q-1 -40 -4 -105q-2 -63 -2 -77v-874zM950 1433q-77 0 -429 1q-264 1 -424 -5q-41 -17 -49 -44q-4 -183 -4 -1033q0 -21 -3 -84q-3 -64 -3 -99q0 -120 26 -146q22 -21 99 -23q24 0 66 1q46 2 59 2h487q13 0 62 -2q37 -1 59 0q63 4 91 34q13 356 4 1358q-23 17 -41 40z" />
    <glyph glyph-name="l" unicode="l" horiz-adv-x="1027" 
d="M958 1315q0 23 -1 33q-3 35 -22 50q-115 4 -666 4q-15 0 -54 2q-35 1 -54 1q-61 -2 -95 -23v-540q3 -4 23 -4q17 1 18 -8q2 -86 8 -105q74 -14 126 4q11 81 8 253q-3 186 4 258q11 -1 67 0q42 1 63 -4q1 -46 -1 -258q-1 -159 5 -253q381 -8 483 -5q3 1 11 2q9 3 13 3
q17 2 20 -9q-77 -6 -263 -4q-187 2 -268 -4q0 -31 -1 -181q-1 -111 5 -176q34 -1 193 1q119 1 188 -5q-3 -25 2 -83q5 -49 -2 -67q-260 -11 -519 0q-1 45 0 258q1 159 -4 253q10 -2 -118 4q-10 3 -16 -13q-4 -13 -12 -7q1 82 4 122q-4 15 -33 12q-5 -28 -4 -81q1 -71 0 -85
q4 -4 19 -2q13 2 18 -7q0 -5 3 -23q2 -14 1 -25q-7 -5 -21 -2q-13 3 -20 -2v-540q15 -10 25 -24q75 1 431 -1q265 -2 421 9q-4 -18 16 548q-6 7 -23 7q-16 -1 -22 9q1 7 0 45q-1 28 4 40q11 -34 29 -36q10 150 4 166q-6 9 -22 1q-14 -7 -15 3q-1 12 18 13q23 0 27 3
q-4 65 1 223q4 150 -1 215q-1 12 -1 35zM864 17q-22 1 -63 3q-39 3 -53 3h-459q-206 0 -219 8q-28 17 -29 151q0 41 3 106q2 67 2 79v897v94q6 45 45 56q13 4 227 4h438q189 0 203 -16q12 -14 12 -162v-1047q0 -146 -12 -158q-19 -19 -95 -18zM983 1078q0 16 3 79
q3 65 3 103q1 130 -26 154q-21 20 -93 20q-21 0 -60 -2q-40 -1 -54 -1q-559 0 -673 -5q-43 -15 -50 -69q1 3 1 -125v-877q0 -25 -3 -91q-2 -66 -2 -100q0 -117 25 -141q20 -20 95 -22q24 -1 65 0q48 1 59 1h479q12 0 61 -1q41 -1 65 -1q74 3 93 27q12 15 12 162v889z" />
    <glyph glyph-name="m" unicode="m" 
d="M524 619q25 61 20 86q-11 3 -27 2t-26 2q17 -80 33 -90zM756 729q-1 18 1 109q2 68 -9 99q-15 -38 -34 -103q-24 -83 -31 -105q36 -15 73 0zM271 729q15 -5 39 -5q27 0 34 9q-6 17 -32 108q-19 67 -41 100v-212zM890 451q1 -210 0 -256q-69 -12 -130 0q-6 93 -5 250
q2 210 1 256q6 -3 -73 4q-39 -91 -84 -246q-66 -228 -75 -256q-38 94 -87 248q-71 225 -80 254h-82q-6 -81 -4 -255q2 -175 -4 -255q-65 -12 -130 0q-6 93 -5 248q1 209 0 254q1 8 -16 7q-16 0 -12 13q-2 14 9 10q16 -4 19 2v497q4 9 13 12h175q30 -77 83 -257
q50 -172 84 -256h65q37 92 84 254q59 201 79 259h171q6 -91 5 -246q-1 -206 -1 -251q0 -14 17 -14q16 0 16 -10q5 -13 -10 -12q-17 0 -19 -4q-5 -94 -4 -250zM316 1405q-19 0 -72 2q-46 1 -71 1q-80 -2 -106 -23q-1 -137 0 -366q1 -244 0 -359q5 -5 23 0q16 5 18 -4v-49
q-3 -7 -23 -9q-19 -3 -18 -16q1 -32 0 -264q-1 -171 4 -269q35 -17 212 -17h457q180 0 216 17q5 99 4 266q-1 223 0 271q-2 9 -20 12q-19 2 -21 9v57q5 5 16 -6t21 -2q12 132 -5 179q11 12 13 37q2 43 -1 125q-3 107 -3 140q0 220 -13 260q-103 8 -631 8zM862 9q-23 0 -65 1
q-43 2 -57 2h-465q-11 0 -59 -1q-39 -1 -63 -1q-72 3 -90 22q-21 23 -20 145q0 35 2 99q2 63 2 82v856q0 14 -2 68q-1 38 1 58q4 57 38 78q78 -1 436 0q268 1 431 -4q26 -24 30 -71q-1 7 -1 -84v-893q0 -21 3 -85q3 -67 3 -102q1 -124 -26 -151q-20 -19 -98 -19zM988 1063
q0 16 3 78q3 67 4 106q2 137 -19 163q-16 19 -90 21q-23 1 -62 0q-49 -1 -56 -1q-145 0 -343 2q-235 2 -293 2q-67 -3 -85 -37q-5 -9 -12 -252q-5 -161 -1 -461q5 -410 5 -497q0 -153 12 -167q17 -20 99 -20q25 0 66 2t51 2q575 0 697 8q23 25 25 72q1 15 0 41q-1 34 -1 42
v896z" />
    <glyph glyph-name="n" unicode="n" horiz-adv-x="1043" 
d="M709 513q12 96 0 192q-82 2 -89 4q24 -108 89 -196zM444 730q-48 135 -106 228q-11 -114 0 -228q53 -14 106 0zM847 453q2 -212 1 -258q-81 -12 -151 0q-49 93 -120 253q-89 200 -117 257h-122q-5 -94 -4 -252q1 -212 0 -258q-67 -12 -135 0v506q-7 7 -47 3
q-35 -3 -38 13q0 13 34 9q39 -4 47 4q7 72 4 257q-3 171 9 252h163q211 -464 236 -514q8 1 54 0q33 -1 48 5q6 80 4 254q-2 175 4 255h127q5 -93 4 -250q-1 -210 0 -255q7 -12 45 -8q37 3 41 -5q0 -19 -32 -17q-46 2 -50 1q-6 -94 -5 -252zM326 1406q-219 0 -245 -16
q-6 -137 -4 -369q2 -273 0 -361q5 -6 22 1q16 6 19 -5v-49q-2 -7 -23 -9q-19 -2 -18 -15v-274q0 -13 -2 -61q-3 -53 -4 -81q-2 -103 18 -123q16 -15 93 -15q23 0 65 2q41 1 54 1h453q179 0 212 16q6 100 5 267q-1 223 -1 272q-35 20 -34 19q-15 15 -7 46q2 8 19 6
q18 -3 22 6q-1 12 1 91q1 56 -9 81q8 45 8 281q0 237 -12 281q-104 8 -632 8zM996 1241q1 59 -3 98q2 -54 3 -98zM996 1241q0 -37 -3 -98q-2 -57 -2 -71v-709q0 -21 2 -85q3 -66 4 -102q0 -124 -27 -148q-20 -18 -95 -19q-23 0 -64 1q-43 2 -57 2h-465q-194 0 -212 16
q-27 24 -26 148q0 37 3 101q3 63 3 81v877v114q5 54 36 70h665q200 0 212 -8q17 -12 23 -72q-2 61 -2 67q-42 26 -122 28q-26 0 -72 -1q-51 -2 -71 -2h-490q-158 0 -175 -20q-12 -15 -12 -164v-893q0 -14 -3 -80q-3 -65 -3 -105q0 -133 26 -153q20 -16 97 -16q22 0 65 2
q42 2 58 2h465q15 0 57 -2q43 -2 66 -2q81 0 101 16q28 21 27 142q0 35 -3 103q-3 65 -3 89q0 783 -3 891z" />
    <glyph glyph-name="o" unicode="o" horiz-adv-x="1027" 
d="M793 360q-91 -151 -257 -168q-33 -4 -61 0q-311 38 -342 505q1 9 -19 7q-19 -1 -18 9q4 -21 37 16q11 237 106 379q44 66 127 103q94 42 199 27q147 -21 233 -171q79 -138 80 -334q1 -11 20 -7q18 4 17 -5q-8 22 -37 -20q-2 -205 -85 -341zM911 660q3 6 19 -2q14 -7 17 6
q10 422 0 725q-32 16 -199 16h-648q-41 -8 -46 -57q-1 -14 6 -98q2 -24 -5 -88q-7 -63 -3 -99q21 -244 16 -232q-17 -43 -4 -171q6 -8 19 -1t13 5q3 -5 4 -61q-43 -24 -40 -16q0 -48 -1 -272q-1 -166 5 -266q34 -16 212 -16h456q181 0 215 16q6 91 5 270q-2 181 3 268
q-3 7 -23 10q-20 4 -21 14v49zM271 697q1 -100 27 -182q28 -87 75 -124q69 -53 143 -48q68 5 125 57q56 51 84 130q29 82 19 171q-73 6 -232 4q-160 -2 -232 4q-9 -3 -9 -12zM691 986q-65 113 -196 110q-91 -3 -154 -82q-85 -105 -65 -289q41 1 236 0q146 -1 232 4
q3 160 -53 257zM864 11q-24 -1 -64 0q-48 2 -60 2h-464q-14 0 -57 -2q-41 -1 -64 -1q-75 1 -95 19q-28 25 -27 199q0 51 3 134q3 82 3 98v746q-3 183 25 203q111 8 684 8q194 0 207 -12q24 -20 23 -156q-1 -39 -4 -105q-2 -63 -2 -77v-875q0 -141 -17 -159q-18 -20 -91 -22z
M980 1063q0 21 3 84q3 69 4 104q2 130 -19 158q-18 24 -78 25q-108 1 -325 -2q-255 -3 -334 -3q-12 0 -51 2q-32 1 -50 0q-57 -2 -91 -26q-8 -189 -8 -1046q0 -20 -3 -83q-2 -67 -3 -104q-1 -128 23 -151q18 -19 94 -19q24 -1 66 1q44 1 59 1h473q15 0 57 -2q43 -2 66 -2
q81 -1 101 17q16 14 16 158v888z" />
    <glyph glyph-name="p" unicode="p" horiz-adv-x="1035" 
d="M773 702q-6 -3 -72 -51q-47 -33 -87 -42q-42 -9 -130 -5q-91 5 -138 -3q-5 -74 -4 -201q1 -169 0 -205q-67 -13 -134 0v503q-11 6 -61 4q-40 -1 -41 17q3 11 36 6q43 -7 58 -2q12 76 8 256t8 256q16 -1 255 2q145 2 212 -31q73 -35 112 -122q37 -80 35 -178q0 6 -41 -179
q19 -7 74 -4q54 3 60 0q3 -21 -21 -23q-8 0 -22 1q-17 1 -22 1h-85zM952 1389q-17 16 -89 16q-22 0 -61 -2q-40 -2 -54 -2h-646q-8 -5 -32 -32q0 -35 -1 -367q0 -212 5 -344q3 -6 18 0q15 7 18 0v-57q-43 -24 -40 -16v-281q0 -226 16 -268q112 -4 654 -4q13 0 54 -2
q42 -1 65 -1q79 -1 93 15q9 12 9 50q-1 66 -1 60q13 198 8 435q-4 6 -25 7q-20 1 -24 9q1 45 4 53q47 17 45 12q-11 159 -12 163q9 7 12 36q16 139 0 329q-17 191 -16 191zM342 1072q1 -28 0 -161q-1 -99 4 -156q3 1 173 -1q98 -2 136 38q34 35 37 116q3 82 -29 128
q-31 44 -127 49q-28 1 -89 0q-62 -2 -93 -1q-9 -3 -12 -12zM869 9q-23 -1 -64 1q-43 2 -57 2h-463q-13 0 -58 -2q-41 -1 -64 -1q-76 1 -93 19q-22 22 -21 150q0 39 2 102q3 62 3 77v862q0 9 -2 62q-1 37 1 58q4 60 33 75h671q14 0 59 1q39 1 61 1q70 -2 87 -19
q15 -15 17 -69q1 -18 0 -48q-1 -37 -1 -45v-435v-439q0 -22 3 -84q3 -67 4 -101q1 -124 -23 -148q-19 -19 -95 -19zM992 1064q0 17 3 82q3 66 3 105q1 134 -26 159q-35 31 -193 18q-165 -13 -197 6q-40 -8 -277 -8q-15 0 -61 3q-47 2 -73 2q-90 1 -113 -25q-17 -18 -17 -159
v-882q0 -13 -2 -75q-2 -66 -3 -106q-1 -137 18 -160q17 -22 93 -23q23 -1 64 1q45 2 58 2h475q16 0 59 -2q45 -2 68 -2q82 0 101 16q26 21 26 149q0 38 -3 105t-3 87v707z" />
    <glyph glyph-name="q" unicode="q" horiz-adv-x="1027" 
d="M753 383q8 -20 31 -51q23 -32 30 -51q-26 -42 -93 -81q-60 88 -65 93q-214 -87 -361 56q-131 128 -143 355q-18 5 -36 -4t-21 -8v44q1 0 21 -9q18 -8 36 -3q5 228 91 366q104 166 303 146q150 -15 234 -163q78 -140 71 -341q5 -10 30 -8q28 2 31 0q5 -21 -17 -21
q-46 -1 -40 1q-23 -221 -102 -321zM108 767q0 -19 -13 -19q3 40 4 41q9 -4 9 -22zM102 816q3 -2 5 -3q1 -3 -2 -7q-2 -5 -2 -9q-9 1 -8 21q4 0 7 -2zM954 1356q2 19 -10 30q-34 17 -199 17h-430q-20 0 -75 2q-49 1 -74 1q-82 -3 -103 -32q-9 -78 -4 -225q6 -153 0 -218
q-1 -7 -6 -26q-3 -16 -3 -27q1 -7 8 -23q8 -16 9 -25q0 -4 -4 -17t-4 -20q-5 -67 4 -130q1 -10 15 -5q17 4 21 -3v-49q-1 -8 -20 -8q-18 -1 -16 -12q-4 -69 -4 -410q0 -118 12 -130q15 -16 89 -16q22 0 62 2q39 1 52 1h654q20 14 24 41q-1 -4 0 53q7 295 4 463q-3 6 -21 7
q-19 1 -23 5v61q3 -1 10 -3q6 -3 9 -3q11 -3 17 6q0 5 8 88q5 52 -12 79q9 7 12 36q10 79 2 230q-10 190 -10 225q0 -8 6 35zM286 692q1 -142 81 -229q85 -93 208 -48q-15 35 -52 87q-40 55 -54 84q53 67 89 85q14 -16 56 -84q34 -53 62 -78q50 57 53 191q-221 11 -443 0v-8
zM322 977q-46 -101 -32 -253q40 1 222 0q137 -1 217 4q10 161 -47 267q-65 123 -197 107q-111 -14 -163 -125zM863 10q-24 0 -64 1q-45 2 -58 2h-467q-14 0 -58 -1q-41 -2 -64 -1q-76 0 -93 18q-24 25 -23 143q1 33 4 101q2 64 2 90v873q0 116 0 109q5 55 37 70q77 -2 442 1
q272 2 431 -9q17 -31 17 -163v-1048q0 -147 -13 -163q-17 -21 -93 -23zM981 1065q0 24 3 88q3 68 3 103q1 124 -22 151q-27 30 -139 27q-24 -1 -87 -5q-49 -3 -67 -2q-45 2 -126 3q-122 1 -142 1q-26 -4 -183 -4q-154 0 -166 -8q-20 -13 -24 -64q-1 -11 -1 -91v-552v-540
q0 -9 -1 -43q-1 -27 0 -43q3 -47 26 -73q119 -8 686 -8q15 0 55 -2q42 -3 64 -3q78 -1 101 17q25 21 25 145q0 37 -3 102q-2 66 -2 86v715z" />
    <glyph glyph-name="r" unicode="r" horiz-adv-x="1038" 
d="M879 10q-24 -1 -65 1q-44 1 -55 1h-229q-378 0 -450 12q-19 28 -21 76q-1 16 0 42q1 33 1 42v1079v92q4 46 28 59q16 8 217 8h445q206 0 229 -12q13 -34 13 -348v-703q0 -20 2 -83q3 -66 3 -101q1 -124 -22 -147q-18 -17 -96 -18zM1004 1242q0 156 -12 168q-4 3 -11 7
q-7 3 -10 5q-12 10 -221 12h-457q-186 0 -221 -12q-22 -26 -25 -72q0 5 0 -83v-908q0 -19 -3 -85q-3 -68 -3 -105q-1 -130 27 -153q20 -16 99 -16q23 0 66 2q41 2 56 2h470q209 0 224 12q21 17 21 155v1071zM958 600q-19 1 -24 5v98q-25 -2 -84 6q-51 7 -75 2
q-23 -5 -57 -39q-33 -35 -53 -39q21 -75 86 -223q62 -141 81 -218q-10 0 -72 -1q-44 0 -67 5q-24 54 -87 205q-55 129 -89 204q-81 11 -163 0q-6 -64 -4 -205t-4 -204q-113 -13 -139 8q-4 81 4 251q7 154 0 248q1 0 -82 4q-14 -38 -12 -106q-3 -1 -12 0q-8 0 -12 -1
q-13 -1 -13 -12v-539q34 -16 209 -16h457q13 0 56 -2t66 -2q81 0 95 16q8 10 16 110q5 64 1 214q-4 159 -1 223q-4 7 -21 8zM354 1079q-11 -157 0 -319q33 2 91 1q68 -2 90 -1q99 2 134 41q53 60 30 166q-24 108 -100 124q-41 9 -114 2q-79 -8 -123 -2q-8 -3 -8 -12z
M934 834h13q-4 -18 -13 -17v17zM114 731q-4 61 7 74q2 -6 1 -38q0 -28 7 -40q85 8 78 4q13 79 4 247q-10 179 0 264q58 -4 152 -1q122 4 148 4q165 -2 235 -64q74 -65 88 -205q15 -141 -43 -245q22 -5 74 -4q59 1 69 0q6 -6 7 -38q1 -27 14 -31q23 22 25 82q1 53 -13 94
q12 29 12 220q0 248 -12 339q-33 17 -200 17q-569 0 -675 -8q-12 -30 -12 -184v-483q0 -3 -2 -21q-2 -16 -1 -26q2 -30 28 -30q13 13 9 73z" />
    <glyph glyph-name="s" unicode="s" horiz-adv-x="1024" 
d="M976 198q0 -142 -16 -159q-18 -17 -92 -18q-23 -1 -64 1q-45 1 -60 1h-459q-15 0 -54 -2q-44 -2 -65 -3q-81 -2 -101 13q-23 18 -22 154q0 39 3 106q3 63 3 78v878q0 10 -1 44q-1 29 -1 46q1 52 18 69q17 16 90 18q23 0 63 -1q45 -1 58 -1h456q194 0 219 -8
q23 -11 26 -70q1 -20 0 -56q-1 -49 -1 -57v-1033zM988 1235q0 156 -12 167q-10 9 -21 16q-23 16 -219 16h-464q-203 0 -219 -16q-25 -25 -23 -148q0 -34 3 -100q4 -61 4 -81v-1041q23 -38 85 -45h118h496q13 0 60 -2q43 -1 68 -1q81 2 104 23q20 19 20 155v1057zM924 790
q0 -20 -5 -31q-8 9 -4 57q8 -5 9 -26zM937 604q-16 -1 -18 5q-1 22 -4 53q-4 32 -4 48q-111 12 -216 0q124 -162 94 -309q-15 -71 -84 -130q-67 -57 -148 -69q-187 -27 -329 81q9 19 25 73q14 48 27 70q72 -69 203 -73q139 -5 172 81q20 55 0 106q-18 42 -102 101
q-95 67 -130 73q-51 10 -148 2q-102 -8 -153 -2q-10 3 -14 -10q-4 -11 -10 -6q14 40 12 37q199 -11 280 4q-86 68 -123 130q-53 91 -31 203q15 66 80 111q60 42 146 56q84 14 161 -4q83 -19 129 -69q-3 -11 -17 -70q-11 -43 -19 -68q-65 58 -200 58q-62 0 -103 -18
q-45 -21 -51 -61q-7 -48 57 -110q18 -18 166 -113q89 -58 86 -57q36 -7 125 2q95 9 127 6q0 -1 -3 -42q-1 -22 11 -31q10 2 20 0q6 26 5 78q-1 70 -1 84q-3 7 -22 3q-16 -3 -14 5q0 9 16 9q18 -1 20 4v540q-32 22 -91 23q-19 1 -53 -1q-39 -1 -55 -1h-658q-29 -8 -33 -34
q0 2 0 -56q0 -42 -4 -228q-3 -151 0 -243q3 -3 29 -4q19 -1 16 -17q-1 -2 -16 3t-21 -3q-8 -20 4 -162q16 -7 23 11q6 16 10 13v-77q-47 -20 -45 -17q6 -476 16 -540q575 -11 602 -8q31 3 147 -2q87 -4 125 14q6 105 5 269q-1 227 -1 276q-2 4 -18 3z" />
    <glyph glyph-name="t" unicode="t" horiz-adv-x="1032" 
d="M743 714q-94 1 -148 -4q-6 -80 -4 -254q2 -175 -4 -255h-142q-6 80 -4 255q2 174 -4 254q-257 7 -309 4q4 0 -15 -7q-8 -3 -6 11q-4 16 10 15q4 0 12 -1q8 -2 11 -2q16 0 146 -2q91 -3 151 6q11 179 0 354q-36 6 -122 4t-122 4v146h642q13 -73 0 -146q-41 -5 -115 -5
q-100 2 -121 1q-11 -59 -9 -172q3 -151 1 -182q53 -11 154 -9q137 2 163 1q6 10 5 43q-2 32 3 42q11 -15 10 -58q-3 -58 -1 -68q-10 0 -14 13t-15 12q-27 -1 -153 0zM939 604q-16 -1 -18 4v49q6 4 21 4q11 1 15 8q12 74 0 155q-5 7 -23 2q-16 -4 -18 6q1 9 23 8q20 -1 18 12
q10 397 -4 541q-34 12 -203 12h-431q-222 0 -248 -16q-7 -84 -9 -541q3 -8 25 -8q21 0 20 -12q1 0 -25 2q-11 0 -15 -11q-2 -7 4 -183q14 -1 22 13q9 18 14 20q1 -41 -7 -54q-6 -8 -38 -23q14 -553 13 -541q103 -14 331 -9q235 5 344 -7q29 10 90 9q88 -2 101 -1
q19 17 22 55q0 12 -1 33q-1 26 -1 34q0 363 -4 435q-2 5 -18 4zM67 31q-17 51 -17 341v716q0 19 -2 86q-3 64 -3 101q2 119 34 138q22 14 104 12q22 0 69 -2q44 -2 63 -2h435q196 0 207 -8q27 -19 27 -149q-1 -38 -4 -105q-3 -65 -3 -83v-891q0 -9 2 -40q1 -26 0 -41
q-2 -47 -22 -73q-444 -22 -890 0zM990 1072q0 12 2 74q3 64 4 105q1 137 -23 162q-16 18 -83 21q3 0 -120 0h-455q-219 0 -232 -4q-38 -12 -44 -58q-1 -3 -1 -97v-878q0 -21 -3 -87q-3 -71 -3 -109q-2 -136 18 -166q18 -27 85 -32q9 -1 127 -1h488q12 0 62 -1q41 -1 66 -1
q74 3 95 26q17 18 17 159v887z" />
    <glyph glyph-name="u" unicode="u" horiz-adv-x="1029" 
d="M989 1240q0 8 2 51v52q-3 58 -22 60q8 -185 8 -1044q0 -16 3 -81q2 -65 2 -103q0 -128 -25 -145q-24 -16 -102 -14q-20 1 -63 4q-39 2 -54 2h-447q-15 0 -52 -2q-42 -3 -61 -4q-76 -2 -102 14q-30 19 -30 143q0 37 3 102q3 66 3 84v885q0 142 16 159q17 16 89 18
q23 0 64 -1q45 -1 58 -1h451q206 0 231 -12q1 -1 4 -3q2 -1 4 -1q-5 28 -93 31q-28 1 -73 -1q-53 -2 -61 -2h-463q-13 0 -57 2q-41 1 -65 1q-77 -1 -97 -19q-27 -24 -27 -146q1 -36 4 -100q2 -63 2 -83q0 -861 4 -1044q24 -35 87 -40q-2 0 120 0h504q7 0 62 -2q41 -1 66 1
q76 3 95 29q21 29 19 152q0 33 -4 101q-3 61 -3 84v873zM336 700q-21 -175 30 -269q59 -109 205 -80q156 31 122 357q-62 6 -170 5q-145 -1 -175 -1q-9 -3 -12 -12zM895 710q-36 8 -56 -2q-10 -185 -28 -264q-29 -129 -102 -186q-93 -75 -235 -55q-137 20 -199 107
q-49 68 -65 176q-8 60 -12 218q-9 11 -47 8q-39 -3 -43 4q1 19 36 14q43 -5 54 3q6 78 4 258q-3 177 4 249h126q5 -94 4 -253q-1 -213 0 -258q30 0 181 -1q111 -1 176 5q6 93 5 251q-2 211 -1 256h130q6 -93 5 -249q-2 -209 -1 -254q16 -16 62 -5q19 4 25 3q10 -2 7 -15
q-4 -16 -30 -10zM750 1403h-430q-18 0 -71 1q-47 1 -73 1q-81 -2 -104 -23q2 -88 -5 -267q-6 -171 -3 -269q2 -7 25 -7q20 0 19 -13q-34 -2 -36 -4q-5 -14 4 -163q15 -6 22 7t10 10q-2 -74 0 -69q-3 -4 -24 -5q-17 0 -16 -12q-12 -105 4 -316q18 -243 12 -228q641 -9 869 4
q11 79 8 545q-2 6 -21 7q-18 1 -20 9v57q5 1 23 -6q13 -5 14 6q12 75 0 154q-2 6 -18 4q-17 -2 -19 4q1 8 21 8q18 0 16 12q10 399 -4 540q-34 13 -203 13z" />
    <glyph glyph-name="v" unicode="v" horiz-adv-x="1016" 
d="M421 704q-2 -3 -1 -7q8 -37 25 -101q21 -76 28 -102q30 -125 40 -138q78 363 78 354q-84 12 -167 0q0 -3 -3 -6zM741 710q-35 -89 -76 -251q-51 -197 -70 -258h-175q-26 82 -71 254t-72 255q-27 6 -96 4q-70 -3 -83 0q-1 19 27 20q8 0 26 -2t25 -2q79 0 93 4
q-22 98 -65 254q-53 187 -69 250q25 6 73 5q65 -1 78 -1q20 -70 63 -255q38 -165 67 -253q138 -12 187 4q26 95 62 251q48 207 60 253h150q-17 -88 -65 -252q-47 -164 -65 -252q11 -8 94 -8q8 0 25 2q17 1 24 1q27 1 28 -15q0 -13 -15 -10q-3 0 -13 3q-9 3 -13 3
q-87 4 -134 -4zM953 1125q0 229 -13 272q-101 8 -634 8q-17 0 -70 2q-47 2 -73 1q-83 -2 -101 -27v-533q1 -7 19 -7q17 -1 17 -9q-2 -6 -18 -5t-18 -3v-159q5 -7 20 0q14 8 16 4q14 -26 0 -65q-39 0 -44 -8q5 -74 0 -460q-1 -49 20 -89q135 0 415 -6q294 -7 403 -7
q27 0 57 21q5 100 4 268q-1 224 0 273q-3 7 -21 7q-18 1 -20 9v53q7 1 22 -3q12 -3 19 3q-1 13 0 82q1 50 -4 77q-1 5 -19 3q-16 -2 -14 9q2 5 18 4t19 4v281zM856 18q-22 0 -64 2q-40 2 -55 2h-455q-203 0 -216 8q-27 18 -28 147q-1 39 1 103q3 67 3 80v712q0 20 -3 88
q-3 67 -3 105q0 126 30 148q0 1 2 0h2q0 2 8 4q110 4 667 4q193 0 208 -12q27 -22 26 -150q0 -37 -3 -104q-3 -65 -3 -83v-883q0 -138 -20 -155q-21 -16 -97 -16zM981 1271q0 91 1 82q-3 46 -25 73q-108 8 -651 8q-224 0 -256 -17q-17 -33 -17 -179v-585q-2 -30 -1 -72
q2 -59 1 -71q0 -10 -4 -34q-4 -23 -4 -35q1 -22 5 -130q4 -86 3 -126q0 -13 -2 -44q-1 -28 -1 -43q0 -47 16 -68q19 -26 94 -29q25 -2 67 -1q56 2 66 2h489h126q69 5 85 32q8 14 8 167v1070z" />
    <glyph glyph-name="w" unicode="w" horiz-adv-x="1027" 
d="M645 699q8 -39 21 -113q15 -87 19 -110q1 -4 1 -13q-1 -10 -1 -14q1 -16 17 -18q26 229 28 272q-9 9 -38 10q-26 0 -43 -6q-2 -8 -4 -8zM283 699q-3 13 20 -187q8 -64 25 -73q33 174 40 268q-40 15 -81 0q-5 -1 -4 -8zM478 732q48 -9 65 0q-1 34 -12 97q-12 61 -12 98
q-3 1 -6 4q-4 3 -6 4q-31 -146 -29 -203zM802 455q-21 -183 -35 -256h-147q-11 103 -34 256q-35 226 -39 252q6 -2 -73 5q-18 -89 -41 -256q-27 -182 -40 -257h-143q-13 73 -34 256q-20 167 -39 252q-13 8 -42 4q-30 -5 -35 -4q-6 28 28 23q42 -6 49 6q-36 235 -69 504
q8 -1 56 1q34 0 50 -5q10 -68 33 -253q21 -161 36 -251q62 -13 89 4q12 60 78 504q9 -1 59 1q37 0 55 -5q13 -72 39 -251q24 -162 42 -249q31 -20 85 -4q16 71 69 508h110q-33 -273 -69 -500q4 -16 41 -11q35 5 36 -9q-1 -14 -32 -10q-36 5 -45 -3q-19 -84 -38 -252z
M954 1126q0 226 -12 269q-102 8 -635 8q-16 0 -69 2q-48 1 -74 1q-83 -2 -101 -28v-536q3 -4 22 -4q15 1 15 -9q-2 -5 -18 -4t-19 -4v-162q7 -7 23 4q14 10 18 0q-6 -60 -4 -57q-3 -4 -20 -5q-14 -1 -17 -7q1 -49 0 -273q-1 -168 5 -268q12 -14 34 -15q7 0 19 1q14 2 20 2
q373 9 784 -8q26 12 29 49q0 -5 0 68v444q-3 6 -21 7q-17 2 -20 9q6 64 4 61q6 0 19 -8q11 -6 18 0v158q-2 5 -21 4q-17 -1 -16 8q4 4 20 5q15 1 17 8v280zM974 187q-1 -138 -20 -154q-17 -15 -97 -15q-23 0 -65 1t-54 1h-455q-14 0 -51 -2l-63 -3q-78 -2 -101 13
q-31 20 -31 142q0 36 3 104q3 69 3 92v898q0 6 -1 42q-1 25 0 41q4 46 30 68q118 4 675 4q192 0 207 -12q27 -21 26 -151q0 -39 -3 -104q-3 -63 -3 -79v-886zM982 1114q0 18 3 75q2 59 3 91q1 112 -22 135q-17 18 -89 19q-22 0 -62 -1q-43 -2 -56 -2h-679q-30 -21 -41 -36
q-4 -213 -4 -1196q0 -153 8 -166q16 -27 84 -32q10 -1 123 -1h480q205 0 224 12q29 19 32 68q1 12 -4 95v939z" />
    <glyph glyph-name="x" unicode="x" horiz-adv-x="1016" 
d="M699 201q-31 55 -97 190q-60 124 -98 188q-18 -28 -195 -378q-27 -3 -76 -1q-57 2 -83 1q40 83 133 251q89 163 132 253q-50 11 -167 9q-133 -3 -155 -1q-3 20 27 20q9 0 28 -2t27 -2q209 0 236 8q-37 77 -132 251q-86 158 -129 254h151q31 -53 100 -195
q61 -126 103 -192q36 63 102 193q66 132 101 194h147q7 17 -261 -501q42 -15 248 -12q7 0 20 2q14 1 20 1q23 1 30 -11q-3 -11 -26 -11q-6 0 -22 2q-14 1 -22 1q-186 2 -252 -4q37 -85 132 -253q90 -161 129 -255h-151zM911 676q2 -1 7 -6q6 -5 9 -7q10 -7 20 1v159
q-2 5 -21 3q-16 -1 -15 9q3 4 19 5q15 1 17 7q-1 48 1 278q2 171 -9 267q-33 12 -203 12h-431q-18 0 -72 2q-48 2 -74 1q-83 -2 -102 -27v-533q1 -7 19 -7q17 0 17 -9q-40 0 -39 -63q3 -103 3 -104q7 -8 24 -1q15 5 16 -3v-53q-4 -3 -21 -4q-16 -1 -19 -8q3 -71 -2 -290
q-4 -166 10 -255q69 -12 236 -8q166 4 236 -8q57 13 205 8q145 -5 197 8q14 144 4 549q-1 6 -16 4t-16 4q-14 28 0 69zM840 16q-20 1 -63 3q-38 3 -53 3h-448q-14 0 -51 -2q-42 -3 -63 -4q-77 -2 -101 14q-27 18 -24 150v1086q0 88 -1 82q4 46 29 68q119 4 683 4q13 0 53 2
q38 2 60 2q71 0 90 -20q16 -16 18 -70q0 -17 -1 -47v-45v-883q0 -19 2 -85q3 -65 3 -102q0 -123 -30 -142q-25 -16 -103 -14zM976 1270q0 8 1 41q1 26 0 42q-3 47 -26 72q-160 10 -434 9q-366 -3 -444 -1q-29 -22 -41 -37q-4 -183 -4 -1033q0 -16 -2 -76q-3 -65 -4 -101
q-2 -129 19 -156q18 -24 89 -28h126h488q6 0 62 -2q40 -1 65 1q73 3 92 29q13 16 13 167v1073z" />
    <glyph glyph-name="y" unicode="y" horiz-adv-x="1029" 
d="M751 713q-75 -1 -106 0q-63 -56 -66 -229q-2 -50 2 -148q4 -97 3 -135q-18 -1 -70 -1q-57 1 -80 1q0 1 -3 281q-1 169 -54 231q-40 0 -147 -1q-99 0 -133 1q-7 19 11 19q6 1 17 -1q13 -2 16 -2q143 -4 224 4q-28 87 -101 251q-77 173 -106 257h150q27 -60 98 -242
q59 -153 101 -238q12 13 53 118q83 212 150 362h143q-33 -98 -102 -254q-79 -179 -106 -250q47 -12 212 -8q5 0 16 2q12 1 18 1q20 1 23 -11q-4 -12 -23 -11q-6 0 -17 1q-12 2 -17 2h-106zM956 1269q-1 37 -3 55q-4 65 -19 76q-106 4 -630 4q-215 0 -240 -17
q-11 -271 0 -540q0 -9 20 -8q19 0 17 -12q-2 -1 -23 0q-15 1 -14 -9q-5 -25 -4 -74q1 -66 0 -80q5 -7 21 -3q16 5 20 -1v-53q-4 -3 -22 -4q-16 -2 -19 -8v-415q0 -119 8 -130q10 -13 31 -12q7 0 19 2q14 2 19 2q244 13 740 0q5 0 20 -1q12 -2 19 -1q21 0 34 14q12 266 8 537
q-2 8 -21 11q-20 2 -23 9q-8 12 0 57q39 -2 36 -4q-3 26 5 84q6 47 -5 74q-2 5 -18 4t-18 5q2 8 22 8t22 8q-3 49 1 182q5 131 -1 192q-1 13 -2 48zM971 359q0 -19 2 -86q2 -65 2 -102q-1 -123 -29 -141q-22 -14 -102 -13q-22 1 -65 3q-38 2 -52 2h-447q-14 0 -50 -3
q-42 -3 -62 -4q-78 -3 -104 15q-25 17 -25 154q0 41 2 106q3 65 3 77v894q0 7 -2 45q-1 29 0 46q5 52 38 64q12 4 228 4h443q187 0 203 -16q23 -23 22 -160q0 -40 -3 -104q-2 -62 -2 -74v-707zM983 1083q0 16 3 79q3 64 3 101q1 128 -27 153q-18 16 -93 18q-24 0 -62 -1
q-44 -1 -52 -1q-580 0 -695 -8q-26 -24 -29 -70q-1 -15 -1 -40q2 -35 2 -40v-895q0 -17 -3 -80q-3 -68 -4 -106q-2 -136 19 -163q18 -25 89 -29q-5 0 122 0h488q7 0 63 -1q40 0 64 1q71 3 92 25q21 21 21 170v887z" />
    <glyph glyph-name="z" unicode="z" horiz-adv-x="1038" 
d="M723 713h-126q-24 -30 -220 -362q72 -18 204 -12q157 7 223 0q1 -71 0 -142q-107 5 -295 4q-243 -1 -290 0q3 27 -1 78q-4 47 1 72q1 4 49 90q10 18 77 130q47 79 73 134q-255 12 -280 8q-19 -4 -37 -16q1 9 0 61q-1 38 4 56q9 -22 8 -77q25 -8 155 -8h158q15 5 61 85
q125 220 155 281q-66 6 -212 4q-145 -2 -211 4v138q52 -1 295 1q181 1 290 -5q-3 -27 1 -76q3 -46 -1 -70q0 -2 -49 -90q-18 -34 -76 -132q-48 -81 -74 -132q57 -12 248 -8q5 0 18 2q13 1 19 1q22 1 28 -11q-2 -11 -26 -11q-6 0 -21 1q-15 2 -22 2h-126zM940 603
q-20 0 -22 8q1 6 -1 39q-1 25 5 34q1 -2 3 -9t4 -10q6 -10 21 -5q15 135 4 158q1 9 -16 9q-18 -1 -20 4q2 8 22 8t23 8q2 83 -1 276q-3 175 1 248q-6 8 -33 33q-76 -1 -427 0q-263 1 -422 -4q-17 -40 -17 -269q0 -237 5 -284q0 -9 20 -8q19 0 16 -12q0 -3 -18 0
q-20 3 -18 -9q-12 -68 0 -154q2 -2 17 -2q14 1 19 -6v-53h-12q-9 1 -13 0q-13 0 -11 -12q-14 -317 -13 -337q1 -7 2 -58q1 -41 4 -67q7 -81 31 -91q124 7 429 4q281 -3 424 8q-1 -7 17 545q-3 7 -23 8zM850 17q-20 1 -65 3q-41 2 -58 2h-455q-13 0 -55 -2q-40 -1 -63 -1
q-77 0 -94 19q-20 24 -18 159q0 39 3 106q3 61 3 77v881q0 106 0 101q5 49 41 58h215q530 0 642 -4q27 -22 30 -70q1 -15 0 -42q-1 -34 -1 -43v-898q0 -22 3 -89t3 -103q0 -122 -31 -141q-22 -14 -100 -13zM987 1079q0 15 3 78q3 65 3 104q1 132 -22 155q-17 16 -94 18
q-24 0 -63 -1q-43 -1 -51 -1q-576 0 -690 -8q-35 -22 -39 -78q-1 -19 0 -57q2 -50 2 -68v-866q0 -24 -2 -87q-3 -66 -3 -100q-1 -118 21 -142q22 -23 95 -25q24 -1 64 -1q52 2 61 2h487h129q69 5 87 32q20 30 18 154q0 33 -3 100q-3 61 -3 83v708z" />
    <glyph glyph-name="braceleft" unicode="{" 
d="M918 654q1 37 -1 53q-396 3 -805 0q-2 -17 -1 -54q0 -38 -2 -55q-48 -2 -42 -1v-472q0 -62 2 -66q7 -24 48 -28q-7 1 78 1h643q96 0 105 4q7 3 21 29v532q-5 2 -23 1q-16 0 -21 3q-2 16 -2 53zM930 829q-9 -64 1 -174q0 -9 31 6q2 15 2 92q0 64 -3 76h-31zM67 829v-174
q3 -1 3 4q0 4 2 5q3 -3 23 -3q2 0 4 -4q1 -3 3 -1v87q0 54 -1 86h-34zM186 1402q-92 0 -96 -1q-18 -6 -22 -33q-1 -8 -1 -56q0 -391 2 -475q7 -2 21 -1t21 0v-55q-1 -33 1 -52q228 -5 805 -2q2 17 1 55q0 38 2 55q37 -1 42 0q2 83 2 475q0 60 -2 66q-9 22 -39 25
q3 -1 -65 -1h-672zM940 14q-4 -1 -56 -1q-109 -1 -297 0h-287h-108q-110 0 -127 16q-13 19 -17 152q-2 80 3 257q0 6 -1 19q-2 14 -2 20v827q0 62 6 80q9 34 45 39h736q99 0 104 -2q23 -6 41 -39v-1248q0 -71 -3 -80q-8 -32 -37 -40zM994 1305q0 69 -4 81q-12 37 -47 46
q-10 2 -104 2h-745q-46 -8 -55 -53q-1 -7 -1 -82v-1247q23 -48 59 -52h841q42 7 53 55q3 10 3 80v1170z" />
    <glyph glyph-name="bar" unicode="|" 
d="M918 654q1 37 -1 53q-396 3 -805 0q-2 -17 -1 -54q0 -38 -2 -55q-48 -2 -42 -1v-472q0 -62 2 -66q7 -24 48 -28q-7 1 78 1h643q96 0 105 4q7 3 21 29v532q-5 2 -23 1q-16 0 -21 3q-2 16 -2 53zM930 829q-9 -64 1 -174q0 -9 31 6q2 15 2 92q0 64 -3 76h-31zM67 829v-174
q3 -1 3 4q0 4 2 5q3 -3 23 -3q2 0 4 -4q1 -3 3 -1v87q0 54 -1 86h-34zM186 1402q-92 0 -96 -1q-18 -6 -22 -33q-1 -8 -1 -56q0 -391 2 -475q7 -2 21 -1t21 0v-55q-1 -33 1 -52q228 -5 805 -2q2 17 1 55q0 38 2 55q37 -1 42 0q2 83 2 475q0 60 -2 66q-9 22 -39 25
q3 -1 -65 -1h-672zM940 14q-4 -1 -56 -1q-109 -1 -297 0h-287h-108q-110 0 -127 16q-13 19 -17 152q-2 80 3 257q0 6 -1 19q-2 14 -2 20v827q0 62 6 80q9 34 45 39h736q99 0 104 -2q23 -6 41 -39v-1248q0 -71 -3 -80q-8 -32 -37 -40zM994 1305q0 69 -4 81q-12 37 -47 46
q-10 2 -104 2h-745q-46 -8 -55 -53q-1 -7 -1 -82v-1247q23 -48 59 -52h841q42 7 53 55q3 10 3 80v1170z" />
    <glyph glyph-name="braceright" unicode="}" 
d="M918 654q1 37 -1 53q-396 3 -805 0q-2 -17 -1 -54q0 -38 -2 -55q-48 -2 -42 -1v-472q0 -62 2 -66q7 -24 48 -28q-7 1 78 1h643q96 0 105 4q7 3 21 29v532q-5 2 -23 1q-16 0 -21 3q-2 16 -2 53zM930 829q-9 -64 1 -174q0 -9 31 6q2 15 2 92q0 64 -3 76h-31zM67 829v-174
q3 -1 3 4q0 4 2 5q3 -3 23 -3q2 0 4 -4q1 -3 3 -1v87q0 54 -1 86h-34zM186 1402q-92 0 -96 -1q-18 -6 -22 -33q-1 -8 -1 -56q0 -391 2 -475q7 -2 21 -1t21 0v-55q-1 -33 1 -52q228 -5 805 -2q2 17 1 55q0 38 2 55q37 -1 42 0q2 83 2 475q0 60 -2 66q-9 22 -39 25
q3 -1 -65 -1h-672zM940 14q-4 -1 -56 -1q-109 -1 -297 0h-287h-108q-110 0 -127 16q-13 19 -17 152q-2 80 3 257q0 6 -1 19q-2 14 -2 20v827q0 62 6 80q9 34 45 39h736q99 0 104 -2q23 -6 41 -39v-1248q0 -71 -3 -80q-8 -32 -37 -40zM994 1305q0 69 -4 81q-12 37 -47 46
q-10 2 -104 2h-745q-46 -8 -55 -53q-1 -7 -1 -82v-1247q23 -48 59 -52h841q42 7 53 55q3 10 3 80v1170z" />
    <glyph glyph-name="asciitilde" unicode="~" 
d="M918 654q1 37 -1 53q-396 3 -805 0q-2 -17 -1 -54q0 -38 -2 -55q-48 -2 -42 -1v-472q0 -62 2 -66q7 -24 48 -28q-7 1 78 1h643q96 0 105 4q7 3 21 29v532q-5 2 -23 1q-16 0 -21 3q-2 16 -2 53zM930 829q-9 -64 1 -174q0 -9 31 6q2 15 2 92q0 64 -3 76h-31zM67 829v-174
q3 -1 3 4q0 4 2 5q3 -3 23 -3q2 0 4 -4q1 -3 3 -1v87q0 54 -1 86h-34zM186 1402q-92 0 -96 -1q-18 -6 -22 -33q-1 -8 -1 -56q0 -391 2 -475q7 -2 21 -1t21 0v-55q-1 -33 1 -52q228 -5 805 -2q2 17 1 55q0 38 2 55q37 -1 42 0q2 83 2 475q0 60 -2 66q-9 22 -39 25
q3 -1 -65 -1h-672zM940 14q-4 -1 -56 -1q-109 -1 -297 0h-287h-108q-110 0 -127 16q-13 19 -17 152q-2 80 3 257q0 6 -1 19q-2 14 -2 20v827q0 62 6 80q9 34 45 39h736q99 0 104 -2q23 -6 41 -39v-1248q0 -71 -3 -80q-8 -32 -37 -40zM994 1305q0 69 -4 81q-12 37 -47 46
q-10 2 -104 2h-745q-46 -8 -55 -53q-1 -7 -1 -82v-1247q23 -48 59 -52h841q42 7 53 55q3 10 3 80v1170z" />
    <glyph glyph-name="exclamdown" unicode="&#xa1;" 
d="M918 654q1 37 -1 53q-396 3 -805 0q-2 -17 -1 -54q0 -38 -2 -55q-48 -2 -42 -1v-472q0 -62 2 -66q7 -24 48 -28q-7 1 78 1h643q96 0 105 4q7 3 21 29v532q-5 2 -23 1q-16 0 -21 3q-2 16 -2 53zM930 829q-9 -64 1 -174q0 -9 31 6q2 15 2 92q0 64 -3 76h-31zM67 829v-174
q3 -1 3 4q0 4 2 5q3 -3 23 -3q2 0 4 -4q1 -3 3 -1v87q0 54 -1 86h-34zM186 1402q-92 0 -96 -1q-18 -6 -22 -33q-1 -8 -1 -56q0 -391 2 -475q7 -2 21 -1t21 0v-55q-1 -33 1 -52q228 -5 805 -2q2 17 1 55q0 38 2 55q37 -1 42 0q2 83 2 475q0 60 -2 66q-9 22 -39 25
q3 -1 -65 -1h-672zM940 14q-4 -1 -56 -1q-109 -1 -297 0h-287h-108q-110 0 -127 16q-13 19 -17 152q-2 80 3 257q0 6 -1 19q-2 14 -2 20v827q0 62 6 80q9 34 45 39h736q99 0 104 -2q23 -6 41 -39v-1248q0 -71 -3 -80q-8 -32 -37 -40zM994 1305q0 69 -4 81q-12 37 -47 46
q-10 2 -104 2h-745q-46 -8 -55 -53q-1 -7 -1 -82v-1247q23 -48 59 -52h841q42 7 53 55q3 10 3 80v1170z" />
    <glyph glyph-name="cent" unicode="&#xa2;" 
d="M918 654q1 37 -1 53q-396 3 -805 0q-2 -17 -1 -54q0 -38 -2 -55q-48 -2 -42 -1v-472q0 -62 2 -66q7 -24 48 -28q-7 1 78 1h643q96 0 105 4q7 3 21 29v532q-5 2 -23 1q-16 0 -21 3q-2 16 -2 53zM930 829q-9 -64 1 -174q0 -9 31 6q2 15 2 92q0 64 -3 76h-31zM67 829v-174
q3 -1 3 4q0 4 2 5q3 -3 23 -3q2 0 4 -4q1 -3 3 -1v87q0 54 -1 86h-34zM186 1402q-92 0 -96 -1q-18 -6 -22 -33q-1 -8 -1 -56q0 -391 2 -475q7 -2 21 -1t21 0v-55q-1 -33 1 -52q228 -5 805 -2q2 17 1 55q0 38 2 55q37 -1 42 0q2 83 2 475q0 60 -2 66q-9 22 -39 25
q3 -1 -65 -1h-672zM940 14q-4 -1 -56 -1q-109 -1 -297 0h-287h-108q-110 0 -127 16q-13 19 -17 152q-2 80 3 257q0 6 -1 19q-2 14 -2 20v827q0 62 6 80q9 34 45 39h736q99 0 104 -2q23 -6 41 -39v-1248q0 -71 -3 -80q-8 -32 -37 -40zM994 1305q0 69 -4 81q-12 37 -47 46
q-10 2 -104 2h-745q-46 -8 -55 -53q-1 -7 -1 -82v-1247q23 -48 59 -52h841q42 7 53 55q3 10 3 80v1170z" />
    <glyph glyph-name="sterling" unicode="&#xa3;" 
d="M918 654q1 37 -1 53q-396 3 -805 0q-2 -17 -1 -54q0 -38 -2 -55q-48 -2 -42 -1v-472q0 -62 2 -66q7 -24 48 -28q-7 1 78 1h643q96 0 105 4q7 3 21 29v532q-5 2 -23 1q-16 0 -21 3q-2 16 -2 53zM930 829q-9 -64 1 -174q0 -9 31 6q2 15 2 92q0 64 -3 76h-31zM67 829v-174
q3 -1 3 4q0 4 2 5q3 -3 23 -3q2 0 4 -4q1 -3 3 -1v87q0 54 -1 86h-34zM186 1402q-92 0 -96 -1q-18 -6 -22 -33q-1 -8 -1 -56q0 -391 2 -475q7 -2 21 -1t21 0v-55q-1 -33 1 -52q228 -5 805 -2q2 17 1 55q0 38 2 55q37 -1 42 0q2 83 2 475q0 60 -2 66q-9 22 -39 25
q3 -1 -65 -1h-672zM940 14q-4 -1 -56 -1q-109 -1 -297 0h-287h-108q-110 0 -127 16q-13 19 -17 152q-2 80 3 257q0 6 -1 19q-2 14 -2 20v827q0 62 6 80q9 34 45 39h736q99 0 104 -2q23 -6 41 -39v-1248q0 -71 -3 -80q-8 -32 -37 -40zM994 1305q0 69 -4 81q-12 37 -47 46
q-10 2 -104 2h-745q-46 -8 -55 -53q-1 -7 -1 -82v-1247q23 -48 59 -52h841q42 7 53 55q3 10 3 80v1170z" />
    <glyph glyph-name="currency" unicode="&#xa4;" 
d="M918 654q1 37 -1 53q-396 3 -805 0q-2 -17 -1 -54q0 -38 -2 -55q-48 -2 -42 -1v-472q0 -62 2 -66q7 -24 48 -28q-7 1 78 1h643q96 0 105 4q7 3 21 29v532q-5 2 -23 1q-16 0 -21 3q-2 16 -2 53zM930 829q-9 -64 1 -174q0 -9 31 6q2 15 2 92q0 64 -3 76h-31zM67 829v-174
q3 -1 3 4q0 4 2 5q3 -3 23 -3q2 0 4 -4q1 -3 3 -1v87q0 54 -1 86h-34zM186 1402q-92 0 -96 -1q-18 -6 -22 -33q-1 -8 -1 -56q0 -391 2 -475q7 -2 21 -1t21 0v-55q-1 -33 1 -52q228 -5 805 -2q2 17 1 55q0 38 2 55q37 -1 42 0q2 83 2 475q0 60 -2 66q-9 22 -39 25
q3 -1 -65 -1h-672zM940 14q-4 -1 -56 -1q-109 -1 -297 0h-287h-108q-110 0 -127 16q-13 19 -17 152q-2 80 3 257q0 6 -1 19q-2 14 -2 20v827q0 62 6 80q9 34 45 39h736q99 0 104 -2q23 -6 41 -39v-1248q0 -71 -3 -80q-8 -32 -37 -40zM994 1305q0 69 -4 81q-12 37 -47 46
q-10 2 -104 2h-745q-46 -8 -55 -53q-1 -7 -1 -82v-1247q23 -48 59 -52h841q42 7 53 55q3 10 3 80v1170z" />
    <glyph glyph-name="yen" unicode="&#xa5;" 
d="M918 654q1 37 -1 53q-396 3 -805 0q-2 -17 -1 -54q0 -38 -2 -55q-48 -2 -42 -1v-472q0 -62 2 -66q7 -24 48 -28q-7 1 78 1h643q96 0 105 4q7 3 21 29v532q-5 2 -23 1q-16 0 -21 3q-2 16 -2 53zM930 829q-9 -64 1 -174q0 -9 31 6q2 15 2 92q0 64 -3 76h-31zM67 829v-174
q3 -1 3 4q0 4 2 5q3 -3 23 -3q2 0 4 -4q1 -3 3 -1v87q0 54 -1 86h-34zM186 1402q-92 0 -96 -1q-18 -6 -22 -33q-1 -8 -1 -56q0 -391 2 -475q7 -2 21 -1t21 0v-55q-1 -33 1 -52q228 -5 805 -2q2 17 1 55q0 38 2 55q37 -1 42 0q2 83 2 475q0 60 -2 66q-9 22 -39 25
q3 -1 -65 -1h-672zM940 14q-4 -1 -56 -1q-109 -1 -297 0h-287h-108q-110 0 -127 16q-13 19 -17 152q-2 80 3 257q0 6 -1 19q-2 14 -2 20v827q0 62 6 80q9 34 45 39h736q99 0 104 -2q23 -6 41 -39v-1248q0 -71 -3 -80q-8 -32 -37 -40zM994 1305q0 69 -4 81q-12 37 -47 46
q-10 2 -104 2h-745q-46 -8 -55 -53q-1 -7 -1 -82v-1247q23 -48 59 -52h841q42 7 53 55q3 10 3 80v1170z" />
    <glyph glyph-name="brokenbar" unicode="&#xa6;" 
d="M918 654q1 37 -1 53q-396 3 -805 0q-2 -17 -1 -54q0 -38 -2 -55q-48 -2 -42 -1v-472q0 -62 2 -66q7 -24 48 -28q-7 1 78 1h643q96 0 105 4q7 3 21 29v532q-5 2 -23 1q-16 0 -21 3q-2 16 -2 53zM930 829q-9 -64 1 -174q0 -9 31 6q2 15 2 92q0 64 -3 76h-31zM67 829v-174
q3 -1 3 4q0 4 2 5q3 -3 23 -3q2 0 4 -4q1 -3 3 -1v87q0 54 -1 86h-34zM186 1402q-92 0 -96 -1q-18 -6 -22 -33q-1 -8 -1 -56q0 -391 2 -475q7 -2 21 -1t21 0v-55q-1 -33 1 -52q228 -5 805 -2q2 17 1 55q0 38 2 55q37 -1 42 0q2 83 2 475q0 60 -2 66q-9 22 -39 25
q3 -1 -65 -1h-672zM940 14q-4 -1 -56 -1q-109 -1 -297 0h-287h-108q-110 0 -127 16q-13 19 -17 152q-2 80 3 257q0 6 -1 19q-2 14 -2 20v827q0 62 6 80q9 34 45 39h736q99 0 104 -2q23 -6 41 -39v-1248q0 -71 -3 -80q-8 -32 -37 -40zM994 1305q0 69 -4 81q-12 37 -47 46
q-10 2 -104 2h-745q-46 -8 -55 -53q-1 -7 -1 -82v-1247q23 -48 59 -52h841q42 7 53 55q3 10 3 80v1170z" />
    <glyph glyph-name="section" unicode="&#xa7;" 
d="M918 654q1 37 -1 53q-396 3 -805 0q-2 -17 -1 -54q0 -38 -2 -55q-48 -2 -42 -1v-472q0 -62 2 -66q7 -24 48 -28q-7 1 78 1h643q96 0 105 4q7 3 21 29v532q-5 2 -23 1q-16 0 -21 3q-2 16 -2 53zM930 829q-9 -64 1 -174q0 -9 31 6q2 15 2 92q0 64 -3 76h-31zM67 829v-174
q3 -1 3 4q0 4 2 5q3 -3 23 -3q2 0 4 -4q1 -3 3 -1v87q0 54 -1 86h-34zM186 1402q-92 0 -96 -1q-18 -6 -22 -33q-1 -8 -1 -56q0 -391 2 -475q7 -2 21 -1t21 0v-55q-1 -33 1 -52q228 -5 805 -2q2 17 1 55q0 38 2 55q37 -1 42 0q2 83 2 475q0 60 -2 66q-9 22 -39 25
q3 -1 -65 -1h-672zM940 14q-4 -1 -56 -1q-109 -1 -297 0h-287h-108q-110 0 -127 16q-13 19 -17 152q-2 80 3 257q0 6 -1 19q-2 14 -2 20v827q0 62 6 80q9 34 45 39h736q99 0 104 -2q23 -6 41 -39v-1248q0 -71 -3 -80q-8 -32 -37 -40zM994 1305q0 69 -4 81q-12 37 -47 46
q-10 2 -104 2h-745q-46 -8 -55 -53q-1 -7 -1 -82v-1247q23 -48 59 -52h841q42 7 53 55q3 10 3 80v1170z" />
    <glyph glyph-name="dieresis" unicode="&#xa8;" 
d="M918 654q1 37 -1 53q-396 3 -805 0q-2 -17 -1 -54q0 -38 -2 -55q-48 -2 -42 -1v-472q0 -62 2 -66q7 -24 48 -28q-7 1 78 1h643q96 0 105 4q7 3 21 29v532q-5 2 -23 1q-16 0 -21 3q-2 16 -2 53zM930 829q-9 -64 1 -174q0 -9 31 6q2 15 2 92q0 64 -3 76h-31zM67 829v-174
q3 -1 3 4q0 4 2 5q3 -3 23 -3q2 0 4 -4q1 -3 3 -1v87q0 54 -1 86h-34zM186 1402q-92 0 -96 -1q-18 -6 -22 -33q-1 -8 -1 -56q0 -391 2 -475q7 -2 21 -1t21 0v-55q-1 -33 1 -52q228 -5 805 -2q2 17 1 55q0 38 2 55q37 -1 42 0q2 83 2 475q0 60 -2 66q-9 22 -39 25
q3 -1 -65 -1h-672zM940 14q-4 -1 -56 -1q-109 -1 -297 0h-287h-108q-110 0 -127 16q-13 19 -17 152q-2 80 3 257q0 6 -1 19q-2 14 -2 20v827q0 62 6 80q9 34 45 39h736q99 0 104 -2q23 -6 41 -39v-1248q0 -71 -3 -80q-8 -32 -37 -40zM994 1305q0 69 -4 81q-12 37 -47 46
q-10 2 -104 2h-745q-46 -8 -55 -53q-1 -7 -1 -82v-1247q23 -48 59 -52h841q42 7 53 55q3 10 3 80v1170z" />
    <glyph glyph-name="copyright" unicode="&#xa9;" horiz-adv-x="3868" 
d="M3698 378q-5 1 -6 2q-2 0 -7 3t-5 9q0 5 3 8q4 3 8 3q5 0 8 -3l2 -4q1 -1 4 -2q4 -2 8 -2q5 0 8 4q3 3 1 8q-3 6 -8 11q-9 10 -23 10t-23 -10q-10 -9 -10 -23q0 -9 5 -15q4 -6 10 -9q5 -4 10 -6q5 -1 6 -2q2 0 7 -3q6 -2 6 -9q0 -4 -3 -7q-3 -4 -8 -4q-4 0 -8 4
q-1 1 -2 3t-4 3t-8 1t-7 -3q-4 -4 -2 -8q3 -6 8 -12q9 -9 23 -9t23 9q10 10 10 23q0 10 -5 16q-4 5 -10 9q-6 3 -11 5zM2269 425q-5 0 -9 -3q-3 -3 -3 -8q0 -4 3 -8q4 -3 9 -3h4q4 0 8 -3q3 -4 3 -8v-65q0 -5 4 -8q3 -3 7 -3q5 0 8 3t3 8v65q0 4 4 8q3 3 8 3h4q5 0 8 3
q4 4 4 8q0 5 -4 8q-3 3 -8 3h-53zM1984 425q-5 0 -8 -3q-4 -3 -4 -8q0 -4 4 -8q3 -3 8 -3h4q5 0 8 -3q4 -4 4 -8v-65q0 -5 3 -8t7 -3q5 0 8 3t3 8v65q0 4 4 8q3 3 8 3h4q5 0 8 3q4 4 4 8q0 5 -4 8q-3 3 -8 3h-53zM2597 403q5 0 9 3q3 4 3 8q0 5 -3 8q-4 3 -9 3h-42
q-5 0 -8 -3q-4 -4 -4 -9v-86q0 -5 3 -8q4 -3 8 -3h43q5 0 9 3q3 3 3 8q0 4 -3 7q-4 3 -9 3h-20q-5 0 -8 4q-4 3 -4 7q0 5 4 8q3 3 8 3h9q5 0 9 4q3 3 3 7q0 5 -3 8q-4 3 -9 3h-9q-5 0 -8 3q-4 4 -4 8q0 5 4 8q3 3 8 3h20zM1125 339q-4 -1 -8 2q-3 3 -3 8v43q0 5 3 8q4 3 8 1
q6 -2 12 -7q9 -10 9 -24q0 -13 -9 -23q-6 -5 -12 -8zM1103 425q-5 0 -8 -3q-3 -4 -3 -9v-86q0 -5 3 -8t8 -3h11q22 0 38 16t16 38q0 23 -16 39t-38 16h-11zM827 337q-13 0 -23 10t-10 23q0 14 10 24q10 9 23 9q14 0 23 -9q10 -10 10 -24q0 -13 -10 -23q-9 -10 -23 -10z
M789 409q-17 -16 -17 -39q0 -22 17 -38q16 -16 38 -16q23 0 39 16t16 38q0 23 -16 39t-39 16q-22 0 -38 -16zM3130 336q-4 -3 -4 -8t4 -9q4 -3 9 -3q7 0 10 3q4 3 4 9q0 5 -3 8q-4 4 -10 4t-10 -4zM3437 403q5 0 8 3q4 4 4 8q0 5 -4 8q-3 3 -8 3h-42q-5 0 -8 -3q-4 -4 -4 -9
v-86q0 -5 3 -8q4 -3 8 -3h43q5 0 8 3q4 3 4 8q0 4 -4 7q-3 3 -8 3h-20q-5 0 -8 4q-4 3 -4 7q0 5 4 8q3 3 8 3h9q5 0 8 4q4 3 4 7q0 5 -4 8q-3 3 -8 3h-9q-5 0 -8 3q-4 4 -4 8q0 5 4 8q3 3 8 3h20zM1746 422q-4 -4 -4 -9v-54q0 -9 -6 -15q-6 -7 -15 -7t-16 7q-6 6 -6 15v54
q0 5 -4 9q-3 3 -7 3q-5 0 -8 -3q-3 -4 -3 -9v-54q0 -18 13 -31q12 -12 31 -12q18 0 31 12q12 13 12 31v54q0 5 -3 9q-3 3 -8 3q-4 0 -7 -3zM2857 370h-8q-3 0 -6 3q-2 2 -2 6v16q0 3 2 6q3 2 6 2h8q7 0 12 -5t5 -11q0 -7 -5 -12t-12 -5zM2889 365q7 10 7 22q0 16 -12 27
q-11 11 -27 11h-27q-5 0 -8 -3q-3 -4 -3 -9v-86q0 -5 3 -8t8 -3q4 0 8 3q3 3 3 8v17q0 5 2 5q2 1 5 -3l14 -21q3 -4 8 -7q6 -2 11 -2h3q5 0 6 2q2 3 -1 7l-11 16q-3 4 -2 8t5 7q4 4 8 9zM235 425q-5 0 -10 -3q-5 -4 -7 -8l-12 -30q-2 -5 -5 -5q-2 0 -4 5l-12 30q-2 4 -5 4
t-5 -4l-12 -30q-2 -5 -4 -5q-3 0 -5 5l-12 30q-2 4 -7 8q-5 3 -10 3h-1q-5 0 -7 -3q-2 -4 0 -8l37 -94q2 -4 4 -4q3 0 5 4l12 31q2 5 5 5q2 0 4 -5l13 -31q2 -4 4 -4q3 0 5 4l37 94q2 4 0 8q-2 3 -8 3v0zM1447 400q4 -2 9 -2t8 3q3 4 3 8t-4 7t-9 5q-10 4 -21 4
q-23 0 -39 -16t-16 -39q0 -22 16 -38t39 -16q11 0 21 4q5 2 9 5q4 2 4 7q0 4 -3 7t-8 4q-5 0 -9 -3q-7 -3 -14 -3q-14 0 -23 10q-10 10 -10 23q0 14 10 24q9 9 23 9q7 0 14 -3zM508 337q-13 0 -23 10t-10 23q0 14 10 24q10 9 23 9q14 0 24 -9q9 -10 9 -24q0 -13 -9 -23
q-10 -10 -24 -10zM470 409q-16 -16 -16 -39q0 -22 16 -38t38 -16q23 0 39 16t16 38q0 23 -16 39t-39 16q-22 0 -38 -16zM2122 774q29 13 26 54q-2 17 -10 30q-10 13 -23 16q-11 3 -31 1q-22 -2 -33 -1q-3 -1 -4 -4q0 -9 -1 -50q0 -31 2 -48q76 3 74 2zM2047 712
q0 -10 -1 -55q0 -33 2 -52q3 0 48 -2q28 -2 42 5q22 10 28 39t-8 51q-11 16 -44 18q-10 1 -30 0h-33q-3 -1 -4 -4zM1827 732h-41q-4 -1 -3 -9q0 -8 -2 -10h-78q-2 -17 -3 -111q23 -2 64 -2q55 1 66 0q-1 -8 1 -27q1 -17 -1 -26q-89 -4 -177 0q-2 34 -2 91v93q-8 2 -35 1
q-4 0 -10 -1q-5 -1 -8 -1q-7 0 -6 8q0 4 8 4q1 0 7 -1q5 -1 9 -1q6 -1 17 0h17q2 26 1 94q-1 62 3 92h90q55 1 88 -1q0 -8 -1 -26q-1 -16 -1 -26q-23 -2 -63 -2q-53 1 -64 0q-2 -18 -2 -50q1 -43 0 -52q14 -2 39 -1h41q-1 2 2 -27q15 -2 54 -1q39 0 52 -2q0 -6 -8 -7
q-3 0 -8 1h-6h-40zM1898 693q-7 1 -9 2v31q17 -13 12 -13q5 52 2 61q-2 2 -8 1q-6 -2 -6 2q1 2 8 2q7 1 9 2q-1 169 -3 198q-13 5 -76 5h-240q-3 -1 -4 -5q-4 -12 -4 -102q0 -80 1 -96q1 -1 8 -2q6 0 7 -2q-1 -1 1 -12q2 -9 -4 -11q0 18 0 15q-1 8 -8 8q-7 -6 -6 -29
q0 -6 1 -18t1 -16q1 -1 7 0q6 0 6 -3q-1 -17 0 -16q-1 -1 -8 -2q-5 0 -5 -4q-5 -162 3 -198q57 -4 154 -3h158q9 8 11 41q1 26 0 80q-1 58 0 82q-2 2 -8 2zM3348 778h5q-2 -6 -5 -6v6zM3051 741q-1 22 3 27v-14q0 -10 3 -15q30 3 28 2q4 28 1 89q-3 65 0 96q21 -2 55 0
q44 1 54 1q60 -1 85 -23q27 -24 32 -74q5 -52 -15 -89q7 -2 26 -2q22 1 25 0q2 -2 3 -13q0 -10 5 -12q8 8 9 30q0 19 -5 34q5 11 5 80q0 90 -5 123q-12 6 -72 6q-207 0 -245 -3q-4 -11 -4 -67v-175q0 -1 -1 -7v-10q0 -11 10 -11q5 5 3 27zM1823 481h-167q-5 0 -19 -1
q-15 -1 -23 -1q-29 0 -35 7q-8 8 -8 57q0 14 1 37t1 28v317q0 4 -1 22q-1 13 0 19q2 20 15 24q5 1 82 1h157q71 0 75 -3q10 -6 11 -55q0 -15 -1 -38q-1 -25 -1 -28v-326q0 -50 -7 -56q-6 -4 -80 -4zM1832 996h-163q-80 0 -85 -2q-12 -4 -15 -20q-1 -5 -1 -35v-390
q0 -58 3 -63q6 -10 33 -11q-2 0 44 0h178q73 0 81 7t8 58v391q0 52 -8 59q-6 6 -75 6zM2835 864q-22 -77 -30 -123q31 -4 62 0q-14 78 -32 123zM2925 732q5 -32 22 -91q18 -64 24 -94q-8 -2 -24 -1h-25q-7 9 -12 35q-5 27 -12 36h-121q-9 -9 -14 -34q-6 -29 -11 -37
q-55 5 -51 3q18 61 48 182q-4 1 -33 1h-9q-6 -1 -8 -1q-9 0 -11 4q0 6 10 6q2 0 8 -1h9h34q5 10 26 90q4 12 13 46q9 29 13 46q-1 1 0 2t1 2h70q-2 6 25 -95q21 -79 27 -91h34h8h8q10 0 12 -3q-3 -5 -12 -6q-3 0 -8 1h-8h-33zM2761 984h-24q-17 1 -26 1q-30 -1 -36 -9v-195
q1 -1 6 -2t6 -2q-6 -1 -12 -3v-60q2 -2 7 1t6 2q6 -11 0 -22q-1 -1 -7 -2q-5 0 -6 -2q-4 -44 0 -92q1 -9 -2 -27q-2 -19 -1 -28q5 -55 4 -53q41 -3 242 -3q65 0 78 4q5 52 2 199q-1 2 -7 3q-6 0 -7 3v19q14 6 14 0q2 9 1 27v29q-1 3 -8 3q-6 -1 -5 2q-1 3 6 2q6 0 6 4
q1 25 1 155v13q1 8 1 12q-1 14 -8 21h-231zM1459 480h-83q-137 0 -163 5q-7 11 -7 58v390v34q2 17 10 21q6 3 79 3h161q75 0 83 -4q5 -13 5 -126v-255v-30q1 -24 2 -37q0 -44 -8 -53q-6 -6 -79 -6zM1540 989q-3 1 -4 2q-4 4 -80 5h-166q-67 0 -80 -5q-8 -11 -8 -56v-329
q0 -7 -2 -31q-1 -24 -1 -38q0 -47 10 -55q7 -6 36 -6q8 0 24 1h20h170q76 0 82 5q7 6 7 56v388q0 56 -4 61zM2604 477q-8 -1 -23 0h-22h-169q-72 0 -78 6q-10 10 -10 73q0 18 1 49q1 29 1 35v271q-1 67 9 74q41 3 249 3q70 0 75 -4q9 -8 8 -57q0 -14 -1 -38q-1 -23 -1 -28
v-319q0 -51 -6 -57q-6 -8 -33 -8zM2614 994q-40 0 -119 -1q-92 -1 -121 -1q-57 0 -70 -8q-3 -69 -3 -381q0 -7 -1 -30q-1 -24 -1 -38q0 -46 8 -55q7 -6 35 -7q8 0 24 1h21h172h21q16 -1 24 -1q29 -1 36 6q6 5 6 58v322q0 8 1 31q1 25 2 38q0 47 -7 57q-7 9 -28 9zM2201 735
q21 -28 20 -75q-1 -45 -20 -73q-23 -32 -85 -38q-22 -2 -118 1v93q0 57 -2 91q-3 2 -19 1q-15 -1 -16 5q-1 -6 34 3q4 27 3 93q-2 66 3 93q21 -2 63 1q39 2 58 -1q56 -8 70 -70q14 -60 -23 -102q7 -14 40 -14q48 -1 49 -2q0 -6 -10 -7q-3 0 -8 1h-8h-31zM2272 694q-2 2 -8 2
q-6 1 -7 4v19q1 1 7 -1q4 -2 8 1v56q-1 3 -8 3q-6 -1 -6 2t6 2q7 0 6 4q2 38 2 96q-1 81 0 97q-5 3 -8 8h-311q-3 -1 -4 -5q-4 -98 0 -198q1 -2 6 -2q6 -1 6 -4q-1 0 -5 1t-7 -1q-4 -32 0 -62q1 -1 6 3t7 1v-22q-1 -1 -8 -2q-5 0 -7 -2v-157v-13v-12q1 -14 8 -21h309
q7 6 8 20v12v12v159zM2578 604q-33 -55 -93 -62q-12 -1 -22 0q-113 14 -125 184q1 3 -6 3q-7 -1 -7 3q1 -8 13 6q4 86 39 138q16 23 46 37q34 15 72 10q54 -8 85 -62q29 -51 29 -122q1 -4 7 -2q7 1 7 -2q-3 8 -14 -8q-1 -74 -31 -123zM2621 713q1 2 7 -1q5 -3 6 2
q4 153 0 264q-11 6 -72 6h-235q-16 -4 -17 -21q-1 -5 2 -36q0 -8 -2 -32q-2 -23 -1 -36q8 -89 6 -84q-6 -16 -2 -62q2 -3 7 -1q5 3 5 2q1 -2 2 -22q-16 -9 -15 -6v-99q-1 -60 1 -96q13 -6 77 -6h166q66 0 78 6q3 33 2 98q-1 66 1 97q-1 3 -8 4t-8 5v18zM2921 481h-166
q-73 0 -79 4q-13 10 -9 120v324q0 37 1 38q2 19 13 24h244q70 0 75 -6q9 -8 9 -56q-1 -14 -2 -38q-1 -23 -1 -29v-319q0 -50 -7 -57q-6 -5 -78 -5zM2928 996h-163q-79 0 -84 -2q-15 -4 -17 -29q-1 -9 0 -24v-25v-327q1 -9 -1 -27q-2 -19 -1 -28q1 -41 5 -48q8 -10 35 -11
q-2 0 47 0h179q2 0 22 -1h23q27 2 33 12q3 5 3 61v320q0 117 -6 123t-75 6zM2190 484h-166q-70 0 -77 6q-9 8 -9 55q0 14 1 37t1 29v257q0 7 -1 35q-1 24 0 38q1 45 14 53q28 0 161 1q99 0 158 -4q7 -19 7 -123v-260q0 -7 1 -31q1 -23 1 -37q0 -44 -11 -52q-6 -4 -80 -4z
M2282 552q0 360 -3 438q-12 9 -34 10q-7 0 -20 -1h-20h-249q-16 -4 -19 -24v-366q0 -8 -1 -31q-1 -24 -1 -37q-1 -45 8 -54q8 -9 36 -10h24q19 1 23 1h186q38 0 43 1q22 3 27 16v57zM2541 831q-23 41 -71 40q-33 -1 -56 -30q-31 -38 -24 -105q15 1 86 0q53 0 84 2
q1 58 -19 93zM2389 726q0 -82 37 -111q25 -19 52 -18q24 2 45 21q45 41 37 109q-26 3 -84 2t-84 1q-3 -1 -3 -4zM549 484q-72 0 -78 6q-8 7 -9 50q0 13 1 36v29v362q2 21 14 27h239q73 0 77 -3q11 -7 11 -52q0 -13 -1 -37t-1 -31v-322q0 -51 -6 -58t-33 -8h-23q-18 1 -22 1
h-169zM805 867q0 119 -4 124q-6 8 -74 8h-164q-79 0 -85 -2q-11 -2 -14 -8q-3 -5 -4 -21v-416q0 -58 3 -62q6 -10 33 -12h44h179q4 0 22 -1h25q28 1 35 10q4 5 4 59v321zM660 738q8 5 55 5q55 0 65 1q1 0 2 -6q-44 -9 -91 0q-17 -7 -31 0zM542 612q-27 47 -33 122
q-2 2 -13 1t-12 3q-1 6 8 5q13 -1 16 0q4 72 31 121q32 58 89 65q44 6 79 -14q32 -18 48 -52q-23 -19 -43 -30q-39 41 -78 35q-37 -5 -56 -43q-17 -35 -15 -81q12 -2 49 -1q33 1 47 -3q-14 -6 -46 -5q-43 1 -50 0q-3 -48 19 -85q25 -40 65 -41q17 0 35 11q6 4 14 10
q11 8 15 11q8 -4 39 -29q-14 -32 -44 -49q-32 -18 -72 -14q-60 6 -92 63zM638 987q-131 -1 -158 0l-9 -9v-98q-1 -60 1 -96q1 -1 8 -2q6 0 6 -4q-2 -1 -8 0q-6 2 -7 -1v-31q-1 -19 1 -29q1 -1 6 2q6 3 8 0v-21q-2 -1 -8 -1q-6 -1 -6 -5q-2 -22 -1 -79q1 -53 -3 -78
q3 -4 2 -22q0 -16 7 -20q58 -2 154 -2h156q3 5 8 7v196q-1 2 -8 2q-6 1 -7 4q1 20 2 22q10 -7 13 -5v58q-1 3 -8 3q-6 -1 -5 2q0 3 5 3q7 0 8 1v102q1 60 -3 98q-57 4 -154 3zM3138 867q-4 -57 0 -116q12 1 33 1q25 -1 33 -1q36 1 48 15q20 22 11 60q-9 39 -36 45
q-15 3 -42 1q-28 -3 -44 -1q-3 -1 -3 -4zM1070 838q-23 41 -71 39q-33 -1 -56 -29q-31 -39 -24 -105q15 0 86 -1q53 0 84 2q2 58 -19 94zM2805 732q-7 -6 -10 -23q-1 -2 -3 -13q-2 -9 -3 -14q14 -2 47 -2q34 1 45 -1q2 16 -11 53h-65zM3486 728v-126q71 -7 112 29
q39 35 41 100q-27 2 -74 1h-76q-3 -1 -3 -4zM413 763q0 -7 -2 -11q-3 3 -1 21q3 -2 3 -10zM418 696q-6 -1 -7 1q0 8 -1 20q-2 11 -2 17q-40 4 -78 0q45 -59 34 -112q-6 -26 -30 -48q-25 -20 -54 -25q-68 -10 -120 30q3 7 9 26q5 18 10 26q26 -25 74 -27q50 -2 62 30
q8 20 0 38q-6 15 -37 37q-34 24 -47 27q-19 3 -54 0q-37 -3 -56 0q-3 1 -5 -4q-1 -4 -4 -2q5 14 5 13q72 -4 102 2q-32 24 -45 47q-19 33 -11 74q5 24 29 40q22 16 53 21q70 12 106 -27q-1 -4 -7 -25q-3 -16 -7 -25q-23 21 -72 21q-52 0 -56 -29q-3 -17 20 -40q7 -6 61 -41
q32 -21 31 -21q13 -2 45 1q35 3 47 2l-1 -15q-1 -8 4 -11h7q2 9 2 28q-1 25 0 31q-2 2 -9 1q-5 -1 -5 2t6 3q7 0 8 1v197q-12 8 -34 8h-19q-14 -1 -20 -1h-240q-10 -2 -12 -12q0 1 0 -20q0 -16 -1 -83q-1 -55 0 -89q1 -1 10 -1q7 0 6 -6q0 -1 -5 1q-6 2 -8 -1q-3 -8 1 -59
q6 -3 9 4q2 6 3 4v-28q-17 -7 -16 -6q2 -173 6 -197q209 -3 219 -2q11 1 54 -1q31 -1 45 5q2 38 2 98q-1 83 0 100q-1 2 -7 2zM432 548q0 -52 -6 -58t-33 -7q-9 0 -24 1h-21h-168q-76 0 -80 3q-8 7 -8 56q1 14 2 38t1 29v320q0 51 5 57q6 6 77 6h166q71 0 80 -3q8 -4 9 -25
q0 5 0 -41v-376zM425 992q-9 6 -80 6h-169q-74 0 -80 -6q-9 -9 -8 -54q0 -13 1 -36t1 -30v-379q9 -14 31 -16h43h181q5 0 22 -1h24q30 0 38 8q7 7 7 56v385q0 57 -4 61q-4 3 -7 6zM3652 606q-39 -54 -106 -60q-1 0 -110 1v89v93q-2 4 -11 3q-10 -2 -11 -1v9q1 3 9 0
q8 -2 12 1q2 32 1 91v90q-2 0 0 2t3 2q20 -1 58 0q35 2 52 0q62 -6 102 -58q38 -51 38 -124q1 -5 12 -4q10 0 10 -2q2 -7 -7 -6q-12 0 -13 -1q-3 -76 -39 -125zM3651 984h-241l-9 -9q0 -17 -1 -98q0 -60 2 -96q1 -2 8 -2q6 0 5 -7q-12 8 -13 2q-4 -29 0 -58q2 -3 7 0t6 0
v-21q-1 -1 -8 -1q-5 -1 -5 -5q-1 -17 -1 -100t4 -98q82 -5 314 -2q2 4 6 6q4 107 3 196q-2 2 -8 2q-7 1 -9 2q-3 6 0 22q15 -2 14 -3q-1 10 2 32q2 19 -2 29q-2 2 -8 1q-5 -1 -6 1q2 1 9 1q6 1 8 3q1 76 -3 197q-12 6 -74 6zM3732 544q0 -52 -6 -58q-7 -7 -35 -7q-8 0 -24 1
q-15 1 -21 1h-170q-4 0 -21 -1h-23q-27 1 -33 8q-4 5 -4 59q0 359 1 434q8 10 40 11q11 1 28 0q21 -1 27 -1h161q68 0 74 -6q9 -8 8 -56q0 -14 -1 -38q-1 -23 -1 -29v-318zM3737 864q0 5 1 27q0 24 1 38q0 49 -8 59q-6 7 -31 8h-23h-23h-163q-80 0 -84 -2q-14 -4 -16 -22
q-1 -2 -1 -33v-390q0 -58 3 -63q6 -9 31 -11h46h179q4 0 23 -1h24q27 1 35 10t8 53q0 12 -1 36t-1 33v258zM3486 803q0 -40 2 -63q13 0 76 -1q47 0 75 2q-1 65 -41 101q-42 37 -112 26q1 -11 0 -65zM3357 693q-7 1 -9 2v36q-9 -1 -30 2q-19 2 -27 1q-9 -2 -21 -15
q-12 -12 -19 -14q7 -27 31 -80q22 -52 29 -79q-3 0 -26 -1q-16 0 -24 2q-9 19 -32 74q-19 47 -32 74q-29 4 -59 0q-2 -23 -1 -74q0 -51 -2 -74q-41 -5 -50 3q-1 29 1 91q3 56 0 90q1 0 -29 1q-5 -14 -5 -38h-4q-3 0 -4 -1q-5 0 -5 -4v-195q12 -6 75 -6h166q75 0 79 4
q3 4 6 40q1 23 0 78q-2 57 0 81q-2 2 -8 2zM1531 693q-7 1 -8 2v36q-10 -1 -31 2q-18 2 -27 1q-8 -2 -20 -15q-13 -12 -20 -14q8 -27 31 -80q23 -52 30 -79q-4 0 -26 -1q-16 0 -25 2q-8 20 -31 74q-20 47 -32 74q-30 4 -59 0q-3 -23 -2 -74t-1 -74q-41 -5 -51 3q-1 29 2 91
q2 56 0 90l-30 1q-5 -14 -4 -38h-5q-3 0 -4 -1q-5 0 -5 -4v-195q13 -6 76 -6h166q74 0 78 4q3 4 6 40q2 23 0 78q-1 57 0 81q-1 2 -8 2zM918 732q0 -82 37 -111q25 -19 52 -17q24 1 45 20q45 42 37 110q-26 2 -84 1t-84 2q-3 -1 -3 -5zM1313 867q-4 -57 0 -116q12 1 33 1
q24 -1 32 -1q36 1 49 15q19 22 11 60q-9 39 -37 45q-15 3 -41 1q-29 -3 -44 -1q-3 -1 -3 -4zM3285 480h-83q-137 0 -163 5q-7 11 -7 58v390v34q1 17 10 21q6 3 78 3h162q74 0 83 -4q4 -13 4 -126v-255q0 -7 1 -30q1 -24 1 -37q0 -44 -8 -53q-6 -6 -78 -6zM3365 989
q-2 1 -3 2q-5 4 -80 5h-166q-67 0 -80 -5q-9 -11 -9 -56v-329q0 -7 -1 -31t-1 -38q-1 -47 10 -55q7 -6 36 -6q8 0 23 1h20h171q76 0 81 5q7 6 7 56v388q0 56 -4 61q-1 1 -4 2zM1107 610q-33 -55 -93 -61q-12 -2 -22 0q-113 14 -125 183q1 4 -6 3t-7 3q1 -7 13 6q4 86 39 138
q16 24 46 37q34 16 72 10q54 -8 85 -62q29 -50 29 -122q1 -4 8 -2q6 1 6 -2q-3 8 -14 -7q0 -75 -31 -124zM1150 719q1 2 7 -1q5 -3 6 2q4 153 0 264q-11 6 -72 6h-235q-15 -3 -17 -21q-1 -5 2 -36q1 -8 -2 -31q-2 -24 -1 -37q8 -88 6 -84q-6 -15 -2 -62q2 -3 7 0q5 2 5 1
q1 -2 2 -22q-16 -9 -15 -6v-98q-1 -61 1 -97q13 -6 77 -6h166q66 0 78 6q3 33 2 98q-1 66 1 97q-1 3 -8 4t-8 5v18zM1133 483h-23q-18 1 -22 1h-169q-72 0 -78 5q-10 10 -10 73q0 18 1 49q1 29 1 35v271q-1 67 9 74q41 3 249 3q70 0 75 -4q9 -8 8 -57q0 -14 -1 -38
q-1 -23 -1 -28v-318q0 -52 -6 -58q-6 -7 -33 -8zM1143 1000q-39 1 -119 0q-92 -1 -121 -1q-57 0 -70 -9q-3 -69 -3 -381q0 -7 -1 -30q-1 -24 -1 -37q0 -47 8 -56q7 -6 35 -6q8 -1 24 0t21 1h172q6 0 21 -1q16 -1 24 -1q29 0 36 6q6 5 6 58v322q0 8 1 31q2 25 2 38
q1 47 -7 57q-7 9 -28 9zM1523 778h4q-1 -6 -4 -6v6zM1226 741q-2 22 2 27q1 -2 1 -14q-1 -10 2 -15q31 3 28 2q5 28 2 89q-4 65 0 96q21 -2 55 0q44 1 53 1q60 -1 86 -23q26 -24 31 -74q6 -52 -15 -89q8 -2 27 -2q21 1 25 0q2 -2 2 -13q1 -10 5 -12q9 8 9 30q1 19 -4 34
q4 11 4 80q0 89 -4 123q-12 6 -73 6q-206 0 -244 -3q-5 -11 -5 -67v-175v-7q-1 -6 -1 -10q1 -11 10 -11q5 5 4 27z" />
    <glyph glyph-name="ordfeminine" unicode="&#xaa;" 
d="M918 654q1 37 -1 53q-396 3 -805 0q-2 -17 -1 -54q0 -38 -2 -55q-48 -2 -42 -1v-472q0 -62 2 -66q7 -24 48 -28q-7 1 78 1h643q96 0 105 4q7 3 21 29v532q-5 2 -23 1q-16 0 -21 3q-2 16 -2 53zM930 829q-9 -64 1 -174q0 -9 31 6q2 15 2 92q0 64 -3 76h-31zM67 829v-174
q3 -1 3 4q0 4 2 5q3 -3 23 -3q2 0 4 -4q1 -3 3 -1v87q0 54 -1 86h-34zM186 1402q-92 0 -96 -1q-18 -6 -22 -33q-1 -8 -1 -56q0 -391 2 -475q7 -2 21 -1t21 0v-55q-1 -33 1 -52q228 -5 805 -2q2 17 1 55q0 38 2 55q37 -1 42 0q2 83 2 475q0 60 -2 66q-9 22 -39 25
q3 -1 -65 -1h-672zM940 14q-4 -1 -56 -1q-109 -1 -297 0h-287h-108q-110 0 -127 16q-13 19 -17 152q-2 80 3 257q0 6 -1 19q-2 14 -2 20v827q0 62 6 80q9 34 45 39h736q99 0 104 -2q23 -6 41 -39v-1248q0 -71 -3 -80q-8 -32 -37 -40zM994 1305q0 69 -4 81q-12 37 -47 46
q-10 2 -104 2h-745q-46 -8 -55 -53q-1 -7 -1 -82v-1247q23 -48 59 -52h841q42 7 53 55q3 10 3 80v1170z" />
    <glyph glyph-name="guillemotleft" unicode="&#xab;" horiz-adv-x="944" 
 />
    <glyph glyph-name="logicalnot" unicode="&#xac;" 
d="M918 654q1 37 -1 53q-396 3 -805 0q-2 -17 -1 -54q0 -38 -2 -55q-48 -2 -42 -1v-472q0 -62 2 -66q7 -24 48 -28q-7 1 78 1h643q96 0 105 4q7 3 21 29v532q-5 2 -23 1q-16 0 -21 3q-2 16 -2 53zM930 829q-9 -64 1 -174q0 -9 31 6q2 15 2 92q0 64 -3 76h-31zM67 829v-174
q3 -1 3 4q0 4 2 5q3 -3 23 -3q2 0 4 -4q1 -3 3 -1v87q0 54 -1 86h-34zM186 1402q-92 0 -96 -1q-18 -6 -22 -33q-1 -8 -1 -56q0 -391 2 -475q7 -2 21 -1t21 0v-55q-1 -33 1 -52q228 -5 805 -2q2 17 1 55q0 38 2 55q37 -1 42 0q2 83 2 475q0 60 -2 66q-9 22 -39 25
q3 -1 -65 -1h-672zM940 14q-4 -1 -56 -1q-109 -1 -297 0h-287h-108q-110 0 -127 16q-13 19 -17 152q-2 80 3 257q0 6 -1 19q-2 14 -2 20v827q0 62 6 80q9 34 45 39h736q99 0 104 -2q23 -6 41 -39v-1248q0 -71 -3 -80q-8 -32 -37 -40zM994 1305q0 69 -4 81q-12 37 -47 46
q-10 2 -104 2h-745q-46 -8 -55 -53q-1 -7 -1 -82v-1247q23 -48 59 -52h841q42 7 53 55q3 10 3 80v1170z" />
    <glyph glyph-name="registered" unicode="&#xae;" horiz-adv-x="3868" 
d="M3698 378q-5 1 -6 2q-2 0 -7 3t-5 9q0 5 3 8q4 3 8 3q5 0 8 -3l2 -4q1 -1 4 -2q4 -2 8 -2q5 0 8 4q3 3 1 8q-3 6 -8 11q-9 10 -23 10t-23 -10q-10 -9 -10 -23q0 -9 5 -15q4 -6 10 -9q5 -4 10 -6q5 -1 6 -2q2 0 7 -3q6 -2 6 -9q0 -4 -3 -7q-3 -4 -8 -4q-4 0 -8 4
q-1 1 -2 3t-4 3t-8 1t-7 -3q-4 -4 -2 -8q3 -6 8 -12q9 -9 23 -9t23 9q10 10 10 23q0 10 -5 16q-4 5 -10 9q-6 3 -11 5zM2269 425q-5 0 -9 -3q-3 -3 -3 -8q0 -4 3 -8q4 -3 9 -3h4q4 0 8 -3q3 -4 3 -8v-65q0 -5 4 -8q3 -3 7 -3q5 0 8 3t3 8v65q0 4 4 8q3 3 8 3h4q5 0 8 3
q4 4 4 8q0 5 -4 8q-3 3 -8 3h-53zM1984 425q-5 0 -8 -3q-4 -3 -4 -8q0 -4 4 -8q3 -3 8 -3h4q5 0 8 -3q4 -4 4 -8v-65q0 -5 3 -8t7 -3q5 0 8 3t3 8v65q0 4 4 8q3 3 8 3h4q5 0 8 3q4 4 4 8q0 5 -4 8q-3 3 -8 3h-53zM2597 403q5 0 9 3q3 4 3 8q0 5 -3 8q-4 3 -9 3h-42
q-5 0 -8 -3q-4 -4 -4 -9v-86q0 -5 3 -8q4 -3 8 -3h43q5 0 9 3q3 3 3 8q0 4 -3 7q-4 3 -9 3h-20q-5 0 -8 4q-4 3 -4 7q0 5 4 8q3 3 8 3h9q5 0 9 4q3 3 3 7q0 5 -3 8q-4 3 -9 3h-9q-5 0 -8 3q-4 4 -4 8q0 5 4 8q3 3 8 3h20zM1125 339q-4 -1 -8 2q-3 3 -3 8v43q0 5 3 8q4 3 8 1
q6 -2 12 -7q9 -10 9 -24q0 -13 -9 -23q-6 -5 -12 -8zM1103 425q-5 0 -8 -3q-3 -4 -3 -9v-86q0 -5 3 -8t8 -3h11q22 0 38 16t16 38q0 23 -16 39t-38 16h-11zM827 337q-13 0 -23 10t-10 23q0 14 10 24q10 9 23 9q14 0 23 -9q10 -10 10 -24q0 -13 -10 -23q-9 -10 -23 -10z
M789 409q-17 -16 -17 -39q0 -22 17 -38q16 -16 38 -16q23 0 39 16t16 38q0 23 -16 39t-39 16q-22 0 -38 -16zM3130 336q-4 -3 -4 -8t4 -9q4 -3 9 -3q7 0 10 3q4 3 4 9q0 5 -3 8q-4 4 -10 4t-10 -4zM3437 403q5 0 8 3q4 4 4 8q0 5 -4 8q-3 3 -8 3h-42q-5 0 -8 -3q-4 -4 -4 -9
v-86q0 -5 3 -8q4 -3 8 -3h43q5 0 8 3q4 3 4 8q0 4 -4 7q-3 3 -8 3h-20q-5 0 -8 4q-4 3 -4 7q0 5 4 8q3 3 8 3h9q5 0 8 4q4 3 4 7q0 5 -4 8q-3 3 -8 3h-9q-5 0 -8 3q-4 4 -4 8q0 5 4 8q3 3 8 3h20zM1746 422q-4 -4 -4 -9v-54q0 -9 -6 -15q-6 -7 -15 -7t-16 7q-6 6 -6 15v54
q0 5 -4 9q-3 3 -7 3q-5 0 -8 -3q-3 -4 -3 -9v-54q0 -18 13 -31q12 -12 31 -12q18 0 31 12q12 13 12 31v54q0 5 -3 9q-3 3 -8 3q-4 0 -7 -3zM2857 370h-8q-3 0 -6 3q-2 2 -2 6v16q0 3 2 6q3 2 6 2h8q7 0 12 -5t5 -11q0 -7 -5 -12t-12 -5zM2889 365q7 10 7 22q0 16 -12 27
q-11 11 -27 11h-27q-5 0 -8 -3q-3 -4 -3 -9v-86q0 -5 3 -8t8 -3q4 0 8 3q3 3 3 8v17q0 5 2 5q2 1 5 -3l14 -21q3 -4 8 -7q6 -2 11 -2h3q5 0 6 2q2 3 -1 7l-11 16q-3 4 -2 8t5 7q4 4 8 9zM235 425q-5 0 -10 -3q-5 -4 -7 -8l-12 -30q-2 -5 -5 -5q-2 0 -4 5l-12 30q-2 4 -5 4
t-5 -4l-12 -30q-2 -5 -4 -5q-3 0 -5 5l-12 30q-2 4 -7 8q-5 3 -10 3h-1q-5 0 -7 -3q-2 -4 0 -8l37 -94q2 -4 4 -4q3 0 5 4l12 31q2 5 5 5q2 0 4 -5l13 -31q2 -4 4 -4q3 0 5 4l37 94q2 4 0 8q-2 3 -8 3v0zM1447 400q4 -2 9 -2t8 3q3 4 3 8t-4 7t-9 5q-10 4 -21 4
q-23 0 -39 -16t-16 -39q0 -22 16 -38t39 -16q11 0 21 4q5 2 9 5q4 2 4 7q0 4 -3 7t-8 4q-5 0 -9 -3q-7 -3 -14 -3q-14 0 -23 10q-10 10 -10 23q0 14 10 24q9 9 23 9q7 0 14 -3zM508 337q-13 0 -23 10t-10 23q0 14 10 24q10 9 23 9q14 0 24 -9q9 -10 9 -24q0 -13 -9 -23
q-10 -10 -24 -10zM470 409q-16 -16 -16 -39q0 -22 16 -38t38 -16q23 0 39 16t16 38q0 23 -16 39t-39 16q-22 0 -38 -16zM2122 774q29 13 26 54q-2 17 -10 30q-10 13 -23 16q-11 3 -31 1q-22 -2 -33 -1q-3 -1 -4 -4q0 -9 -1 -50q0 -31 2 -48q76 3 74 2zM2047 712
q0 -10 -1 -55q0 -33 2 -52q3 0 48 -2q28 -2 42 5q22 10 28 39t-8 51q-11 16 -44 18q-10 1 -30 0h-33q-3 -1 -4 -4zM1827 732h-41q-4 -1 -3 -9q0 -8 -2 -10h-78q-2 -17 -3 -111q23 -2 64 -2q55 1 66 0q-1 -8 1 -27q1 -17 -1 -26q-89 -4 -177 0q-2 34 -2 91v93q-8 2 -35 1
q-4 0 -10 -1q-5 -1 -8 -1q-7 0 -6 8q0 4 8 4q1 0 7 -1q5 -1 9 -1q6 -1 17 0h17q2 26 1 94q-1 62 3 92h90q55 1 88 -1q0 -8 -1 -26q-1 -16 -1 -26q-23 -2 -63 -2q-53 1 -64 0q-2 -18 -2 -50q1 -43 0 -52q14 -2 39 -1h41q-1 2 2 -27q15 -2 54 -1q39 0 52 -2q0 -6 -8 -7
q-3 0 -8 1h-6h-40zM1898 693q-7 1 -9 2v31q17 -13 12 -13q5 52 2 61q-2 2 -8 1q-6 -2 -6 2q1 2 8 2q7 1 9 2q-1 169 -3 198q-13 5 -76 5h-240q-3 -1 -4 -5q-4 -12 -4 -102q0 -80 1 -96q1 -1 8 -2q6 0 7 -2q-1 -1 1 -12q2 -9 -4 -11q0 18 0 15q-1 8 -8 8q-7 -6 -6 -29
q0 -6 1 -18t1 -16q1 -1 7 0q6 0 6 -3q-1 -17 0 -16q-1 -1 -8 -2q-5 0 -5 -4q-5 -162 3 -198q57 -4 154 -3h158q9 8 11 41q1 26 0 80q-1 58 0 82q-2 2 -8 2zM3348 778h5q-2 -6 -5 -6v6zM3051 741q-1 22 3 27v-14q0 -10 3 -15q30 3 28 2q4 28 1 89q-3 65 0 96q21 -2 55 0
q44 1 54 1q60 -1 85 -23q27 -24 32 -74q5 -52 -15 -89q7 -2 26 -2q22 1 25 0q2 -2 3 -13q0 -10 5 -12q8 8 9 30q0 19 -5 34q5 11 5 80q0 90 -5 123q-12 6 -72 6q-207 0 -245 -3q-4 -11 -4 -67v-175q0 -1 -1 -7v-10q0 -11 10 -11q5 5 3 27zM1823 481h-167q-5 0 -19 -1
q-15 -1 -23 -1q-29 0 -35 7q-8 8 -8 57q0 14 1 37t1 28v317q0 4 -1 22q-1 13 0 19q2 20 15 24q5 1 82 1h157q71 0 75 -3q10 -6 11 -55q0 -15 -1 -38q-1 -25 -1 -28v-326q0 -50 -7 -56q-6 -4 -80 -4zM1832 996h-163q-80 0 -85 -2q-12 -4 -15 -20q-1 -5 -1 -35v-390
q0 -58 3 -63q6 -10 33 -11q-2 0 44 0h178q73 0 81 7t8 58v391q0 52 -8 59q-6 6 -75 6zM2835 864q-22 -77 -30 -123q31 -4 62 0q-14 78 -32 123zM2925 732q5 -32 22 -91q18 -64 24 -94q-8 -2 -24 -1h-25q-7 9 -12 35q-5 27 -12 36h-121q-9 -9 -14 -34q-6 -29 -11 -37
q-55 5 -51 3q18 61 48 182q-4 1 -33 1h-9q-6 -1 -8 -1q-9 0 -11 4q0 6 10 6q2 0 8 -1h9h34q5 10 26 90q4 12 13 46q9 29 13 46q-1 1 0 2t1 2h70q-2 6 25 -95q21 -79 27 -91h34h8h8q10 0 12 -3q-3 -5 -12 -6q-3 0 -8 1h-8h-33zM2761 984h-24q-17 1 -26 1q-30 -1 -36 -9v-195
q1 -1 6 -2t6 -2q-6 -1 -12 -3v-60q2 -2 7 1t6 2q6 -11 0 -22q-1 -1 -7 -2q-5 0 -6 -2q-4 -44 0 -92q1 -9 -2 -27q-2 -19 -1 -28q5 -55 4 -53q41 -3 242 -3q65 0 78 4q5 52 2 199q-1 2 -7 3q-6 0 -7 3v19q14 6 14 0q2 9 1 27v29q-1 3 -8 3q-6 -1 -5 2q-1 3 6 2q6 0 6 4
q1 25 1 155v13q1 8 1 12q-1 14 -8 21h-231zM1459 480h-83q-137 0 -163 5q-7 11 -7 58v390v34q2 17 10 21q6 3 79 3h161q75 0 83 -4q5 -13 5 -126v-255v-30q1 -24 2 -37q0 -44 -8 -53q-6 -6 -79 -6zM1540 989q-3 1 -4 2q-4 4 -80 5h-166q-67 0 -80 -5q-8 -11 -8 -56v-329
q0 -7 -2 -31q-1 -24 -1 -38q0 -47 10 -55q7 -6 36 -6q8 0 24 1h20h170q76 0 82 5q7 6 7 56v388q0 56 -4 61zM2604 477q-8 -1 -23 0h-22h-169q-72 0 -78 6q-10 10 -10 73q0 18 1 49q1 29 1 35v271q-1 67 9 74q41 3 249 3q70 0 75 -4q9 -8 8 -57q0 -14 -1 -38q-1 -23 -1 -28
v-319q0 -51 -6 -57q-6 -8 -33 -8zM2614 994q-40 0 -119 -1q-92 -1 -121 -1q-57 0 -70 -8q-3 -69 -3 -381q0 -7 -1 -30q-1 -24 -1 -38q0 -46 8 -55q7 -6 35 -7q8 0 24 1h21h172h21q16 -1 24 -1q29 -1 36 6q6 5 6 58v322q0 8 1 31q1 25 2 38q0 47 -7 57q-7 9 -28 9zM2201 735
q21 -28 20 -75q-1 -45 -20 -73q-23 -32 -85 -38q-22 -2 -118 1v93q0 57 -2 91q-3 2 -19 1q-15 -1 -16 5q-1 -6 34 3q4 27 3 93q-2 66 3 93q21 -2 63 1q39 2 58 -1q56 -8 70 -70q14 -60 -23 -102q7 -14 40 -14q48 -1 49 -2q0 -6 -10 -7q-3 0 -8 1h-8h-31zM2272 694q-2 2 -8 2
q-6 1 -7 4v19q1 1 7 -1q4 -2 8 1v56q-1 3 -8 3q-6 -1 -6 2t6 2q7 0 6 4q2 38 2 96q-1 81 0 97q-5 3 -8 8h-311q-3 -1 -4 -5q-4 -98 0 -198q1 -2 6 -2q6 -1 6 -4q-1 0 -5 1t-7 -1q-4 -32 0 -62q1 -1 6 3t7 1v-22q-1 -1 -8 -2q-5 0 -7 -2v-157v-13v-12q1 -14 8 -21h309
q7 6 8 20v12v12v159zM2578 604q-33 -55 -93 -62q-12 -1 -22 0q-113 14 -125 184q1 3 -6 3q-7 -1 -7 3q1 -8 13 6q4 86 39 138q16 23 46 37q34 15 72 10q54 -8 85 -62q29 -51 29 -122q1 -4 7 -2q7 1 7 -2q-3 8 -14 -8q-1 -74 -31 -123zM2621 713q1 2 7 -1q5 -3 6 2
q4 153 0 264q-11 6 -72 6h-235q-16 -4 -17 -21q-1 -5 2 -36q0 -8 -2 -32q-2 -23 -1 -36q8 -89 6 -84q-6 -16 -2 -62q2 -3 7 -1q5 3 5 2q1 -2 2 -22q-16 -9 -15 -6v-99q-1 -60 1 -96q13 -6 77 -6h166q66 0 78 6q3 33 2 98q-1 66 1 97q-1 3 -8 4t-8 5v18zM2921 481h-166
q-73 0 -79 4q-13 10 -9 120v324q0 37 1 38q2 19 13 24h244q70 0 75 -6q9 -8 9 -56q-1 -14 -2 -38q-1 -23 -1 -29v-319q0 -50 -7 -57q-6 -5 -78 -5zM2928 996h-163q-79 0 -84 -2q-15 -4 -17 -29q-1 -9 0 -24v-25v-327q1 -9 -1 -27q-2 -19 -1 -28q1 -41 5 -48q8 -10 35 -11
q-2 0 47 0h179q2 0 22 -1h23q27 2 33 12q3 5 3 61v320q0 117 -6 123t-75 6zM2190 484h-166q-70 0 -77 6q-9 8 -9 55q0 14 1 37t1 29v257q0 7 -1 35q-1 24 0 38q1 45 14 53q28 0 161 1q99 0 158 -4q7 -19 7 -123v-260q0 -7 1 -31q1 -23 1 -37q0 -44 -11 -52q-6 -4 -80 -4z
M2282 552q0 360 -3 438q-12 9 -34 10q-7 0 -20 -1h-20h-249q-16 -4 -19 -24v-366q0 -8 -1 -31q-1 -24 -1 -37q-1 -45 8 -54q8 -9 36 -10h24q19 1 23 1h186q38 0 43 1q22 3 27 16v57zM2541 831q-23 41 -71 40q-33 -1 -56 -30q-31 -38 -24 -105q15 1 86 0q53 0 84 2
q1 58 -19 93zM2389 726q0 -82 37 -111q25 -19 52 -18q24 2 45 21q45 41 37 109q-26 3 -84 2t-84 1q-3 -1 -3 -4zM549 484q-72 0 -78 6q-8 7 -9 50q0 13 1 36v29v362q2 21 14 27h239q73 0 77 -3q11 -7 11 -52q0 -13 -1 -37t-1 -31v-322q0 -51 -6 -58t-33 -8h-23q-18 1 -22 1
h-169zM805 867q0 119 -4 124q-6 8 -74 8h-164q-79 0 -85 -2q-11 -2 -14 -8q-3 -5 -4 -21v-416q0 -58 3 -62q6 -10 33 -12h44h179q4 0 22 -1h25q28 1 35 10q4 5 4 59v321zM660 738q8 5 55 5q55 0 65 1q1 0 2 -6q-44 -9 -91 0q-17 -7 -31 0zM542 612q-27 47 -33 122
q-2 2 -13 1t-12 3q-1 6 8 5q13 -1 16 0q4 72 31 121q32 58 89 65q44 6 79 -14q32 -18 48 -52q-23 -19 -43 -30q-39 41 -78 35q-37 -5 -56 -43q-17 -35 -15 -81q12 -2 49 -1q33 1 47 -3q-14 -6 -46 -5q-43 1 -50 0q-3 -48 19 -85q25 -40 65 -41q17 0 35 11q6 4 14 10
q11 8 15 11q8 -4 39 -29q-14 -32 -44 -49q-32 -18 -72 -14q-60 6 -92 63zM638 987q-131 -1 -158 0l-9 -9v-98q-1 -60 1 -96q1 -1 8 -2q6 0 6 -4q-2 -1 -8 0q-6 2 -7 -1v-31q-1 -19 1 -29q1 -1 6 2q6 3 8 0v-21q-2 -1 -8 -1q-6 -1 -6 -5q-2 -22 -1 -79q1 -53 -3 -78
q3 -4 2 -22q0 -16 7 -20q58 -2 154 -2h156q3 5 8 7v196q-1 2 -8 2q-6 1 -7 4q1 20 2 22q10 -7 13 -5v58q-1 3 -8 3q-6 -1 -5 2q0 3 5 3q7 0 8 1v102q1 60 -3 98q-57 4 -154 3zM3138 867q-4 -57 0 -116q12 1 33 1q25 -1 33 -1q36 1 48 15q20 22 11 60q-9 39 -36 45
q-15 3 -42 1q-28 -3 -44 -1q-3 -1 -3 -4zM1070 838q-23 41 -71 39q-33 -1 -56 -29q-31 -39 -24 -105q15 0 86 -1q53 0 84 2q2 58 -19 94zM2805 732q-7 -6 -10 -23q-1 -2 -3 -13q-2 -9 -3 -14q14 -2 47 -2q34 1 45 -1q2 16 -11 53h-65zM3486 728v-126q71 -7 112 29
q39 35 41 100q-27 2 -74 1h-76q-3 -1 -3 -4zM413 763q0 -7 -2 -11q-3 3 -1 21q3 -2 3 -10zM418 696q-6 -1 -7 1q0 8 -1 20q-2 11 -2 17q-40 4 -78 0q45 -59 34 -112q-6 -26 -30 -48q-25 -20 -54 -25q-68 -10 -120 30q3 7 9 26q5 18 10 26q26 -25 74 -27q50 -2 62 30
q8 20 0 38q-6 15 -37 37q-34 24 -47 27q-19 3 -54 0q-37 -3 -56 0q-3 1 -5 -4q-1 -4 -4 -2q5 14 5 13q72 -4 102 2q-32 24 -45 47q-19 33 -11 74q5 24 29 40q22 16 53 21q70 12 106 -27q-1 -4 -7 -25q-3 -16 -7 -25q-23 21 -72 21q-52 0 -56 -29q-3 -17 20 -40q7 -6 61 -41
q32 -21 31 -21q13 -2 45 1q35 3 47 2l-1 -15q-1 -8 4 -11h7q2 9 2 28q-1 25 0 31q-2 2 -9 1q-5 -1 -5 2t6 3q7 0 8 1v197q-12 8 -34 8h-19q-14 -1 -20 -1h-240q-10 -2 -12 -12q0 1 0 -20q0 -16 -1 -83q-1 -55 0 -89q1 -1 10 -1q7 0 6 -6q0 -1 -5 1q-6 2 -8 -1q-3 -8 1 -59
q6 -3 9 4q2 6 3 4v-28q-17 -7 -16 -6q2 -173 6 -197q209 -3 219 -2q11 1 54 -1q31 -1 45 5q2 38 2 98q-1 83 0 100q-1 2 -7 2zM432 548q0 -52 -6 -58t-33 -7q-9 0 -24 1h-21h-168q-76 0 -80 3q-8 7 -8 56q1 14 2 38t1 29v320q0 51 5 57q6 6 77 6h166q71 0 80 -3q8 -4 9 -25
q0 5 0 -41v-376zM425 992q-9 6 -80 6h-169q-74 0 -80 -6q-9 -9 -8 -54q0 -13 1 -36t1 -30v-379q9 -14 31 -16h43h181q5 0 22 -1h24q30 0 38 8q7 7 7 56v385q0 57 -4 61q-4 3 -7 6zM3652 606q-39 -54 -106 -60q-1 0 -110 1v89v93q-2 4 -11 3q-10 -2 -11 -1v9q1 3 9 0
q8 -2 12 1q2 32 1 91v90q-2 0 0 2t3 2q20 -1 58 0q35 2 52 0q62 -6 102 -58q38 -51 38 -124q1 -5 12 -4q10 0 10 -2q2 -7 -7 -6q-12 0 -13 -1q-3 -76 -39 -125zM3651 984h-241l-9 -9q0 -17 -1 -98q0 -60 2 -96q1 -2 8 -2q6 0 5 -7q-12 8 -13 2q-4 -29 0 -58q2 -3 7 0t6 0
v-21q-1 -1 -8 -1q-5 -1 -5 -5q-1 -17 -1 -100t4 -98q82 -5 314 -2q2 4 6 6q4 107 3 196q-2 2 -8 2q-7 1 -9 2q-3 6 0 22q15 -2 14 -3q-1 10 2 32q2 19 -2 29q-2 2 -8 1q-5 -1 -6 1q2 1 9 1q6 1 8 3q1 76 -3 197q-12 6 -74 6zM3732 544q0 -52 -6 -58q-7 -7 -35 -7q-8 0 -24 1
q-15 1 -21 1h-170q-4 0 -21 -1h-23q-27 1 -33 8q-4 5 -4 59q0 359 1 434q8 10 40 11q11 1 28 0q21 -1 27 -1h161q68 0 74 -6q9 -8 8 -56q0 -14 -1 -38q-1 -23 -1 -29v-318zM3737 864q0 5 1 27q0 24 1 38q0 49 -8 59q-6 7 -31 8h-23h-23h-163q-80 0 -84 -2q-14 -4 -16 -22
q-1 -2 -1 -33v-390q0 -58 3 -63q6 -9 31 -11h46h179q4 0 23 -1h24q27 1 35 10t8 53q0 12 -1 36t-1 33v258zM3486 803q0 -40 2 -63q13 0 76 -1q47 0 75 2q-1 65 -41 101q-42 37 -112 26q1 -11 0 -65zM3357 693q-7 1 -9 2v36q-9 -1 -30 2q-19 2 -27 1q-9 -2 -21 -15
q-12 -12 -19 -14q7 -27 31 -80q22 -52 29 -79q-3 0 -26 -1q-16 0 -24 2q-9 19 -32 74q-19 47 -32 74q-29 4 -59 0q-2 -23 -1 -74q0 -51 -2 -74q-41 -5 -50 3q-1 29 1 91q3 56 0 90q1 0 -29 1q-5 -14 -5 -38h-4q-3 0 -4 -1q-5 0 -5 -4v-195q12 -6 75 -6h166q75 0 79 4
q3 4 6 40q1 23 0 78q-2 57 0 81q-2 2 -8 2zM1531 693q-7 1 -8 2v36q-10 -1 -31 2q-18 2 -27 1q-8 -2 -20 -15q-13 -12 -20 -14q8 -27 31 -80q23 -52 30 -79q-4 0 -26 -1q-16 0 -25 2q-8 20 -31 74q-20 47 -32 74q-30 4 -59 0q-3 -23 -2 -74t-1 -74q-41 -5 -51 3q-1 29 2 91
q2 56 0 90l-30 1q-5 -14 -4 -38h-5q-3 0 -4 -1q-5 0 -5 -4v-195q13 -6 76 -6h166q74 0 78 4q3 4 6 40q2 23 0 78q-1 57 0 81q-1 2 -8 2zM918 732q0 -82 37 -111q25 -19 52 -17q24 1 45 20q45 42 37 110q-26 2 -84 1t-84 2q-3 -1 -3 -5zM1313 867q-4 -57 0 -116q12 1 33 1
q24 -1 32 -1q36 1 49 15q19 22 11 60q-9 39 -37 45q-15 3 -41 1q-29 -3 -44 -1q-3 -1 -3 -4zM3285 480h-83q-137 0 -163 5q-7 11 -7 58v390v34q1 17 10 21q6 3 78 3h162q74 0 83 -4q4 -13 4 -126v-255q0 -7 1 -30q1 -24 1 -37q0 -44 -8 -53q-6 -6 -78 -6zM3365 989
q-2 1 -3 2q-5 4 -80 5h-166q-67 0 -80 -5q-9 -11 -9 -56v-329q0 -7 -1 -31t-1 -38q-1 -47 10 -55q7 -6 36 -6q8 0 23 1h20h171q76 0 81 5q7 6 7 56v388q0 56 -4 61q-1 1 -4 2zM1107 610q-33 -55 -93 -61q-12 -2 -22 0q-113 14 -125 183q1 4 -6 3t-7 3q1 -7 13 6q4 86 39 138
q16 24 46 37q34 16 72 10q54 -8 85 -62q29 -50 29 -122q1 -4 8 -2q6 1 6 -2q-3 8 -14 -7q0 -75 -31 -124zM1150 719q1 2 7 -1q5 -3 6 2q4 153 0 264q-11 6 -72 6h-235q-15 -3 -17 -21q-1 -5 2 -36q1 -8 -2 -31q-2 -24 -1 -37q8 -88 6 -84q-6 -15 -2 -62q2 -3 7 0q5 2 5 1
q1 -2 2 -22q-16 -9 -15 -6v-98q-1 -61 1 -97q13 -6 77 -6h166q66 0 78 6q3 33 2 98q-1 66 1 97q-1 3 -8 4t-8 5v18zM1133 483h-23q-18 1 -22 1h-169q-72 0 -78 5q-10 10 -10 73q0 18 1 49q1 29 1 35v271q-1 67 9 74q41 3 249 3q70 0 75 -4q9 -8 8 -57q0 -14 -1 -38
q-1 -23 -1 -28v-318q0 -52 -6 -58q-6 -7 -33 -8zM1143 1000q-39 1 -119 0q-92 -1 -121 -1q-57 0 -70 -9q-3 -69 -3 -381q0 -7 -1 -30q-1 -24 -1 -37q0 -47 8 -56q7 -6 35 -6q8 -1 24 0t21 1h172q6 0 21 -1q16 -1 24 -1q29 0 36 6q6 5 6 58v322q0 8 1 31q2 25 2 38
q1 47 -7 57q-7 9 -28 9zM1523 778h4q-1 -6 -4 -6v6zM1226 741q-2 22 2 27q1 -2 1 -14q-1 -10 2 -15q31 3 28 2q5 28 2 89q-4 65 0 96q21 -2 55 0q44 1 53 1q60 -1 86 -23q26 -24 31 -74q6 -52 -15 -89q8 -2 27 -2q21 1 25 0q2 -2 2 -13q1 -10 5 -12q9 8 9 30q1 19 -4 34
q4 11 4 80q0 89 -4 123q-12 6 -73 6q-206 0 -244 -3q-5 -11 -5 -67v-175v-7q-1 -6 -1 -10q1 -11 10 -11q5 5 4 27z" />
    <glyph glyph-name="macron" unicode="&#xaf;" horiz-adv-x="670" 
 />
    <glyph glyph-name="degree" unicode="&#xb0;" horiz-adv-x="674" 
 />
    <glyph glyph-name="plusminus" unicode="&#xb1;" horiz-adv-x="1014" 
 />
    <glyph glyph-name="uni00B2" unicode="&#xb2;" horiz-adv-x="1014" 
 />
    <glyph glyph-name="uni00B3" unicode="&#xb3;" horiz-adv-x="1014" 
 />
    <glyph glyph-name="acute" unicode="&#xb4;" horiz-adv-x="1024" 
 />
    <glyph glyph-name="mu" unicode="&#xb5;" 
d="M918 654q1 37 -1 53q-396 3 -805 0q-2 -17 -1 -54q0 -38 -2 -55q-48 -2 -42 -1v-472q0 -62 2 -66q7 -24 48 -28q-7 1 78 1h643q96 0 105 4q7 3 21 29v532q-5 2 -23 1q-16 0 -21 3q-2 16 -2 53zM930 829q-9 -64 1 -174q0 -9 31 6q2 15 2 92q0 64 -3 76h-31zM67 829v-174
q3 -1 3 4q0 4 2 5q3 -3 23 -3q2 0 4 -4q1 -3 3 -1v87q0 54 -1 86h-34zM186 1402q-92 0 -96 -1q-18 -6 -22 -33q-1 -8 -1 -56q0 -391 2 -475q7 -2 21 -1t21 0v-55q-1 -33 1 -52q228 -5 805 -2q2 17 1 55q0 38 2 55q37 -1 42 0q2 83 2 475q0 60 -2 66q-9 22 -39 25
q3 -1 -65 -1h-672zM940 14q-4 -1 -56 -1q-109 -1 -297 0h-287h-108q-110 0 -127 16q-13 19 -17 152q-2 80 3 257q0 6 -1 19q-2 14 -2 20v827q0 62 6 80q9 34 45 39h736q99 0 104 -2q23 -6 41 -39v-1248q0 -71 -3 -80q-8 -32 -37 -40zM994 1305q0 69 -4 81q-12 37 -47 46
q-10 2 -104 2h-745q-46 -8 -55 -53q-1 -7 -1 -82v-1247q23 -48 59 -52h841q42 7 53 55q3 10 3 80v1170z" />
    <glyph glyph-name="paragraph" unicode="&#xb6;" 
d="M918 654q1 37 -1 53q-396 3 -805 0q-2 -17 -1 -54q0 -38 -2 -55q-48 -2 -42 -1v-472q0 -62 2 -66q7 -24 48 -28q-7 1 78 1h643q96 0 105 4q7 3 21 29v532q-5 2 -23 1q-16 0 -21 3q-2 16 -2 53zM930 829q-9 -64 1 -174q0 -9 31 6q2 15 2 92q0 64 -3 76h-31zM67 829v-174
q3 -1 3 4q0 4 2 5q3 -3 23 -3q2 0 4 -4q1 -3 3 -1v87q0 54 -1 86h-34zM186 1402q-92 0 -96 -1q-18 -6 -22 -33q-1 -8 -1 -56q0 -391 2 -475q7 -2 21 -1t21 0v-55q-1 -33 1 -52q228 -5 805 -2q2 17 1 55q0 38 2 55q37 -1 42 0q2 83 2 475q0 60 -2 66q-9 22 -39 25
q3 -1 -65 -1h-672zM940 14q-4 -1 -56 -1q-109 -1 -297 0h-287h-108q-110 0 -127 16q-13 19 -17 152q-2 80 3 257q0 6 -1 19q-2 14 -2 20v827q0 62 6 80q9 34 45 39h736q99 0 104 -2q23 -6 41 -39v-1248q0 -71 -3 -80q-8 -32 -37 -40zM994 1305q0 69 -4 81q-12 37 -47 46
q-10 2 -104 2h-745q-46 -8 -55 -53q-1 -7 -1 -82v-1247q23 -48 59 -52h841q42 7 53 55q3 10 3 80v1170z" />
    <glyph glyph-name="periodcentered" unicode="&#xb7;" horiz-adv-x="508" 
 />
    <glyph glyph-name="periodcentered" unicode="&#x2219;" horiz-adv-x="508" 
 />
    <glyph glyph-name="cedilla" unicode="&#xb8;" horiz-adv-x="1024" 
 />
    <glyph glyph-name="uni00B9" unicode="&#xb9;" horiz-adv-x="1014" 
 />
    <glyph glyph-name="ordmasculine" unicode="&#xba;" horiz-adv-x="718" 
 />
    <glyph glyph-name="guillemotright" unicode="&#xbb;" horiz-adv-x="944" 
 />
    <glyph glyph-name="onequarter" unicode="&#xbc;" horiz-adv-x="1708" 
 />
    <glyph glyph-name="onehalf" unicode="&#xbd;" horiz-adv-x="1964" 
 />
    <glyph glyph-name="threequarters" unicode="&#xbe;" horiz-adv-x="1708" 
 />
    <glyph glyph-name="questiondown" unicode="&#xbf;" 
d="M918 654q1 37 -1 53q-396 3 -805 0q-2 -17 -1 -54q0 -38 -2 -55q-48 -2 -42 -1v-472q0 -62 2 -66q7 -24 48 -28q-7 1 78 1h643q96 0 105 4q7 3 21 29v532q-5 2 -23 1q-16 0 -21 3q-2 16 -2 53zM930 829q-9 -64 1 -174q0 -9 31 6q2 15 2 92q0 64 -3 76h-31zM67 829v-174
q3 -1 3 4q0 4 2 5q3 -3 23 -3q2 0 4 -4q1 -3 3 -1v87q0 54 -1 86h-34zM186 1402q-92 0 -96 -1q-18 -6 -22 -33q-1 -8 -1 -56q0 -391 2 -475q7 -2 21 -1t21 0v-55q-1 -33 1 -52q228 -5 805 -2q2 17 1 55q0 38 2 55q37 -1 42 0q2 83 2 475q0 60 -2 66q-9 22 -39 25
q3 -1 -65 -1h-672zM940 14q-4 -1 -56 -1q-109 -1 -297 0h-287h-108q-110 0 -127 16q-13 19 -17 152q-2 80 3 257q0 6 -1 19q-2 14 -2 20v827q0 62 6 80q9 34 45 39h736q99 0 104 -2q23 -6 41 -39v-1248q0 -71 -3 -80q-8 -32 -37 -40zM994 1305q0 69 -4 81q-12 37 -47 46
q-10 2 -104 2h-745q-46 -8 -55 -53q-1 -7 -1 -82v-1247q23 -48 59 -52h841q42 7 53 55q3 10 3 80v1170z" />
    <glyph glyph-name="Agrave" unicode="&#xc0;" horiz-adv-x="1049" 
d="M440 710q-19 -18 -29 -63q-2 -8 -7 -38q-5 -24 -8 -37q38 -6 131 -5q91 1 121 -4q7 44 -29 147h-179zM522 1072q-61 -212 -82 -338q86 -12 171 0q-39 215 -89 338zM770 710q15 -87 61 -251q49 -175 65 -258q-22 -5 -64 -4q-61 1 -70 0q-19 25 -33 97q-14 74 -32 98h-334
q-23 -24 -38 -93q-17 -78 -31 -102q-10 1 -74 -1q-46 -1 -64 9q49 171 130 501q-12 4 -90 4q-8 0 -24 -1q-17 -1 -23 -2q-26 0 -30 11q1 15 26 15q7 0 24 -1q16 -2 23 -2h94q15 28 73 249q9 32 35 127q23 79 34 125q0 3 2 6q2 4 2 6h192q12 -49 34 -129q27 -103 35 -131
q58 -219 73 -253h94q7 0 23 1t23 2q25 0 31 -11q-7 -14 -32 -14q-7 0 -23 1t-22 1h-90zM318 1402q-15 0 -66 1q-45 2 -71 1q-80 -1 -99 -23v-537q4 -3 17 -5t16 -7q-16 -1 -33 -8v-163q6 -6 20 3q15 8 17 5q16 -30 0 -61q-4 -3 -19 -5q-14 -2 -18 -7q-12 -120 0 -252
q2 -25 -4 -75q-6 -51 -4 -76q14 -152 12 -146q113 -9 664 -9q179 0 215 13q14 142 4 545q-1 7 -18 8q-17 0 -18 8v53q39 16 36 0q6 25 5 75q-1 66 0 80q-3 9 -21 7q-17 -2 -16 5q-1 9 17 8q17 -1 15 8q5 71 5 428q0 8 1 35q1 22 0 34q-2 39 -22 57h-635zM879 16
q-23 -1 -63 1q-45 1 -58 1h-456q-15 0 -55 -2q-42 -2 -63 -2q-76 0 -98 16q-37 28 -24 330v891v106q6 50 37 65h671q14 0 59 1q40 1 62 1q70 -1 87 -18q23 -24 22 -156q-1 -38 -3 -104q-3 -62 -3 -78v-879q0 -136 -20 -155q-19 -17 -95 -18zM1002 1080q0 11 2 76q2 64 2 105
q0 137 -20 157q-17 16 -208 16h-447q-219 0 -232 -4q-42 -12 -47 -80q-2 -24 0 -66q2 -56 2 -69v-900q1 -23 -4 -73q-5 -53 -4 -77q3 -113 16 -131q21 -28 94 -32q-5 0 130 0h492q6 0 60 -2q40 -1 65 1q73 4 91 33q8 14 8 167v879z" />
    <glyph glyph-name="Aacute" unicode="&#xc1;" horiz-adv-x="1049" 
d="M440 710q-19 -18 -29 -63q-2 -8 -7 -38q-5 -24 -8 -37q38 -6 131 -5q91 1 121 -4q7 44 -29 147h-179zM522 1072q-61 -212 -82 -338q86 -12 171 0q-39 215 -89 338zM770 710q15 -87 61 -251q49 -175 65 -258q-22 -5 -64 -4q-61 1 -70 0q-19 25 -33 97q-14 74 -32 98h-334
q-23 -24 -38 -93q-17 -78 -31 -102q-10 1 -74 -1q-46 -1 -64 9q49 171 130 501q-12 4 -90 4q-8 0 -24 -1q-17 -1 -23 -2q-26 0 -30 11q1 15 26 15q7 0 24 -1q16 -2 23 -2h94q15 28 73 249q9 32 35 127q23 79 34 125q0 3 2 6q2 4 2 6h192q12 -49 34 -129q27 -103 35 -131
q58 -219 73 -253h94q7 0 23 1t23 2q25 0 31 -11q-7 -14 -32 -14q-7 0 -23 1t-22 1h-90zM318 1402q-15 0 -66 1q-45 2 -71 1q-80 -1 -99 -23v-537q4 -3 17 -5t16 -7q-16 -1 -33 -8v-163q6 -6 20 3q15 8 17 5q16 -30 0 -61q-4 -3 -19 -5q-14 -2 -18 -7q-12 -120 0 -252
q2 -25 -4 -75q-6 -51 -4 -76q14 -152 12 -146q113 -9 664 -9q179 0 215 13q14 142 4 545q-1 7 -18 8q-17 0 -18 8v53q39 16 36 0q6 25 5 75q-1 66 0 80q-3 9 -21 7q-17 -2 -16 5q-1 9 17 8q17 -1 15 8q5 71 5 428q0 8 1 35q1 22 0 34q-2 39 -22 57h-635zM879 16
q-23 -1 -63 1q-45 1 -58 1h-456q-15 0 -55 -2q-42 -2 -63 -2q-76 0 -98 16q-37 28 -24 330v891v106q6 50 37 65h671q14 0 59 1q40 1 62 1q70 -1 87 -18q23 -24 22 -156q-1 -38 -3 -104q-3 -62 -3 -78v-879q0 -136 -20 -155q-19 -17 -95 -18zM1002 1080q0 11 2 76q2 64 2 105
q0 137 -20 157q-17 16 -208 16h-447q-219 0 -232 -4q-42 -12 -47 -80q-2 -24 0 -66q2 -56 2 -69v-900q1 -23 -4 -73q-5 -53 -4 -77q3 -113 16 -131q21 -28 94 -32q-5 0 130 0h492q6 0 60 -2q40 -1 65 1q73 4 91 33q8 14 8 167v879z" />
    <glyph glyph-name="Acircumflex" unicode="&#xc2;" horiz-adv-x="1049" 
d="M440 710q-19 -18 -29 -63q-2 -8 -7 -38q-5 -24 -8 -37q38 -6 131 -5q91 1 121 -4q7 44 -29 147h-179zM522 1072q-61 -212 -82 -338q86 -12 171 0q-39 215 -89 338zM770 710q15 -87 61 -251q49 -175 65 -258q-22 -5 -64 -4q-61 1 -70 0q-19 25 -33 97q-14 74 -32 98h-334
q-23 -24 -38 -93q-17 -78 -31 -102q-10 1 -74 -1q-46 -1 -64 9q49 171 130 501q-12 4 -90 4q-8 0 -24 -1q-17 -1 -23 -2q-26 0 -30 11q1 15 26 15q7 0 24 -1q16 -2 23 -2h94q15 28 73 249q9 32 35 127q23 79 34 125q0 3 2 6q2 4 2 6h192q12 -49 34 -129q27 -103 35 -131
q58 -219 73 -253h94q7 0 23 1t23 2q25 0 31 -11q-7 -14 -32 -14q-7 0 -23 1t-22 1h-90zM318 1402q-15 0 -66 1q-45 2 -71 1q-80 -1 -99 -23v-537q4 -3 17 -5t16 -7q-16 -1 -33 -8v-163q6 -6 20 3q15 8 17 5q16 -30 0 -61q-4 -3 -19 -5q-14 -2 -18 -7q-12 -120 0 -252
q2 -25 -4 -75q-6 -51 -4 -76q14 -152 12 -146q113 -9 664 -9q179 0 215 13q14 142 4 545q-1 7 -18 8q-17 0 -18 8v53q39 16 36 0q6 25 5 75q-1 66 0 80q-3 9 -21 7q-17 -2 -16 5q-1 9 17 8q17 -1 15 8q5 71 5 428q0 8 1 35q1 22 0 34q-2 39 -22 57h-635zM879 16
q-23 -1 -63 1q-45 1 -58 1h-456q-15 0 -55 -2q-42 -2 -63 -2q-76 0 -98 16q-37 28 -24 330v891v106q6 50 37 65h671q14 0 59 1q40 1 62 1q70 -1 87 -18q23 -24 22 -156q-1 -38 -3 -104q-3 -62 -3 -78v-879q0 -136 -20 -155q-19 -17 -95 -18zM1002 1080q0 11 2 76q2 64 2 105
q0 137 -20 157q-17 16 -208 16h-447q-219 0 -232 -4q-42 -12 -47 -80q-2 -24 0 -66q2 -56 2 -69v-900q1 -23 -4 -73q-5 -53 -4 -77q3 -113 16 -131q21 -28 94 -32q-5 0 130 0h492q6 0 60 -2q40 -1 65 1q73 4 91 33q8 14 8 167v879z" />
    <glyph glyph-name="Atilde" unicode="&#xc3;" horiz-adv-x="1049" 
d="M440 710q-19 -18 -29 -63q-2 -8 -7 -38q-5 -24 -8 -37q38 -6 131 -5q91 1 121 -4q7 44 -29 147h-179zM522 1072q-61 -212 -82 -338q86 -12 171 0q-39 215 -89 338zM770 710q15 -87 61 -251q49 -175 65 -258q-22 -5 -64 -4q-61 1 -70 0q-19 25 -33 97q-14 74 -32 98h-334
q-23 -24 -38 -93q-17 -78 -31 -102q-10 1 -74 -1q-46 -1 -64 9q49 171 130 501q-12 4 -90 4q-8 0 -24 -1q-17 -1 -23 -2q-26 0 -30 11q1 15 26 15q7 0 24 -1q16 -2 23 -2h94q15 28 73 249q9 32 35 127q23 79 34 125q0 3 2 6q2 4 2 6h192q12 -49 34 -129q27 -103 35 -131
q58 -219 73 -253h94q7 0 23 1t23 2q25 0 31 -11q-7 -14 -32 -14q-7 0 -23 1t-22 1h-90zM318 1402q-15 0 -66 1q-45 2 -71 1q-80 -1 -99 -23v-537q4 -3 17 -5t16 -7q-16 -1 -33 -8v-163q6 -6 20 3q15 8 17 5q16 -30 0 -61q-4 -3 -19 -5q-14 -2 -18 -7q-12 -120 0 -252
q2 -25 -4 -75q-6 -51 -4 -76q14 -152 12 -146q113 -9 664 -9q179 0 215 13q14 142 4 545q-1 7 -18 8q-17 0 -18 8v53q39 16 36 0q6 25 5 75q-1 66 0 80q-3 9 -21 7q-17 -2 -16 5q-1 9 17 8q17 -1 15 8q5 71 5 428q0 8 1 35q1 22 0 34q-2 39 -22 57h-635zM879 16
q-23 -1 -63 1q-45 1 -58 1h-456q-15 0 -55 -2q-42 -2 -63 -2q-76 0 -98 16q-37 28 -24 330v891v106q6 50 37 65h671q14 0 59 1q40 1 62 1q70 -1 87 -18q23 -24 22 -156q-1 -38 -3 -104q-3 -62 -3 -78v-879q0 -136 -20 -155q-19 -17 -95 -18zM1002 1080q0 11 2 76q2 64 2 105
q0 137 -20 157q-17 16 -208 16h-447q-219 0 -232 -4q-42 -12 -47 -80q-2 -24 0 -66q2 -56 2 -69v-900q1 -23 -4 -73q-5 -53 -4 -77q3 -113 16 -131q21 -28 94 -32q-5 0 130 0h492q6 0 60 -2q40 -1 65 1q73 4 91 33q8 14 8 167v879z" />
    </font>
</defs>
</svg>
